/* XPM */
static char * C:\Users\pc\Documents\pokeball_xpm[] = {
"16 16 5 1",
" 	c #589058",
".	c #000000",
"+	c #E53935",
"@	c #FFFFFF",
"#	c #9E9E9E",
"                ",
"      ....      ",
"    ..++++..    ",
"   .++++++++.   ",
"  .++@++++++..  ",
"  .+@++++++++.  ",
" .++++++++++++. ",
" ...++++...+++. ",
" ....++.@@@.++. ",
" .#@@...@@@.... ",
"  .@@@..@@@.@.  ",
"  .#@@@@...@@.  ",
"   .#@@@@@@@.   ",
"    ..##@@..    ",
"      ....      ",
"                "};
