/* XPM */
static char *result[] = {
/* columns rows colors chars-per-pixel */
"32 32 15 1 ",
"  c black",
". c #383828",
"X c #304058",
"o c #A02030",
"O c #908018",
"+ c #C8B848",
"@ c #388088",
"# c #30B0C0",
"$ c #68A0E8",
"% c #78C8F8",
"& c #B0B0D0",
"* c #A0E0F8",
"= c #D8F8F8",
"- c #E8E8F8",
"; c None",
/* pixels */
";;;;;;;;;;;;;;;;;;;;;;;;;;;;;;;;",
";;;;;;;;;;;;;;;;;;;;;;;;;;;;;;;;",
";;;;;;;;;;;;;;;;;;;;;;;;;;;XX;;;",
";;;;;;;;;;;XXX;;;;;;;;;;;;;X@X;;",
";;;;;;;;;XX*##XX;;;;;;;;;;;X#X;;",
";;;;;;;;X*#@@@##XX;;;;;;;;X@#X;;",
";;;;;;;X*#@@@@@@##XX;;;;XX@#X;;;",
";XXX;;;X#@@@####@@##XXXX##XXXX;;",
";X**XX;X#@@##@XX##@@####XXX**X;;",
";X$$**X;X@@#@X;;XX@@@@@XX**$$X;;",
";XX%$$*X;X  @X; ;;X  XXX*$$%XX;;",
";X$$%%$*X; %X@ # ;X% ;X*$%%$$X;;",
";;X%%%$*X; %%X % X%% ;X*$%%%X;;;",
";;X$$%%$%X #% @%@ %# X%$%%$$X;;;",
";;;X%$$$%X; # #%# # ;X%$$$%X;;;;",
";;;;X$$$%X;X@X###X@X;X%$$$X;;;;;",
";;;;;X$$$%XX- X#X -XX%$$$X;;;;;;",
";;;;;;XX$$%X&oXOXo&X%$$XX;;;;;;;",
";;;;;;; $X$X$.O+O.$X$X$ ;;;;;;;;",
";;;;;;;;X $$X%.+.%X$$ X;;;;;;;;;",
";;;;;;;;;;X$$==O==$$X;;;;;;;;;;;",
";;;;;;;;;;; *=====* ;;;;;;;;;;;;",
";;;;;;;;;;; $%===%$ ;;;;;;;;;;;;",
";;;;;;;;;;;; X%*%X ;;;;;;;;;;;;;",
";;;;;;;;;;;;.O.X.O.;;;;;;;;;;;;;",
";;;;;;;;;;;;..O O..;;;;;;;;;;;;;",
";;;;;;;;;;;;;;...;;;;;;;;;;;;;;;",
";;;;;;;;;;;;;;;;;;;;;;;;;;;;;;;;",
";;;;;;;;;;;;;;;;;;;;;;;;;;;;;;;;",
";;;;;;;;;;;;;;;;;;;;;;;;;;;;;;;;",
";;;;;;;;;;;;;;;;;;;;;;;;;;;;;;;;",
";;;;;;;;;;;;;;;;;;;;;;;;;;;;;;;;"
};
