/* XPM */
static char *result[] = {
/* columns rows colors chars-per-pixel */
"32 32 15 1 ",
"  c black",
". c #383828",
"X c #304058",
"o c #A02030",
"O c #908018",
"+ c #C8B848",
"@ c #306898",
"# c #388088",
"$ c #30B0C0",
"% c #68A0E8",
"& c #78C8F8",
"* c #A0E0F8",
"= c #D8F8F8",
"- c #E8E8F8",
"; c None",
/* pixels */
";;;;;;;;;;;;;;;;;;;;;;;;;;;;;;;;",
";;;;;;;;;;;;;;;;;;;;;;;;;;;;;;;;",
";;;;;;;;;;;;;;;;;;;;;;;;;;;;;;;;",
";;;;;;;;;;;;;;;;;;;;;;;;;;XXXX;;",
";;;;;;;;;;;;;;;;;;;;;;;XXX$$$$X;",
";;;;;;;;;;;;;;;;;;;;;XX*$$#XXX;;",
";;;;;;;;;;;;;;;;;;;;X*$##XX;;;;;",
";;;;;;;;;;  ;;;;;;;X*##$X;;;;;;;",
";;;;;;;;; & ;;;;;;X$#XX     ;;;;",
";;;;;;;;; &    ;;;XXX**&&&& ;;;;",
";;;;;;;; &$ &$ ;;X **&%%%X X;;;;",
";;;;;;;; $ &$ & X% *%%&&&&&X;;;;",
";;;;;;;; ### &&X% &&%&&%%%X;;;;;",
";;;;;;;;.  -&&&&@ &%&%%%&&X;;;;;",
";;;;;;;.+.o-&&&&@ &%%%%%%X;;;;;;",
";;;;;;;..O&&&&&& &%%%%%&XXX;;;;;",
";;;;;;;;;.&&&&&% %%%%%&X#$$XX;;;",
";;;;;;;;;@%=&&&X%%%%% XX###$#X;;",
";;;;;;;;;X===%%%%%%% ;;;X$##$X;;",
";;;;;;;;;X*=*=%%%%%X;;;;;X$##$X;",
";;;;;;;;;;X*=*X%%XXX;;;;;X$##$X;",
";;;;;;;;;;;X&X%%%%X@X;;;X$$##$X;",
";;;;;;;;;;;;X %%%% @XXXX$$###*X;",
";;;;;;;;;;;;;;X%%@.. #$$###$*X;;",
";;;;;;;;;;;;;;;.O.O.;  #$$*XX;;;",
";;;;;;;;;;;;;;;;...;;;;  XX;;;;;",
";;;;;;;;;;;;;;;;;;;;;;;;;;;;;;;;",
";;;;;;;;;;;;;;;;;;;;;;;;;;;;;;;;",
";;;;;;;;;;;;;;;;;;;;;;;;;;;;;;;;",
";;;;;;;;;;;;;;;;;;;;;;;;;;;;;;;;",
";;;;;;;;;;;;;;;;;;;;;;;;;;;;;;;;",
";;;;;;;;;;;;;;;;;;;;;;;;;;;;;;;;"
};
