/* XPM */
static char *result[] = {
/* columns rows colors chars-per-pixel */
"32 32 10 1 ",
"  c black",
". c #383828",
"X c #304058",
"o c #908018",
"O c #388088",
"+ c #30B0C0",
"@ c #68A0E8",
"# c #78C8F8",
"$ c #A0E0F8",
"% c None",
/* pixels */
"%%%%%%%%%%%%%%%%%%%%%%%%%%%%%%%%",
"%%%%%%%%%%%%%%%%%%%%%%%%%%%%%%%%",
"%%%%%%%%%%%%%%%%%%%%%%%%%%%%%%%%",
"%%XXX%%%%%%%%%%%%%%%%%%%%%%%XXX%",
"%%X$$XX%%%%%%%%%%%%%%%%%%%XX$$X%",
"%%X##$$X%%%%%%%% %%%%%%%%X$$##X%",
"%%%X##$$X%%  %% + %%  %%X$$##X%%",
"%%%@@###$X% +X% + %X+ %X$###@@%%",
"%%%X$$##$X% O+X   X++ %X$##$$X%%",
"%%%%@@###$X% + #$# + %X$###@@%%%",
"%%%%X$####X%% #$$$# %%X####$X%%%",
"%%%%%@@####X%X#$$$#X%X####@@%%%%",
"%%%%%X$@####X###$###X####@$X%%%%",
"%%%%%%XX@######$$$######@XX%%%%%",
"%%%%%%%% ####$$$$$$$#### %%%%%%%",
"%%%%%%%%% ##X@$$$$$@X## %%%%%%%%",
"%%%%%%%%%% X@##$$$##@X %%%%%%%%%",
"%%%%%%%%%%% ######### %%%%%%%%%%",
"%%%%%%%%%%% @#@###@#@ %%%%%%%%%%",
"%%%%%%%%%%%% @X@#@X@ %%%%%%%%%%%",
"%%%%%%%%%%%%.o.XOX.o.%%%%%%%%%%%",
"%%%%%%%%%%%%%.oXOXo.%%%%%%%%%%%%",
"%%%%%%%%%%%%%%.XOOXX%%%%%%%%%%%%",
"%%%%%%%%XXXX%%%%X+OOXX%%%%%%%%%%",
"%%%%%XXXOOOOXX%%%X+OOOX%%%%%%%%%",
"%%%XXO+++++OO+XXX++OOO+X%%%%%%%%",
"%%XO++XXXXX++OO+++OOO+$X%%%%%%%%",
"%XO+XX%%%%%XX++OOOO++$X%%%%%%%%%",
"%X+X%%%%%%%%%XX++++$XX%%%%%%%%%%",
"%X+X%%%%%%%%%%%XXXXX%%%%%%%%%%%%",
"%%XX%%%%%%%%%%%%%%%%%%%%%%%%%%%%",
"%%%%%%%%%%%%%%%%%%%%%%%%%%%%%%%%"
};
