/* XPM */
static char * C:\Users\pc\Documents\pokemon_xpm\7\right_1_xpm[] = {
"32 32 15 1",
" 	c #589058",
".	c #582860",
"+	c #C870B0",
"@	c #A05888",
"#	c #E098D0",
"$	c #F0C0D8",
"%	c #000000",
"&	c #E8E8F8",
"*	c #003858",
"=	c #2890A8",
"-	c #106080",
";	c #C8D0D8",
">	c #B04878",
",	c #D06898",
"'	c #882038",
"                                ",
"                                ",
"                                ",
"                                ",
"                                ",
"                                ",
"                                ",
"          ...                   ",
"          .++.  .               ",
"           .+@@.#.              ",
"          .++.@.#.              ",
"          .+.$.+++.             ",
"     %...  ..$$.++.             ",
"     %#$#.  .#$.@@.             ",
"      %###%@.###.$+.            ",
"    .. %##%@#@##@$$#.           ",
"    %+.%+#%##@###$###.          ",
"    %++@++.########@#@          ",
"     %@@+.+.#####&&+##%         ",
"      %%.@+@.+##+&%&##%         ",
"       *=-..@..+++++@.          ",
"       *====.@@...;>,%          ",
"      .*==**-..@@@.'%           ",
"     .+@**---*@@@@%             ",
"     %%.**---*...%              ",
"         *..-.@@+%              ",
"          .@.@%..+%             ",
"          %@..%@++%             ",
"           %.  .#%              ",
"                .%              ",
"                                ",
"                                "};
