/* XPM */
static char * C:\Users\pc\Documents\pokemon_xpm\7\up_0_xpm[] = {
"32 32 8 1",
" 	c #589058",
".	c #582860",
"+	c #000000",
"@	c #F0C0D8",
"#	c #A05888",
"$	c #E098D0",
"%	c #C870B0",
"&	c #003858",
"                                ",
"                                ",
"                                ",
"                                ",
"                                ",
"                                ",
"                                ",
"                                ",
"           .         .          ",
"          +@+       +@+         ",
"    ...   +@#+     +#@+   ...   ",
"   +$@$.  +$$.     .$$+  .$@$+  ",
"    +$$$. +#$$+...+$$#+ .$$$+   ",
"  .. +$$.  +$$%@$$%$$+  .$$+ .. ",
"  .%.+%$.  +$$$@@$$$$+  .$$+.%. ",
"  .%%#%%. .$$$$@$$$$$$. .$$#%%. ",
"   .##%.%+%$$$$$$$$$$$%+%.$##.  ",
"    ..#$%+%%%$$$$$$$%%%+%$#..   ",
"      .$$$+%%%%%%%%%%%.$$$.     ",
"      .$$$$+.%%...%%.+$$$$.     ",
"      .$$$%%%..$$$..%%%$$$.     ",
"      .$$%%%%%$$$$$%%%%%$$.     ",
"     .$$%%%%%%$$$$$%%%%%%$$.    ",
"     ...%%%%.+%$$$%+.%%%%...    ",
"        ..%.#.+...+.#.%..       ",
"         ..#.+.###+..#..        ",
"          ..+#%..+&  ..         ",
"            +%%%#+              ",
"             .%.+               ",
"             ..                 ",
"                                ",
"                                "};
