/* XPM */
static char * C:\Users\pc\Documents\pokemon_xpm\enemy\up_2_xpm[] = {
"32 32 9 1",
" 	c #589058",
".	c #303030",
"+	c #000000",
"@	c #505050",
"#	c #986858",
"$	c #E8B080",
"%	c #704040",
"&	c #F8D0B8",
"*	c #70B868",
"                                ",
"                                ",
"                                ",
"                                ",
"             ..  ...            ",
"            +@@..@@.+           ",
"            +@@@@@@.+           ",
"           +..@@@@@..+          ",
"           +..@@@@...+          ",
"         ++++..@@@..++++        ",
"        +..++.......++..+       ",
"        +..++++...++++..+       ",
"        +@..+++++++++..@+       ",
"         +@...+++++...@+        ",
"         .+@@.......@@+.        ",
"         +#++@@@@@@@++#+        ",
"         +#.+++++++++.#+        ",
"          ++.........++         ",
"           ++.......++          ",
"           .++.....++..         ",
"           .@.+++++.@@@.        ",
"          .@@@.....@.@.$%       ",
"          .@@.@@@@@@+.$$%       ",
"         %&.@.@@@@@@+*%%        ",
"         %$$++@@@@@..+          ",
"          %%+......@.+          ",
"            ++...@@@@+          ",
"              +++.@@.+          ",
"                 +..+           ",
"                 +@@+           ",
"                  ++            ",
"                                "};
