/* XPM */
static char * C:\Users\pc\Documents\pokemon_xpm\art\front_2_xpm[] = {
"32 32 15 1",
" 	c #589058",
".	c #304058",
"+	c #388088",
"@	c #A0E0F8",
"#	c #30B0C0",
"$	c #000000",
"%	c #78C8F8",
"&	c #E8E8F8",
"*	c #B0B0D0",
"=	c #A02030",
"-	c #908018",
";	c #68A0E8",
">	c #383828",
",	c #C8B848",
"'	c #D8F8F8",
"                                ",
"                        ..      ",
"            ...         .+.     ",
"          ..@##..        .+.    ",
"         .@#+++##..      .#.    ",
"        .@#++++++##..   .+#.    ",
"        .#+++####++##...##+.    ",
"        .#++#+...#+++###++.     ",
"        .++#+.  ...+++++..      ",
"         .+#+.     .....        ",
"          $$#++$   $$           ",
"          $%.+$#$ .%$           ",
"          $%%.$%$.%%$           ",
"          $#%$+%+$%#$           ",
"           $#$#%#$#$            ",
"           .+.###.+.            ",
"           .&$.#.$&.            ",
"           .*=.-.=*.            ",
"          ..;>-,->;..           ",
"         .;;.%>,>%.;;.          ",
"        .;%;;''-'';;%;.         ",
"       .%%%.@'''''@.%%%.        ",
"      ..;%%.;%'''%;.%%;..       ",
"     .;%%%@.$.%@%.$.@%%%;.      ",
"    .%%%%@. >->.>-> .@%%%%.     ",
"    $.;%%@. >>-$->> .@%%;.$     ",
"   $%%%%@.    >>>    .@%%%%$    ",
"   .$;%@@.           .@@%;$.    ",
"   $%%%..             ..%%%$    ",
"  $%%$$                 $$%%$   ",
"  $$$                     $$$   ",
"                                "};
