/* XPM */
static char * C:\Users\pc\Documents\pokemon_xpm\art\up_2_xpm[] = {
"32 32 10 1",
" 	c #589058",
".	c #000000",
"+	c #30B0C0",
"@	c #304058",
"#	c #78C8F8",
"$	c #A0E0F8",
"%	c #68A0E8",
"&	c #908018",
"*	c #383828",
"=	c #388088",
"                                ",
"                                ",
"                                ",
"                                ",
"                                ",
"                .               ",
"           ..  .+.  ..          ",
"           .+@ .+. @+.          ",
"           .++@...@++.          ",
"            .+.#$#.+.           ",
"             .#$$$#.            ",
"             @#$$$#@            ",
"            @###$###@           ",
"            @##$$$##@           ",
"           @##$$$$$##@          ",
"          @###$$$$$###@         ",
"         @#####$$$#####@        ",
"        @$###@#####@###$@       ",
"       @$$##@%%###%%@##$$@      ",
"       @$###.%@%#%@%.###$@      ",
"      @$####.&*@=@*&.####$@     ",
"      @$##%%@*&@=@&*@%###$@     ",
"     @##@@@@  *@==@@ @#####@    ",
"     @@@====@@  @+==@@%#%##@    ",
"    @=+++++===@  @+==@@#@#%#@   ",
"   @=++@@@++=++@@++==+@@@#@#@   ",
"  @=+@@   @@+==+++===+@  @@@@   ",
"  @+@       @+======+$@         ",
"  @+@        @++==++$@          ",
"   @@         @@++$@@           ",
"                @@@             ",
"                                "};
