/* XPM */
static char *result[] = {
/* columns rows colors chars-per-pixel */
"32 32 13 1 ",
"  c black",
". c #604020",
"X c #B05020",
"o c #C84820",
"O c #E07070",
"+ c #D08020",
"@ c #C09840",
"# c #F0D070",
"$ c #A020A0",
"% c #989898",
"& c #F088E0",
"* c #E8E8F8",
"= c None",
/* pixels */
"================================",
"================================",
"================================",
"================================",
"================================",
"================================",
"================================",
"===============..===============",
"===============.o.==============",
"==============..o.==============",
"=============.o.O.==============",
"=====..======.ooO.======..======",
"====.X.======.ooOo.=====.X.=====",
"====.@X.====.oOoOo.====.X@.=====",
"===.##X.====.oOoOo.====.X##.====",
"===.@@X+.===.oOoOo.===.+X@@.====",
"===.#@@X.===.oOOOo.===.X@@#.====",
"===.##@X+.=.X.OOO.X.=.+X@##.====",
"====.@@@X+..%.OoO.%..+X@@@.=====",
"==== #@@@XX *.ooo.* XX@@@# =====",
"===== #@@@X # o$o # X@@@# ======",
"====== #@@+X.#$&$#.X+@@# =======",
"=======   X+++#$#+++X   ========",
"========= .##+++++##. ==========",
"==========.@#######@.===========",
"==========. @@###@@ .===========",
"=========== $&   &$ ============",
"============  ===  =============",
"================================",
"================================",
"================================",
"================================"
};
