/* XPM */
static char *_4008bc4cd66487df8e57eae14102306Ihs9qrIXWkcY2czw[] = {
/* columns rows colors chars-per-pixel */
"32 32 13 1 ",
"  c None",
". c black",
"X c #604020",
"o c #B05020",
"O c #C84820",
"+ c #E07070",
"@ c #D08020",
"# c #C09840",
"$ c #F0D070",
"% c #A020A0",
"& c #989898",
"* c #F088E0",
"= c #E8E8F8",
/* pixels */
"                                ",
"                                ",
"                                ",
"                                ",
"                                ",
"                                ",
"                                ",
"                                ",
"             XXX.               ",
"            XX++.               ",
"           X++O.                ",
"          X++O.....             ",
"         X++..OOOOO.            ",
"         X+.OOOO...             ",
"        X++OOO..                ",
"        X+OO..o@X               ",
"        X+O..o@@X               ",
"        %OX=.@@@@X              ",
"       %*#.&.X@@@@X             ",
"       %%%#$#.@@@@oX   XX       ",
"         .o$$.X@@@@X XX#XX      ",
"         .oooX@@Xo@oX#$OOX      ",
"          .##.@@oXooOOO++X      ",
"         XoX.@@ooXooo#$$X       ",
"         XXX.@ooooXoXXOOX       ",
"           .ooooooXX  XX        ",
"           .##oooo.             ",
"           .#####o.             ",
"          X#$#$#$.              ",
"          X#$#$..               ",
"          XX...                 ",
"                                "
};
