/* XPM */
static char *_d7bc735ed7b474ddee0b97927770318LH5IgVz7KUjdnAOH[] = {
/* columns rows colors chars-per-pixel */
"32 32 13 1 ",
"  c None",
". c black",
"X c #604020",
"o c #B05020",
"O c #C84820",
"+ c #E07070",
"@ c #D08020",
"# c #C09840",
"$ c #F0D070",
"% c #A020A0",
"& c #989898",
"* c #F088E0",
"= c #E8E8F8",
/* pixels */
"                                ",
"                                ",
"                                ",
"                                ",
"                                ",
"                                ",
"                                ",
"                                ",
"             XXX.               ",
"            XX++.   XXXX        ",
"           X++O.  XXoooX        ",
"          X++O.....ooooX        ",
"         X++..OOOOO.ooX         ",
"         X+.OOOO...oo..XXX      ",
"        X++OOO..ooo.X@oooX      ",
"        X+OO..o@Xo.@oo#$$X      ",
"        X+O..o@@X.@o####X       ",
"        %OX=.@@@.@@###$$X       ",
"       %*#.&.X@o@@#####X        ",
"       %%%#$#.@@@o###$XXX       ",
"         .o$$.X@o####XX#XX      ",
"         .oooX@oo##XX#$OOX      ",
"          .#$$@ooXXXOOO++X      ",
"           .#$$#ooooo#$$X       ",
"            XX####ooXXOOX       ",
"              XXXXXX  XX        ",
"                                ",
"                                ",
"                                ",
"                                ",
"                                ",
"                                "
};
