/* XPM */
static char *af3af8014d744eb8e929d28892dc428f59rUkzSTHDsyPPHi[] = {
/* columns rows colors chars-per-pixel */
"32 32 10 1 ",
"  c None",
". c black",
"X c #604020",
"o c #B05020",
"O c #C84820",
"+ c #E07070",
"@ c #D08020",
"# c #C09840",
"$ c #F0D070",
"% c #A020A0",
/* pixels */
"                                ",
"                                ",
"                                ",
"                                ",
"                                ",
"                                ",
"                                ",
"                                ",
"                                ",
"              XX                ",
"             XOXX               ",
"      XX    XOOXOX     XX       ",
"     X$X    XO+O+OX    X$X      ",
"     X$X   X@X+++X@X   X$X      ",
"    X$#$X  X@X+O+X@X  X$#$X     ",
"    X$###X .oXOO+Xo. X###$X     ",
"    X#$#o@X.oXOOO.o.X@o#$#X     ",
"    X###oo@XooXOXooX@oo###X     ",
"     X#ooo@@ooXO.oo@@ooo#X      ",
"     X#ooo@@oo.O.oo@@ooo#X      ",
"      X#oooooo..ooooooo#X       ",
"       ..oo.ooooooo.oo..        ",
"         ..ooooooooo..          ",
"           .oXXXXXo.            ",
"            .+$+$+.             ",
"           X.O#O#O.X            ",
"           .%X...X%.            ",
"            ..   ..             ",
"                                ",
"                                ",
"                                ",
"                                "
};
