/* XPM */
static char * C:\Users\pc\Documents\pokemon\2\down_0_xpm[] = {
"32 32 12 1",
" 	c #589058",
".	c #705898",
"+	c #8870A0",
"@	c #503868",
"#	c #282838",
"$	c #383838",
"%	c #484848",
"&	c #000000",
"*	c #B8B8B8",
"=	c #E8E8F8",
"-	c #888888",
";	c #980840",
"                                ",
"                                ",
"                                ",
"                                ",
"                                ",
"                                ",
"                                ",
"                      ..        ",
"                      +@        ",
"                                ",
"              .++      ..       ",
"             .+++++   ++..      ",
"            ..+++++.  @+..      ",
"          ..+++++++..  @.       ",
"    +.   .+++++++++++.          ",
"    @@   .++++###+++++.         ",
"        .++.#$%%%$#.++.         ",
"       .+++#%%%%%%%#++.         ",
"       .++.$%%%%%%%$....        ",
"       ..+#%%%%%%%%%#...        ",
"       @..&*%%%%%%%*#..@        ",
"       @..&=#-%%%-#=&.@         ",
"        @.&$*-$%$-*$&.@         ",
"         @@&$$$$$$$&@@          ",
"         @@@&*;;;*&@@@          ",
"          @@@@&&&@@@@           ",
"            @@@@@@              ",
"                                ",
"                                ",
"                                ",
"                                ",
"                                "};
