/* XPM */
static char * C:\Users\pc\Documents\pokemon\2\up_1_xpm[] = {
"32 32 8 1",
" 	c #589058",
".	c #705898",
"+	c #8870A0",
"@	c #503868",
"#	c #282838",
"$	c #383838",
"%	c #484848",
"&	c #000000",
"                                ",
"                                ",
"                                ",
"                                ",
"                                ",
"      ..                        ",
"     ..++                       ",
"     @..@                       ",
"      @@                        ",
"                                ",
"     .+       +++               ",
"     .+@     ++++++             ",
"      @.   .+++++++.            ",
"         ..++++++++..    +++    ",
"        .++++++++++++..  .+@    ",
"        .+++++###+++++.  .@     ",
"       .+++.#$%%%$#.++.         ",
"       .+++#%%%%%%%#+...        ",
"       ..+.$%%%%%%%$....        ",
"       ...#%%%%%%%%%#...        ",
"       ...#%%%%%%%%%#..@        ",
"       @..#$%%%%%%%$&.@         ",
"        @@&#$%%%%%$#&@@         ",
"         @@&$$$$$$$&@@          ",
"         @@@&&$$$&&@@@          ",
"          @@@@&&&@@@@           ",
"            @@@@@@              ",
"                                ",
"                                ",
"                                ",
"                                ",
"                                "};
