/* XPM */
static char * C:\Users\pc\Documents\pokemon_xpm\sceane\door_close_xpm[] = {
"32 32 15 1",
" 	c #589058",
".	c #525252",
"+	c #565656",
"@	c #5F5F5F",
"#	c #686868",
"$	c #454545",
"%	c #494949",
"&	c #486093",
"*	c #4E4E4E",
"=	c #425086",
"-	c #374579",
";	c #2F4168",
">	c #29345B",
",	c #232C4E",
"'	c #1D203D",
"  .++++++++@#######@++++++++.   ",
"  .+$$+%%%@##&&&&&##@%%%+$$+.   ",
"  @+$%+*.@##&&====&##@**+%$+@   ",
"  @+$+*..@#&&==--==&##@.*+$+@   ",
"  @+%+..@##&==----==&##@.+%+@   ",
"  @+%+..@#&&=-----==&&#@.+%+@   ",
"   ++*.@##&&=---;--==&#@.*++    ",
"   ++*.@#&&==---;;-==&##@.++    ",
"   +%*@##&&=---;;;--==&#@.%+    ",
"   +%*@#&&==--;;>;--==&#@.%+    ",
"   +%*@#&&=--;;>>;--==&#@.%+    ",
"   +%*@#&=---;;>>;--==&##@%+    ",
"   +%@##&=---;>>,;--==&&#@%+    ",
"   +%@#&&=--;;>,,;;--==&#@%+    ",
"   +@##&==--;;>,'>;--==&#@%+    ",
"   +@#&&=---;;>,'>;--==&##@+    ",
"   +@#&==---;;>'',;--==&&#@+    ",
"   +@#&==--;;>>,'>;--==&&#@+    ",
"   +@#&==--;;>,''>;--==&&#@+    ",
"   +@#&==--;;>,',>;--==&&#@+    ",
"   +@##&==-;;>>,>;;--==&##@+    ",
"   +%@#&==--;;>>>;--===&#@%+    ",
"   +%@#&==--;;>>;;--==&&#@%+    ",
"   +%@#&&=---;;;;--==&&##@%+    ",
"   +%@##&==--;;;---==&##@.%+    ",
"   +%*@#&==---;----=&&#@.*%+    ",
"  @++*@##&==------==&&#@.*++@   ",
"  @++*.@##&===---==&&##@.*++@   ",
"  @+$+*.@##&===-===&&#@.*+$+@   ",
"  @+$%+**@##&=====&&##@*+%$+@   ",
"  .+$$+%%%@##&&==&###@%%+$$+.   ",
"  .+++++++++#######+++++++++.   "};
