/* XPM */
static char *result[] = {
/* columns rows colors chars-per-pixel */
"32 32 210 2 ",
"   c #2B2617",
".  c #312B1A",
"X  c #39321F",
"o  c #2B2D22",
"O  c #283627",
"+  c #243C2A",
"@  c #333225",
"#  c #3B3622",
"$  c #303E2F",
"%  c #453C2A",
"&  c #4B3F31",
"*  c #284732",
"=  c #3C4639",
"-  c #4C412F",
";  c #4A4737",
":  c #554636",
">  c #564A3C",
",  c #5A4E3E",
"<  c #745436",
"1  c #755739",
"2  c #775839",
"3  c #7A5B3D",
"4  c #3D5845",
"5  c #3E664C",
"6  c #584E40",
"7  c #4D5348",
"8  c #5D5243",
"9  c #51554C",
"0  c #575C48",
"q  c #575F50",
"w  c #604E40",
"e  c #695A46",
"r  c #785D43",
"t  c #476A53",
"y  c #546955",
"u  c #4D775C",
"i  c #75614B",
"p  c #796148",
"a  c #6C6C5A",
"s  c #786A55",
"d  c #7C6B59",
"f  c #62705F",
"g  c #7C705A",
"h  c #5B7963",
"j  c #6C7263",
"k  c #6F7768",
"l  c #7A7665",
"z  c #76796A",
"x  c #7D7C6C",
"c  c #7A7F73",
"v  c #88674A",
"b  c #91704F",
"n  c #8A6D57",
"m  c #8B6E5A",
"M  c #906F50",
"N  c #8F7053",
"B  c #81725D",
"V  c #8D725C",
"C  c #847763",
"Z  c #897B68",
"A  c #917462",
"S  c #568468",
"D  c #548D73",
"F  c #5A947A",
"G  c #60886E",
"H  c #79806E",
"J  c #668972",
"K  c #7C8170",
"L  c #768F7C",
"P  c #66947B",
"I  c #6A957C",
"U  c #6B997F",
"Y  c #75907D",
"T  c #8F806B",
"R  c #98856D",
"E  c #84877D",
"W  c #88887A",
"Q  c #9B8B7A",
"!  c #A2846A",
"~  c #A88768",
"^  c #A68B6E",
"/  c #AD8C6D",
"(  c #A58B73",
")  c #AA8D73",
"_  c #A18F7B",
"`  c #B08F71",
"'  c #AD9174",
"]  c #A3917D",
"[  c #AD947B",
"{  c #B39375",
"}  c #B89879",
"|  c #5E9E83",
" . c #699B82",
".. c #759983",
"X. c #6DA188",
"o. c #74A38A",
"O. c #78AA92",
"+. c #7EAE93",
"@. c #7AB399",
"#. c #8C8E81",
"$. c #918F82",
"%. c #8D9185",
"&. c #8D9389",
"*. c #929485",
"=. c #9C9587",
"-. c #92958A",
";. c #95998D",
":. c #9C9A8C",
">. c #9D9E95",
",. c #A49681",
"<. c #AC9582",
"1. c #A69B85",
"2. c #AC9A85",
"3. c #A49F8F",
"4. c #AD9E8A",
"5. c #B69C83",
"6. c #BC9D80",
"7. c #B39C8A",
"8. c #9DA08F",
"9. c #84AB95",
"0. c #9EA294",
"q. c #99AD9C",
"w. c #86B39A",
"e. c #92B19F",
"r. c #AFA38D",
"t. c #B5A28F",
"y. c #BDA58B",
"u. c #A6A396",
"i. c #A9A697",
"p. c #A4A59B",
"a. c #A4AA9C",
"s. c #ABAA9C",
"d. c #B4A493",
"f. c #BBA895",
"g. c #B4AD9D",
"h. c #BCAC9C",
"j. c #ADB09D",
"k. c #88BBA2",
"l. c #9FB1A1",
"z. c #98B9A7",
"x. c #A6ADA2",
"c. c #ABADA2",
"v. c #ACABA6",
"b. c #B3ACA3",
"n. c #BDAFA4",
"m. c #B1AEA9",
"M. c #A5B6A7",
"N. c #ADB1A5",
"B. c #AEB4A9",
"V. c #B3B3A4",
"C. c #BAB2A2",
"Z. c #B3B4AB",
"A. c #BBB5AB",
"S. c #B5B9AD",
"D. c #BBB9AC",
"F. c #B6B6B1",
"G. c #B7B7B2",
"H. c #BDBCB3",
"J. c #C4A384",
"K. c #C5A88B",
"L. c #C5AC93",
"P. c #C3AE9B",
"I. c #C7B19B",
"U. c #C5B8AC",
"Y. c #C1BCB3",
"T. c #94C5AD",
"R. c #9AC2AA",
"E. c #97C9B2",
"W. c #A4C3AE",
"Q. c #AAC4B5",
"!. c #B8C5B7",
"~. c #BEC2BA",
"^. c #C2C2B6",
"/. c #C9C6B7",
"(. c #C4C4BB",
"). c #CAC5BC",
"_. c #C5CABD",
"`. c #C9C9BD",
"'. c #D1CABE",
"]. c #B0D2C2",
"[. c #C4C6C1",
"{. c #C7CAC2",
"}. c #CCCBC2",
"|. c #CDCEC8",
" X c #D3CDC4",
".X c #CCD0C5",
"XX c #CFD2CA",
"oX c #D3D3C6",
"OX c #D4D5CB",
"+X c #DAD6CB",
"@X c #D3D8CE",
"#X c #D9DACE",
"$X c #DBDBD0",
"%X c #DFE6D4",
"&X c #DFE7DB",
"*X c #E4E5D9",
"=X c #E4ECE1",
"-X c #E7EAE6",
";X c #EBEEE4",
":X c #EBF2E4",
">X c #ECF6EA",
",X c #EEF8ED",
"<X c #F5F5EA",
"1X c #F3F4EE",
"2X c #F3FAEC",
"3X c #F4F5F0",
"4X c #FCF6F2",
"5X c #F5FCF4",
"6X c #FBFBF4",
"7X c #FEFEFC",
/* pixels */
"1X7X6X7X7X3X7X7X7X7X7X7X7X7X7X7X7X7X7X7X7X7X7X7X7X7X4X7X7X7X6X7X",
"`.`.`.s.`.XX[.|./.OX^.g.`.^.XX{.}.[.`.G.^.oX/.'.).H.$Xm.Y.}. X[.",
"`.oX^.S.@XB.(.[././.C.s.V.x.c.x.N.B.v.p.u.D.V.'.^.oX^.A. X}. XY.",
"C.u.Z.Z.F.H.(.a.a.V.OX:X:X;X&X=X=X;X*X<X*XoX8.Q *.s.B.s.b.G.p.Y.",
"m.#XH.|.H.x.x.@X2X%X:X2X*X2X>X5X,X>X>X>X6X<X#X_.@X-.-.}.}.Y.}.Y.",
"c.Y.$XH.H.-X&X5X2X_.V.a.&.M.x.a.x.x.c.#.a.V.+X#X%X~.{.E OX(.v.|.",
"V.}.}.>.-X1X].m.N.q.N.a.;.x.B.c.N.Z.N.;.j.p.D.V.x.%X@XXXc }.v.[.",
"m.Z.p.4X-X&.(.p.j.N.S.N.>.&.c.Z.c.c.-.p.Z.V.V.N.q.x.&.|.OXE G.v.",
"`.s.@X1Xp.B.#.Z.B.a.a.B.B.;.B.s.Z.V.%.S.c.c.p.Z.F.&.x.S.!..X%._.",
"^.Z.;Xp.H.c.v.-.M.e.* + O O $ O O O O O O * l.x.&.0.Z.S.p.}.&._.",
"Z.*XD.Z.s.D.C.q.+ * G ..J ..J y y ..L Y ..h t 4 M.c.S.p.S.B._.E ",
"s.^.A.s.i.s.u.= P P X.P P U J u 5 I  .I .. .D ..9 u.D.s.i.Z.`.#.",
"4Xp.:.=.D.b.% 0  .| F  .k.@.+.S u 9.w.+.| @.@.@.k > g.s.$.*.p.oX",
"^.Z.s.g.T   C q X.D O.O.o.w.R.G t e.e.T.T.E.E.O.j d.> =.V.3.D.^.",
"`.s.A.i.C.% d a J k.T.E.R.W.W.h t Q.R.e.E.z.z.e.K Q , h.C.A.i.`.",
"Z.V.i.g.- d g 0 ..].9.q.M.M.q.K y a.j.q.G.z.z.Q.l r.d., g.u.C.D.",
"B.j.j.C.. T e g H f z H a W a l T l x z x k H k Z d U.& n.C.D.i.",
"-.%.*.=.X B p r.] 1.u.1.,.,.4.2.r.,.,.,.r.1.1.1.7.m f.: 1.W &.;.",
"B.a.j.i.X T i [ I.y.y.y.L.L.K.y.t.L.I.y.y.y.L.K.) A P., j.s.x.x.",
"B.B.j.j.X T s ^ ^ ' ^ ) ' ( / { ' ^ ^ / ' ' ( ) A A P.w C.V.N.x.",
"c.V.N.i.X l 1 p 1 r 3 < 3 3 < < 2 2 2 3 3 3 3 1 v V y.: i.j.V.B.",
"x.N.j.i.X T a r } K.~ ! } K./ b v } J./ b } J./ m ( I., g.j.s.B.",
"*.*.W =.  T s p ' J.~ b { K./ M < / J./ v 6.K.{ m <.h.- =.*.W ;.",
"V.j.j.j.X T g p R } ~ b ) J./ N v ! ` { b } J.{ V 7.h., g.V.s.V.",
"j.N.j.V.# l s e <.K.A A 5.L.( n r [ y.<.v 7.y.( V 7.d.6 b.V.i.m.",
"N.V.s.j.; l a i t.t.<.Z ] f.<.B i 7.P.R C <.f._ A _ n.8 u.A.V.s.",
"s.a.S.8.X ; , , : 6 > > w 6 > 6 & 6 w 6 : 8 8 6 : w e 6 V.s.a.V.",
"-.:.W 0.@ D.j.U.Y.A.b.m.A.b.b.Y.Y.b.b.A.Y.m.b.b.U.n.:.@ #.:.>.#.",
"x.x.m.v.@ B.D.g.v.F.F.m.m.G.m.m.F.F.m.F.F.F.m.F.U.b.}.o V.c.p.c.",
"m.v.Z.Y.o i.Y.H.[.3X7X7X7X7X7X7X4X7X7X7X4X7X7X7X<X4X4X  Z.N.S.c.",
"7 9 4 $ H.H.p.m.-X7X7X7X7X7X7X7X7X7X7X7X7X7X7X7X7X4X7X7X9 4 7 9 ",
"F.v.G.F.m.m.4X7X7X7X5X5X7X7X5X7X7X7X5X7X7X7X7X7X4X7X7X5X5XH.B.x."
};
