/* XPM */
static char * C:\Users\pc\Documents\pokemon_xpm\sceane\door_open_xpm[] = {
"32 32 8 1",
" 	c #589058",
".	c #486093",
"+	c #425086",
"@	c #374579",
"#	c #2F4168",
"$	c #29345B",
"%	c #232C4E",
"&	c #1D203D",
"          .  ....               ",
"            ..++...    .        ",
"      ..   ..+++++...  ..       ",
"     .+   ..++@@@+++..  +.      ",
"     .   ..++@#@@@+++..  +.     ",
"    .+  ..++@###@@@@++..  .  .  ",
"    +  ..++@@#####@@@++.. +     ",
"    + ..++@@###$####@@++.  .    ",
"      .++@@###$$$$###@++..      ",
"  .   .++@@##$$$$$$##@@+..      ",
"  .   .++@##$$$%%$$##@@++.      ",
"      ++@@##$$%&%%$##@@++.  .   ",
"   . .++@@#$$%%&&%$###@@+.  .   ",
"  .+ .++@##$$%&&&%$$##@@+.. .   ",
"  .  ++@@##$%%&&%%%$##@@++.     ",
"  + .++@@##$%%&&&%%$##@@++.     ",
" .  .++@@##$$%&&&%%$##@@++.     ",
"     ++@@##$$%&&&%$$#@@@++.     ",
"     .+@@@#$$%%%&%$$#@@@++.     ",
"  .  .+@@@##$$%%%%$$#@@@+..  .  ",
"  +. .++@@##$$$%%$$##@@++..     ",
"     .+++@##$$$$$$$#@@+++.      ",
"      .++@@##$$$$$##@+++..  .   ",
"      ..++@@###$####@++..  .    ",
"   .   .++@@######@@@+..   .    ",
"    .  ..+@@@@##@@@+++.   .+    ",
"    .  ..++@@@@@@@@+++.   +     ",
"    .   .++++@@@@+++...  .+     ",
"    +    .+++@@@@+++.    .      ",
"    +.   .++++@++++..           ",
"     +.   ..++++..              ",
"            ....    .           "};
