/* XPM */
static char *result[] = {
/* columns rows colors chars-per-pixel */
"32 32 96 2 ",
"   c #24251C",
".  c #27291E",
"X  c #272622",
"o  c #2B2C23",
"O  c #2F3126",
"+  c #2F3028",
"@  c #303227",
"#  c #34352B",
"$  c #383A2F",
"%  c #363531",
"&  c #373830",
"*  c #3C3D35",
"=  c #44443D",
"-  c #47493E",
";  c #4C4B42",
":  c #4E4F49",
">  c #504C41",
",  c #4F5048",
"<  c #505046",
"1  c #53534B",
"2  c #565550",
"3  c #5C5D57",
"4  c #6C665A",
"5  c #7E7E74",
"6  c #7E8075",
"7  c #86867B",
"8  c #86887D",
"9  c #8C8A7D",
"0  c #938D7F",
"q  c #8D8D83",
"w  c #8F9185",
"e  c #919186",
"r  c #95958A",
"t  c #99978A",
"y  c #97998C",
"u  c #969590",
"i  c #9B9C92",
"p  c #A29F96",
"a  c #9EA095",
"s  c #A2A297",
"d  c #A5A69B",
"f  c #A8A69A",
"g  c #A7A99E",
"h  c #AAAA9E",
"j  c #A5A6A3",
"k  c #A7A9A1",
"l  c #ACADA3",
"z  c #A7A6AB",
"x  c #A8A7AC",
"c  c #ADADAC",
"v  c #B2AEA2",
"b  c #B0AFAA",
"n  c #AFB1A5",
"m  c #AFB0AA",
"M  c #B2B2A6",
"N  c #B3B4AB",
"B  c #B6B8AC",
"V  c #B8B9AE",
"C  c #AFAFB1",
"Z  c #B2B2B2",
"A  c #B8B7B2",
"S  c #B6B9B1",
"D  c #BBBCB3",
"F  c #B6B5B9",
"G  c #BBBBBA",
"H  c #BFC1B6",
"J  c #BFC0B9",
"K  c #C0C2B7",
"L  c #C4C5BB",
"P  c #C6C9BE",
"I  c #C8C9BE",
"U  c #BDBCC1",
"Y  c #C6C6C6",
"T  c #C7C9C0",
"R  c #CBCCC2",
"E  c #CFD0C8",
"W  c #D0D1C6",
"Q  c #D4D5CA",
"!  c #D6D8CD",
"~  c #D9DACF",
"^  c #DBDBD1",
"/  c #E2E4D7",
"(  c #E7E9DD",
")  c #EAECDF",
"_  c #ECEEE2",
"`  c #EDEDED",
"'  c #EFF1E4",
"]  c #EFF0EB",
"[  c #F1F3E6",
"{  c #F3F5EA",
"}  c #F8FAEE",
"|  c #F5F5F4",
" . c #F8F7F4",
".. c #F7FDF5",
"X. c #FAFCF5",
"o. c #FEFEFD",
/* pixels */
"X.o.......o.| { X.o.X.o.o.o.o.o.X.X.o.o.X.X.o.X.o.] o.o...o.X.| ",
"T T g P E P R L ! H n I K W P P P I V L W H R R D ~ b L P R T K ",
"Q K B Q B L T L P M a H h l h n n l d s H n I K Q L B R I I P W ",
"s N B N H H g d n Q _ ' ' / ) ( ) ) [ ( W a e 0 h v k l V d V l ",
"! H R H d d ! { / [ { / } [ } { [ [ [ } { ~ I ~ e r R R D R D W ",
"H ! H H ' / ..{ P M f 0 n l d g l l 0 h n ! ^ ~ L R 7 Q L h W K ",
"R I a ( [ P n n d n h y h M l n M n t h d H h n ^ Q Q 5 R l I Q ",
"B s X.' w K d h h H M i w n M l l t a B n B h g v e R W 9 D l v ",
"g ! { d n 8 N N h l n N y n k n n w N l l g B N e l N K R e I I ",
"g ( H l l l w B a $ # o   ; O   -   $ % * i M r b k N p W e T R ",
"} D w n N g S o = c n H H a N H i D l l l 3 : g v b N h H b e R ",
"T n H n D k o S a L a c S x S H l J M c G j A 2 v l V v p Q q l ",
"N w 6 g B . H l L j J Z c F c x G c D G j G l l > N d u r h R q ",
"n d H y O B m c F C G c Z Z S F Z x c Z Z G A A M 1 r d N v I r ",
"l N N a o n N G c C j F Z Z j x C G G C c x b N k ; b v H k I q ",
"g B n # H n S m F F Z U x U F G F z C F Z U C l V D ; v f p H 7 ",
"B h m O k S m F F C F x U x Z F C F C F F C C c V l > l N N s q ",
"w w y o m S N Z C F Z Z Z C Z Z Z Z Z C Z Z Z N N b ; t r q e q ",
"n n l & N Z m Z Z Z Z Z Z Z Z Z Z Z Z Z Z Z Z N N N < k M h l e ",
"l n l # m S N Z Z Z Z Z C Z Z Z Z C Z Z C Z Z A A b 1 h v h h 7 ",
"B M n $ m m m Z Z Z Z Z Z C Z Z Z Z Z C Z Z N c b b 1 l B M B q ",
"g s g # B B m Z Z C Z Z Z Z Z Z Z Z Z Z Z Z Z Z A Z 1 d l s h 9 ",
"y t a O N D Z Z Z Z Z Z Z Z C Z Z Z Z Z Z Z C Z A N ; i t e t e ",
"h h h @ n N l C Z Z C Z Z Z Z Z C Z Z Z Z Z Z C b b > h v h v 0 ",
"M M n # M H n m Z Z Z Z Z Z Z Z Z Z Z Z Z Z Z Z Z b 1 c N v v 0 ",
"M M f @ B M n N b F Z Z Z C Z Z C C N F Z Z F F c N 1 l A M v 0 ",
"h f H O H k S c C Z Z Z C Z G F Z c x c b C c b Z c 1 b p v f 4 ",
"9 i 0 O a m J C G C c C U | o. .o.o.o.o.` Y c C Z b % u 0 f e - ",
"l a m o T c c Z c C o.o.| o.o.o.o.| | o.o.o.o.o.G l X A V p v ; ",
"l H Z # j H c Z o.o.o.` | o.o.o.o.o.o.o.o.o.o.| o.o.# l l l N + ",
", , * J J j J ..o.| o.o.o.o.| o.o.o.o.o.o.o.o.o. .o.o.2 ; 1 1 A ",
"Z m C C G | o.o.o.o.o.o.o.o.o.o.o.o.o.o.o.o.o.| o.o.o. .Z N N D "
};
