/* XPM */
static char *result[] = {
/* columns rows colors chars-per-pixel */
"32 32 75 1 ",
"  c #8D926A",
". c #8E8E7A",
"X c #939772",
"o c #929977",
"O c #94947E",
"+ c #96997E",
"@ c #9A9E7D",
"# c #9AA47C",
"$ c #9BAA7F",
"% c #959482",
"& c #989783",
"* c #979983",
"= c #9B9B85",
"- c #9D9D89",
"; c #A09E87",
": c #A09F8B",
"> c #A19F90",
", c #9EA183",
"< c #9EA982",
"1 c #9EA28A",
"2 c #9FA090",
"3 c #A3A585",
"4 c #A4AC85",
"5 c #A3A28D",
"6 c #A9A48E",
"7 c #A4A88A",
"8 c #A9AD8B",
"9 c #A6B18F",
"0 c #A5A592",
"q c #A8A793",
"w c #A6A993",
"e c #AAAA95",
"r c #AAA79A",
"t c #A7A898",
"y c #ACAC99",
"u c #B0AF9C",
"i c #ADBC91",
"p c #B3B895",
"a c #B4B49E",
"s c #B6B99E",
"d c #BABC9E",
"f c #ACA9A0",
"g c #B4B5A3",
"h c #B8B7A3",
"j c #B5BAA3",
"k c #BBBBA6",
"l c #B6B3AA",
"z c #BDBDAA",
"x c #BCBCB0",
"c c #C1BEA6",
"v c #C0BFAB",
"b c #C2BFB3",
"n c #C2BFB8",
"m c #B6C397",
"M c #BDC49D",
"N c #BCCB9B",
"B c #BDC3A3",
"V c #BEC9A7",
"C c #BEC1AB",
"Z c #BFC0B0",
"A c #C1C5A4",
"S c #C5CEA5",
"D c #C2C2AD",
"F c #C5C9AD",
"G c #CBCEAE",
"H c #C8D1A6",
"J c #CAD4A9",
"K c #C9D9A8",
"L c #C4C4B2",
"P c #C8C7B2",
"I c #C6C9B2",
"U c #CAC9B5",
"Y c #C6C5B9",
"T c #C7C8BA",
"R c #FFFFFB",
/* pixels */
"0LnbrvbP=PvcDccv0nLntbxY=YZzLxxR",
"0zcc6vvc3DvDDLPc0vch6vDc-LDDLLLR",
"=vPv:uq6&656O;;e=vPv:yqq&q06%-2R",
"0LLc6ccvDDDLyDPc0LPv0zcvLvDLyLYR",
"6zzkqLPDLvDz:kzz6kzkqLPDLcDz5zzR",
"qDDvqzhLvvLzqLLLqbLDqzhPDDDz0DLR",
"=q66.eq5%0yr>bLD=q65.eq:O0yq:DZR",
"6kDUgPkLrvvurLzL0zDUgPkDrczaqLxR",
"=DzhDzDD-zLD-kLP=LkkvkzvqzDDqDxR",
"-LUUIDDD6zkz5DLc0vvLPLPc6zzh5zLR",
"*w65*-1w*LkC*y=6=00q&=:e=zLD-y0R",
"CCCCeDIk7FkA,AscbcvPyvPk0DLcqzxR",
"LCLC1khA,kdA7GGDUvvD0kLz0kkk6LYR",
"ZCDk7CFF3dAA3ppDDvvc0LPL0DDDqkgR",
"%1t51FFB#@#X #@@O0yq:cLv=055.ttR",
"tDDseCdd8pSMHJMkrDDgevDD0zDUaLzR",
"6cDA8AMV#VNNKNmj6DLDqvcL&PDkLkkR",
"6ccd3BBM4KKNNmiB6zzk0vvv:LDDLLYR",
";cUD=y11o<<<$<<t=DLv=y00&006%-2R",
"0LLC6BCVCVmV9VVB0LLc0czDDvLLyLYR",
">czltIICZCVC1BjC:kkk0LPvLcDz5kzR",
"rLLL2ZjZCCZCtIZZqDLvqzkLDDDzqDLR",
"-t20.ttf22t2*xLD=q:5.qq:%0yq-DLR",
"2kCTjZCC2CZjtLDD0zvPaPcvqzzaqLxR",
"1VCjCCCk0vDDqDDU=LzhDzvcqcDvqDbR",
"1IIIFCCC5zzh:vDh:LPPPLLvqzzk5zZR",
"+577O,1e&AIz=y6q&qq0%=:e&zLv-y0R",
"CBCCeDIB6FDB6CzDDcvDeLPkqDLcqzxR",
"LcLv5hkz5kkkwLIzLvLc:kkz0kkk6LPR",
"vvLzqDLDtZDDwkhPvvDzqDLL0DLDqklR",
"%>r>>LUL-t21.t00%5q01LPb=055.ttR",
"fnnlfnxL2xZTgYzxtLLlrbzn0zZYgYzR"
};
