/* XPM */
static char *result[] = {
/* columns rows colors chars-per-pixel */
"32 32 74 1 ",
"  c #8D926A",
". c #8E8E7A",
"X c #939772",
"o c #929977",
"O c #94947E",
"+ c #96997E",
"@ c #9A9E7D",
"# c #93A277",
"$ c #9AA47C",
"% c #959482",
"& c #989783",
"* c #979983",
"= c #9B9B85",
"- c #9D9D89",
"; c #A09E87",
": c #A09F8B",
"> c #A19F90",
", c #9EA183",
"< c #9EA982",
"1 c #9EA28A",
"2 c #9FA090",
"3 c #A3A585",
"4 c #A4AC85",
"5 c #A3A28D",
"6 c #A9A48E",
"7 c #A4A88A",
"8 c #A9AD8B",
"9 c #A6B18F",
"0 c #A5A592",
"q c #A8A793",
"w c #A6A993",
"e c #AAAA95",
"r c #A5A698",
"t c #A9A69A",
"y c #A7A898",
"u c #ACAC99",
"i c #B0AF9C",
"p c #ADBC91",
"a c #B3B895",
"s c #B4B49E",
"d c #BABC9E",
"f c #ACA9A0",
"g c #B4B5A3",
"h c #B8B7A3",
"j c #B5BAA3",
"k c #BBBBA6",
"l c #B6B3AA",
"z c #BDBDAA",
"x c #BDBCB1",
"c c #C1BEA6",
"v c #C0BFAB",
"b c #C2BFB3",
"n c #C2BFB8",
"m c #B6C397",
"M c #BDC49D",
"N c #BCCB9B",
"B c #BDC3A3",
"V c #BEC9A7",
"C c #BEC1AB",
"Z c #BFC0B1",
"A c #C1C5A4",
"S c #C5CEA5",
"D c #C2C2AD",
"F c #C5C9AD",
"G c #CBCEAE",
"H c #C8D1A6",
"J c #CAD4A9",
"K c #C9D9A8",
"L c #C4C4B2",
"P c #C8C7B2",
"I c #C6C9B2",
"U c #C6C5B9",
"Y c #C7C8BA",
"T c #CAC8B9",
/* pixels */
"x0bUbqbbL=Lvvvccc>nULtLxU=ULzLzx",
"b0cch6vDc5DADDGPc>vvh0zDz:DDbDLU",
"t=vPv;i66&656O;;e=vPv;u00&055%-2",
"z0DPD0ccDDDPPuDPv0DLv6vvLDDLLuDU",
"v5kkc0PPDLvDv:kvc:vkz0LPDLvDz5cz",
"LeDPvqvhLvvDz0LLLqDLD0vhLDDDk0DU",
"b=055.e0:%0tq>bDD=q55.e05O0u05DL",
"b6cDTsPvLeDbitbvL6zDThPcDqzDi0Lz",
"T-LvhDzDD5kLD:kLP:vkkDkkz0vDv0DL",
"k-DPIILDz5Dkz:LLv0DDPPDTv5zzk:vb",
"0*007%=5w*Lkz+u;5=550&=;e=vPv-e0",
"LDCDDeDFk3GjA,AdzDvvPivPv0DDz5Dx",
"xZCDC1jhA,ddA7GGDTvvv0zDz5kzk0PU",
"UZCDz7DFF3dAA3aaDDvDv0vTLqDDD0kh",
"r%1y11DFB$@3X $@=O5eq;vDD=05:.ey",
"zyLLheVdj8aSMHJMkeDDhevDL5zDPhLz",
"c6cDA7AMV#VNNKNmd5DPDqDvL=PDkLkz",
"v6ccd3VVM9KVVNmpk5vvh5vvv;DDDLLU",
"u;vPv;e1$o1<4#<<e=DLD;t50&005%;>",
"b>LPD6CVFVVmNpVVk0DDD5DzDDvLPuDU",
"b>czC2IZzZCVC1BBB5kzh0DPDLvDz5kv",
"btbbZyCjCzCZCrZZLqDDDqvhLvDDk0LL",
"Z=002.uru1ry2*zLD-055.qq5O0u05DL",
"ZrjLYgIjxrCZgtLDL5kDPsPzDevzs0Dx",
"Y1FjjCCCz5DDDeDDP-LvhDvDz5vDvqDb",
"j,FIIIDCz5zkh5vDh;PPPPDDv0vkh5zL",
"2+777o,18=DFv=u50&000%;:e=vPv-t0",
"UCCCCeDIc5FDA5cvLDvvDeDTv0DDz0vC",
"zLvLD5hhz5kkk5DFvDvDv5hkz0khk0PU",
"Uvvbz0DLDyDDCwzjLDvDk0DLLqDLD0zh",
"t%>tr-UPZ-r10.yy0O5e51LUv=00:.e0",
"nfnUlfbxU2xZYgUzxtLUltbzL0zLUgUx"
};
