/* XPM */
static char * C:\Users\pc\Documents\pokemon_xpm\sceane\floor_0_xpm[] = {
"32 32 630 2",
"  	c #7B7266",
". 	c #8C8375",
"+ 	c #8E8476",
"@ 	c #776D5F",
"# 	c #797166",
"$ 	c #857E74",
"% 	c #7E7468",
"& 	c #6B6258",
"* 	c #7A7368",
"= 	c #837A6F",
"- 	c #756A5B",
"; 	c #82796B",
"> 	c #887E70",
", 	c #7A7267",
"' 	c #797063",
") 	c #7F7465",
"! 	c #6C6356",
"~ 	c #746D60",
"{ 	c #877D6D",
"] 	c #6A635A",
"^ 	c #70675B",
"/ 	c #7F7466",
"( 	c #877C6F",
"_ 	c #7F766B",
": 	c #82796D",
"< 	c #807567",
"[ 	c #86796A",
"} 	c #7E7263",
"| 	c #7D7263",
"1 	c #695F52",
"2 	c #766E63",
"3 	c #7D7367",
"4 	c #6F655A",
"5 	c #7C7469",
"6 	c #71685E",
"7 	c #80776C",
"8 	c #857C70",
"9 	c #7F7669",
"0 	c #756C5F",
"a 	c #7C746A",
"b 	c #7C7267",
"c 	c #80786A",
"d 	c #877C6E",
"e 	c #6B6253",
"f 	c #766D60",
"g 	c #877E72",
"h 	c #706557",
"i 	c #71695E",
"j 	c #777268",
"k 	c #877B6A",
"l 	c #887F72",
"m 	c #786F63",
"n 	c #756B5C",
"o 	c #7A7165",
"p 	c #847869",
"q 	c #847868",
"r 	c #756B5E",
"s 	c #776C60",
"t 	c #7B7163",
"u 	c #6D6255",
"v 	c #756D62",
"w 	c #787067",
"x 	c #746A5D",
"y 	c #7E7466",
"z 	c #867C6E",
"A 	c #82786A",
"B 	c #81786C",
"C 	c #786F62",
"D 	c #796F61",
"E 	c #7F7769",
"F 	c #766D5E",
"G 	c #877F70",
"H 	c #72695D",
"I 	c #766B5D",
"J 	c #6F6456",
"K 	c #7E7568",
"L 	c #81796F",
"M 	c #7C7163",
"N 	c #706A5E",
"O 	c #857A69",
"P 	c #6F6558",
"Q 	c #7D7468",
"R 	c #7A7064",
"S 	c #675F52",
"T 	c #7E7364",
"U 	c #746858",
"V 	c #796B5A",
"W 	c #807261",
"X 	c #756B5F",
"Y 	c #84786C",
"Z 	c #837667",
"` 	c #766C60",
" .	c #786D61",
"..	c #766E64",
"+.	c #7E7366",
"@.	c #958979",
"#.	c #8D8373",
"$.	c #8F8474",
"%.	c #6C6254",
"&.	c #766C5E",
"*.	c #71685A",
"=.	c #756D5F",
"-.	c #776D60",
";.	c #928374",
">.	c #675D51",
",.	c #6F6457",
"'.	c #7C7264",
").	c #7B7162",
"!.	c #726A61",
"~.	c #867B6D",
"{.	c #706659",
"].	c #9A8E7B",
"^.	c #867A6B",
"/.	c #887D6E",
"(.	c #7F7366",
"_.	c #948879",
":.	c #726859",
"<.	c #817566",
"[.	c #8D8172",
"}.	c #968674",
"|.	c #7E7062",
"1.	c #7F7163",
"2.	c #7E7367",
"3.	c #887C6F",
"4.	c #8C8273",
"5.	c #7D7265",
"6.	c #918474",
"7.	c #817769",
"8.	c #756C60",
"9.	c #7A6E5F",
"0.	c #7F7160",
"a.	c #8F8171",
"b.	c #877B6D",
"c.	c #7F7467",
"d.	c #83796C",
"e.	c #7B7063",
"f.	c #71685C",
"g.	c #72675A",
"h.	c #796E60",
"i.	c #908676",
"j.	c #776E65",
"k.	c #7F7468",
"l.	c #82796E",
"m.	c #8B7F71",
"n.	c #837666",
"o.	c #817869",
"p.	c #918A7B",
"q.	c #7F7567",
"r.	c #746B61",
"s.	c #71685D",
"t.	c #7B7165",
"u.	c #6B6155",
"v.	c #736B60",
"w.	c #7E7567",
"x.	c #81786B",
"y.	c #716859",
"z.	c #70675A",
"A.	c #786C5E",
"B.	c #766C5D",
"C.	c #786E61",
"D.	c #6C6359",
"E.	c #787065",
"F.	c #817667",
"G.	c #827668",
"H.	c #827567",
"I.	c #827769",
"J.	c #867D6E",
"K.	c #857B6D",
"L.	c #807466",
"M.	c #766D62",
"N.	c #7E756A",
"O.	c #70665A",
"P.	c #776C5E",
"Q.	c #867E70",
"R.	c #7A7161",
"S.	c #796F62",
"T.	c #887C6C",
"U.	c #7A6F61",
"V.	c #837A6E",
"W.	c #8B8073",
"X.	c #80786D",
"Y.	c #7D7264",
"Z.	c #685F55",
"`.	c #746B5F",
" +	c #978C7E",
".+	c #867D70",
"++	c #857C6E",
"@+	c #716558",
"#+	c #6A6256",
"$+	c #6E655B",
"%+	c #85796B",
"&+	c #84786B",
"*+	c #776D61",
"=+	c #807669",
"-+	c #857A6C",
";+	c #7A6F62",
">+	c #746B60",
",+	c #6A6052",
"'+	c #786D5F",
")+	c #7C7265",
"!+	c #7F7568",
"~+	c #897F72",
"{+	c #736A5F",
"]+	c #7A7063",
"^+	c #766B5E",
"/+	c #746A5E",
"(+	c #807565",
"_+	c #7E7566",
":+	c #81776A",
"<+	c #736A5D",
"[+	c #857B6E",
"}+	c #92897B",
"|+	c #726A60",
"1+	c #6F685F",
"2+	c #847A70",
"3+	c #796E63",
"4+	c #8A7F70",
"5+	c #766C5F",
"6+	c #7E7467",
"7+	c #82776A",
"8+	c #847A6D",
"9+	c #7A7266",
"0+	c #857B6F",
"a+	c #887C6D",
"b+	c #7B7164",
"c+	c #847B6D",
"d+	c #797265",
"e+	c #7D7469",
"f+	c #776C5F",
"g+	c #807568",
"h+	c #71685F",
"i+	c #8C8170",
"j+	c #6E665A",
"k+	c #6A6259",
"l+	c #6D655C",
"m+	c #83786A",
"n+	c #73685D",
"o+	c #887D70",
"p+	c #6C6155",
"q+	c #7E7465",
"r+	c #706658",
"s+	c #706559",
"t+	c #80766A",
"u+	c #807668",
"v+	c #847A6E",
"w+	c #766B5C",
"x+	c #796E61",
"y+	c #948C82",
"z+	c #827B70",
"A+	c #73685C",
"B+	c #837A6B",
"C+	c #796F64",
"D+	c #797167",
"E+	c #857B6C",
"F+	c #786D60",
"G+	c #847B6E",
"H+	c #867A6C",
"I+	c #897E70",
"J+	c #7F776C",
"K+	c #7C7266",
"L+	c #696056",
"M+	c #6E6356",
"N+	c #817668",
"O+	c #776E63",
"P+	c #74695C",
"Q+	c #766E65",
"R+	c #877E74",
"S+	c #6D6357",
"T+	c #6F675C",
"U+	c #8A8175",
"V+	c #8E8171",
"W+	c #675C51",
"X+	c #7C7366",
"Y+	c #958C7F",
"Z+	c #8F8071",
"`+	c #82776B",
" @	c #817A70",
".@	c #7B7267",
"+@	c #847C70",
"@@	c #908679",
"#@	c #82786C",
"$@	c #736759",
"%@	c #7F7367",
"&@	c #71675B",
"*@	c #7C756B",
"=@	c #6F665C",
"-@	c #877D70",
";@	c #7F7262",
">@	c #7D7161",
",@	c #71665A",
"'@	c #857768",
")@	c #6B6256",
"!@	c #70675C",
"~@	c #726961",
"{@	c #6F645A",
"]@	c #6E665B",
"^@	c #7C7165",
"/@	c #938676",
"(@	c #766D61",
"_@	c #857E73",
":@	c #7E766A",
"<@	c #8A7F72",
"[@	c #867C6F",
"}@	c #8B8070",
"|@	c #8A7D6C",
"1@	c #73685B",
"2@	c #8E8374",
"3@	c #887B6A",
"4@	c #8B7D6D",
"5@	c #898072",
"6@	c #777269",
"7@	c #6F6455",
"8@	c #857A6D",
"9@	c #847867",
"0@	c #888072",
"a@	c #8D8377",
"b@	c #9C9183",
"c@	c #837769",
"d@	c #8A7E70",
"e@	c #82796C",
"f@	c #777068",
"g@	c #776D62",
"h@	c #7C7367",
"i@	c #736B61",
"j@	c #92887B",
"k@	c #6D655A",
"l@	c #6B6257",
"m@	c #756B61",
"n@	c #867C70",
"o@	c #908475",
"p@	c #837969",
"q@	c #797164",
"r@	c #867A6A",
"s@	c #84796A",
"t@	c #776C5D",
"u@	c #756A5E",
"v@	c #6C6256",
"w@	c #867D72",
"x@	c #7E7368",
"y@	c #736A60",
"z@	c #7C7368",
"A@	c #80786E",
"B@	c #776F64",
"C@	c #7D7369",
"D@	c #847B6F",
"E@	c #6F6559",
"F@	c #817568",
"G@	c #83796D",
"H@	c #766B60",
"I@	c #837668",
"J@	c #867C6D",
"K@	c #74685C",
"L@	c #72685C",
"M@	c #6A6257",
"N@	c #736A5E",
"O@	c #7C7063",
"P@	c #746A5F",
"Q@	c #746B5D",
"R@	c #8A8072",
"S@	c #797066",
"T@	c #807769",
"U@	c #6F6A61",
"V@	c #877B6F",
"W@	c #87796B",
"X@	c #877B6C",
"Y@	c #8E8173",
"Z@	c #746C62",
"`@	c #988C7C",
" #	c #8D8577",
".#	c #6E6458",
"+#	c #7E7365",
"@#	c #756A5A",
"##	c #7D7162",
"$#	c #6E6357",
"%#	c #655A4F",
"&#	c #564F46",
"*#	c #7D7266",
"=#	c #706A61",
"-#	c #7E7469",
";#	c #786F64",
">#	c #7C7061",
",#	c #8B8173",
"'#	c #797064",
")#	c #62584D",
"!#	c #766F64",
"~#	c #7B7062",
"{#	c #8F8477",
"]#	c #746857",
"^#	c #7A6F60",
"/#	c #908677",
"(#	c #776F66",
"_#	c #776E62",
":#	c #9A8D7E",
"<#	c #7C6F63",
"[#	c #787164",
"}#	c #786E62",
"|#	c #726A5D",
"1#	c #71675C",
"2#	c #807569",
"3#	c #72695E",
"4#	c #82786B",
"5#	c #7D7163",
"6#	c #6E655A",
"7#	c #847D71",
"8#	c #6F675D",
"9#	c #867B6C",
"0#	c #7B6F62",
"a#	c #8B8378",
"b#	c #8F8275",
"c#	c #817466",
"d#	c #36312C",
"e#	c #8E8477",
"f#	c #7B7064",
"g#	c #6D6358",
"h#	c #796E62",
"i#	c #7E7163",
"j#	c #887E72",
"k#	c #83796B",
"l#	c #877C6D",
"m#	c #847A6C",
"n#	c #786E60",
"o#	c #7F7569",
"p#	c #6F6659",
"q#	c #83786C",
"r#	c #8D7E6E",
"s#	c #8E8578",
"t#	c #7E766C",
"u#	c #7D7164",
"v#	c #93897D",
"w#	c #999085",
"x#	c #8C8173",
"y#	c #7C6F61",
"z#	c #7C7467",
"A#	c #6E6559",
"B#	c #7F776B",
"C#	c #7B6F60",
"D#	c #93897C",
"E#	c #B4A796",
"F#	c #898178",
"G#	c #867B6E",
"H#	c #7E7264",
"I#	c #8E8372",
"J#	c #8C7F6F",
"K#	c #8F8374",
"L#	c #776E61",
"M#	c #998D7B",
"N#	c #877E70",
"O#	c #857D6F",
"P#	c #9C907E",
"Q#	c #8A7E6F",
"R#	c #7B7368",
"S#	c #94887A",
"T#	c #8D8277",
"U#	c #8D8475",
"V#	c #877E71",
"W#	c #807467",
"X#	c #9A8D7B",
"Y#	c #897B6C",
"Z#	c #756A5C",
"`#	c #8A7F6E",
" $	c #786E63",
".$	c #908473",
"+$	c #756C61",
"@$	c #7D756A",
"#$	c #8B8276",
"$$	c #7D7366",
"%$	c #978D7D",
"&$	c #897F70",
"*$	c #7A7065",
"=$	c #766C62",
"-$	c #887F74",
";$	c #958978",
">$	c #716A62",
",$	c #6F6861",
"'$	c #7C7369",
")$	c #91877A",
"!$	c #786D62",
"~$	c #786C5D",
"{$	c #736A5C",
"]$	c #837868",
"^$	c #938777",
"/$	c #706961",
"($	c #918576",
"_$	c #8A8276",
":$	c #766D63",
"<$	c #756C63",
"[$	c #897D70",
"}$	c #988E7E",
"|$	c #897E6F",
"1$	c #6E6556",
"2$	c #74695B",
"3$	c #938675",
"4$	c #897E71",
"5$	c #81766A",
"6$	c #837869",
"7$	c #82776C",
"8$	c #91867B",
"9$	c #8F8376",
"0$	c #71675D",
"a$	c #625B53",
"b$	c #6C6660",
"c$	c #928779",
"d$	c #766E62",
"e$	c #958C7A",
"f$	c #84796B",
"g$	c #827869",
"h$	c #7C7363",
"i$	c #7C6F5F",
"j$	c #796F63",
"k$	c #7D7467",
"l$	c #958675",
"m$	c #6A6056",
"n$	c #726759",
"o$	c #8D8276",
"p$	c #6A635B",
"q$	c #797065",
"r$	c #70665C",
"s$	c #786F65",
"t$	c #817669",
"u$	c #887B6B",
"v$	c #897E6E",
"w$	c #7C756C",
"x$	c #938776",
"y$	c #7D7365",
"z$	c #776B5D",
"A$	c #83776B",
"B$	c #887C6B",
"C$	c #756B60",
"D$	c #73695C",
"E$	c #8D8272",
"F$	c #897F71",
"G$	c #887A69",
"H$	c #807566",
"I$	c #7E7569",
"J$	c #8D8479",
"K$	c #83786B",
"L$	c #6C645B",
"M$	c #676056",
"N$	c #8B7E6C",
"O$	c #6A5F53",
"P$	c #978E7F",
"Q$	c #8A7F6F",
"R$	c #A39682",
"S$	c #897E6D",
"T$	c #877969",
"U$	c #82766A",
"V$	c #948A7A",
"W$	c #8D8375",
"X$	c #827568",
"Y$	c #9A9084",
"Z$	c #867B6B",
"`$	c #857969",
" %	c #807666",
".%	c #938373",
"+%	c #7A7062",
"@%	c #877E6F",
"#%	c #9A8F7D",
"$%	c #8F8676",
"%%	c #93897A",
"&%	c #968979",
"*%	c #938875",
"=%	c #897C6D",
"-%	c #938679",
";%	c #73675B",
">%	c #756B62",
",%	c #8F8375",
"'%	c #887D6F",
")%	c #8E7F71",
"!%	c #696157",
"~%	c #796E5F",
"{%	c #807464",
"]%	c #7D7466",
"^%	c #8C8171",
"/%	c #766959",
"(%	c #978B7D",
"_%	c #6B6359",
":%	c #AEA494",
"<%	c #706657",
"[%	c #756D5E",
"}%	c #766D5F",
"|%	c #7D7165",
"1%	c #786C61",
"2%	c #74695E",
"3%	c #74695D",
"4%	c #7F7364",
"5%	c #786F61",
"6%	c #72685D",
"7%	c #8D877D",
"8%	c #7A7268",
"9%	c #8D8174",
"0%	c #7D7267",
"a%	c #827667",
"b%	c #8B7F6F",
"c%	c #877E73",
"d%	c #897E72",
"e%	c #81756B",
"f%	c #84786D",
"g%	c #7C7167",
"h%	c #807468",
"i%	c #6A6055",
"j%	c #948777",
"k%	c #62584B",
"l%	c #887E71",
"m%	c #776F65",
"n%	c #968C7E",
"o%	c #877D71",
"p%	c #6D6458",
"q%	c #62594F",
"r%	c #6D6457",
"s%	c #827868",
"t%	c #7D7364",
"u%	c #746C61",
"v%	c #7B746A",
"w%	c #7B7065",
"x%	c #776C61",
"y%	c #7F7469",
"z%	c #817567",
"A%	c #887D71",
"B%	c #7D7065",
"C%	c #6E6358",
"D%	c #8A7D6E",
"E%	c #716659",
"F%	c #81776B",
"G%	c #82786D",
"H%	c #958878",
"I%	c #918677",
"J%	c #736B5F",
"K%	c #7A6E5E",
"L%	c #746A5B",
"M%	c #827463",
"  . + @ # $ % & % * = - ; > , ' ) ! ~ { ] ^ / ( _ : < [ } | 1 2 ",
"3 4 5 6 7 8 9 0 a b 3 c d e f g h i j k l m n o g p q r s t 1 u ",
"v w x y z A B C D E F G H I J K L M N O P Q R S T U V W X Y Z ` ",
" ...+.@.#.$.%.&.*.=.-.;.>.,.'.).!.~.{.].^./.(._.:.<.[.}.|.1.2./.",
"3.4.5.6.7.8.9.0.a.b.c.d.Q e.f.g.h.8 n i.9 j.k.l.m.n.7.o.p.q.r.s.",
"t.u.v.w.x.y.z.A.B.C.D.E.F.G.H.I.J.K.9.` -.L.M.o N.O.P.Q.R.S.T.U.",
"V.W.X.0 Y.Z.] `.f.`.o  +7.C..+++@+#+$+d.%+&+*+=+-+;+>++.,+'+)+g.",
"!+~+{+]+^+/+(+_+:+<+[+}+|+X M.1+2+3+7 4+  4 5+6+ .5.U.)+7+8+9+0+",
"a+b+c+d+e+f+C.`.g+h+= i+j+r.k+l+m+n+'+o+f+p+q+d.r+s+t+b./ u+V.v+",
"w+x+y+z+A+B+t.y C+D+) E+F+M.G+0+= H+I+J+K+L+M+N+O+P+Q+R+S+N.T+r ",
"8.;+U+V+W+, X+t.~.Y+~+Z+`+ @.@6 +@@@#@: S.$@'+t+%@) &@*@=@-@;@>@",
"+.O.,@'@,@)@!@~@{@]@^@/@(@_@:@-@<@[@}@|@1@2@3@4@5@6@7@T 8@I.9@0@",
"a@b@c@d@e@f@g@v h@i@2.j@k@l@m@n@o@p@q@h S.r@s@b+I.P.c I.t@5.u@v@",
"w@K x@%+T.u+y@x.z@:+K+A@B@v.C@D@m+E@S.s.>+F@G@H@I@f+% 7+J@K@L@M@",
"N@= (@^+O@G.P@Q@<+R@  S@T@U@l+V@W@R X@Y@< Y.x v+b+Z@M `@ #.#+#!+",
"@#q+##5@z.-@$#%#&#&#*#I.*.=#]@g+-#;#>#,#t.'#)#&@!#^ S+-+~#<+o {#",
"]#^#h./#(#_#d :#<#&#!#[#e.}#[+< |#`. .b D+M.1#2#3#4#[@5#3 R ^ 6#",
"7#8#7.9#G.0#a#b#c#d#d#d#d#d#e#f#F+g#h#-#i#j#K+f#d.k#l#m#.@2 n#o#",
"p#s+q#r#s g@s#t#&#&#&#&#&#&#d#d#u#v#w#C+k.G+]+5.D@x#(.y#q.z#A#B#",
".+C#D#E#9@T.F#&#&#&#&#&#&#&#&#d#d#G#H#u+I#4.q.J#K#L#I.M#N#}#*#O#",
"/.q+Y.P#Q#g+R#S#&#&#&#&#&#d#&#&#d#d#T#c+U#{#V#W#X#Y#Z#`#L#!+ $H ",
"m+Q +#.$q+C +$h@&#&#&#&#&#&#d#d#&#d#d#@$#$3 h@$$h.r@t@%$&$= *$&#",
"=$2.g -$;$>$,$'$)$&#&#&#&#&#&#&#&#&#d#7+e+!$~$'.{$]$u+ +^$/$&#&#",
"+.o#e+($g+_$X.:$<$G@[$&#&#&#&#&#&#&#d#}$|$f#s@)+1$D 2$3$r@` &#d#",
"4$5$7.6$7$8$9$0$a$b$c$d$&#&#&#d#d#d#d#e$f$g$h$i$j$k$|$l$m$u n$d#",
"o$G##@X p$S@*+y@q$r$s$X X+X+N+9#t$3 g+u$v$=+=+I+w$`.d.x$y$z$6+4+",
">+f$A$B$*+2.C$&@@@l#j$+#  D$E$F$c.:+h#G$H$I$J$'#K$L$M$N$O$u P$a@",
"Q$-.+.R$S$T$U$V$l W$(.X$Y$I+Z$`$<  %w..%n$N.8++%@%{+5+#%t.6$$%%%",
"&%*%=%-%8+0#;%>%,%v$'%)%=$!%H#~%{%&$]%^%/%N@t$(%z@_%7 :%<%[%}%^+",
"q@j$+$M.|%o+1%2%3%4%L@&+5%C +.6%h.-#1#7%8%K+9%0%}#^+a%b%3%&.c%: ",
"d%G#e%f%]+g%0%0#h%` i%|%j%.@>.k%(@l%u.m%n%o%p%q%r%f$}$s%t%u%v%i@",
"w%x%^@y%I.z%A%r K@B%C%o@D%c.*.E%m+F%G%H%T I%u+J%m m =+K%L%+%7.M%"};
