/* XPM */
static char * C:\Users\pc\Documents\pokemon_xpm\sceane\floor_1_xpm[] = {
"32 32 573 2",
"  	c #978B7B",
". 	c #796F62",
"+ 	c #7A7063",
"@ 	c #6D6357",
"# 	c #685F52",
"$ 	c #837668",
"% 	c #817566",
"& 	c #75695D",
"* 	c #84796A",
"= 	c #8A8073",
"- 	c #847A6E",
"; 	c #82776A",
"> 	c #6A6054",
", 	c #7C7368",
"' 	c #807468",
") 	c #72685C",
"! 	c #908676",
"~ 	c #867A6C",
"{ 	c #716657",
"] 	c #6B6258",
"^ 	c #7E7366",
"/ 	c #83786C",
"( 	c #776C61",
"_ 	c #36312C",
": 	c #7F7266",
"< 	c #83796E",
"[ 	c #8B8172",
"} 	c #787167",
"| 	c #766C60",
"1 	c #837667",
"2 	c #84786C",
"3 	c #756B5F",
"4 	c #918677",
"5 	c #716A5F",
"6 	c #766E64",
"7 	c #766C59",
"8 	c #908373",
"9 	c #847768",
"0 	c #817567",
"a 	c #797063",
"b 	c #817768",
"c 	c #786F64",
"d 	c #756C61",
"e 	c #736A60",
"f 	c #786E62",
"g 	c #7D7164",
"h 	c #7C7166",
"i 	c #716960",
"j 	c #8B8075",
"k 	c #8F806F",
"l 	c #6D6257",
"m 	c #7F7466",
"n 	c #918373",
"o 	c #85796D",
"p 	c #796E60",
"q 	c #887D6F",
"r 	c #8D877B",
"s 	c #8C8271",
"t 	c #887D6E",
"u 	c #7E7367",
"v 	c #7F7163",
"w 	c #7E7062",
"x 	c #8F8679",
"y 	c #7F776B",
"z 	c #8E8275",
"A 	c #938979",
"B 	c #807669",
"C 	c #807467",
"D 	c #7F7568",
"E 	c #7C7265",
"F 	c #998D7D",
"G 	c #7E7569",
"H 	c #797266",
"I 	c #776E62",
"J 	c #7F7468",
"K 	c #857A6E",
"L 	c #81786D",
"M 	c #7C756A",
"N 	c #887D71",
"O 	c #83786A",
"P 	c #8D8173",
"Q 	c #877B6E",
"R 	c #83796D",
"S 	c #6C6359",
"T 	c #564F46",
"U 	c #897F70",
"V 	c #736A5D",
"W 	c #8B8171",
"X 	c #8C8170",
"Y 	c #71685D",
"Z 	c #746B61",
"` 	c #7F7567",
" .	c #918A7B",
"..	c #736A5F",
"+.	c #807568",
"@.	c #797066",
"#.	c #82796C",
"$.	c #7F7467",
"%.	c #82776B",
"&.	c #918578",
"*.	c #857B70",
"=.	c #70675D",
"-.	c #7C7468",
";.	c #867C6E",
">.	c #766B5F",
",.	c #6E6559",
"'.	c #8D8273",
").	c #71685C",
"!.	c #82796D",
"~.	c #7E7568",
"{.	c #8B8071",
"].	c #766B5E",
"^.	c #6C6256",
"/.	c #7A6F61",
"(.	c #887C6C",
"_.	c #7A7161",
":.	c #6B6358",
"<.	c #6C6357",
"[.	c #7C7267",
"}.	c #7E756A",
"|.	c #6F655A",
"1.	c #776D62",
"2.	c #887C6E",
"3.	c #655D55",
"4.	c #7E7468",
"5.	c #877C6F",
"6.	c #817668",
"7.	c #766B5D",
"8.	c #786F65",
"9.	c #82786B",
"0.	c #8C8071",
"a.	c #8C8174",
"b.	c #756C60",
"c.	c #7D7366",
"d.	c #796E62",
"e.	c #7C7264",
"f.	c #72675A",
"g.	c #786D5F",
"h.	c #6A6052",
"i.	c #7B7063",
"j.	c #776F65",
"k.	c #7B7269",
"l.	c #7B7166",
"m.	c #8E8273",
"n.	c #81786C",
"o.	c #766D62",
"p.	c #7A7062",
"q.	c #978A7C",
"r.	c #817669",
"s.	c #7C7266",
"t.	c #6A6055",
"u.	c #897D6E",
"v.	c #867A6A",
"w.	c #8B7E6F",
"x.	c #95897A",
"y.	c #74695E",
"z.	c #7B7164",
"A.	c #7A7064",
"B.	c #796F61",
"C.	c #776B5E",
"D.	c #70665A",
"E.	c #786D61",
"F.	c #857B6F",
"G.	c #7A7266",
"H.	c #847A6D",
"I.	c #887E71",
"J.	c #71675C",
"K.	c #71695E",
"L.	c #746B60",
"M.	c #776E61",
"N.	c #6F6457",
"O.	c #7E7365",
"P.	c #81776D",
"Q.	c #706559",
"R.	c #776C5F",
"S.	c #807567",
"T.	c #8B7E6D",
"U.	c #837A6F",
"V.	c #6E6256",
"W.	c #807465",
"X.	c #786E61",
"Y.	c #837A6E",
"Z.	c #807668",
"`.	c #867D70",
" +	c #928879",
".+	c #7A7369",
"++	c #70685D",
"@+	c #7F7365",
"#+	c #80776A",
"$+	c #7E7469",
"%+	c #746C61",
"&+	c #776D63",
"*+	c #756D63",
"=+	c #6A6258",
"-+	c #776E63",
";+	c #6A5F52",
">+	c #82786C",
",+	c #665D52",
"'+	c #71675A",
")+	c #897C6D",
"!+	c #908475",
"~+	c #786F63",
"{+	c #807566",
"]+	c #756B5E",
"^+	c #6F675C",
"/+	c #7A6F5F",
"(+	c #72695C",
"_+	c #767069",
":+	c #70685E",
"<+	c #7F766B",
"[+	c #857B6D",
"}+	c #73695D",
"|+	c #6C635A",
"1+	c #8A8076",
"2+	c #827971",
"3+	c #6D655B",
"4+	c #73695F",
"5+	c #83786B",
"6+	c #7D7267",
"7+	c #8F857A",
"8+	c #887D70",
"9+	c #675E54",
"0+	c #85796A",
"a+	c #786F62",
"b+	c #797267",
"c+	c #7D7161",
"d+	c #7F7262",
"e+	c #877D70",
"f+	c #6F665C",
"g+	c #75675A",
"h+	c #857A6D",
"i+	c #817B6F",
"j+	c #7C7164",
"k+	c #8E8376",
"l+	c #827569",
"m+	c #84796C",
"n+	c #81776A",
"o+	c #81796D",
"p+	c #7C6F60",
"q+	c #7D7369",
"r+	c #827667",
"s+	c #726B61",
"t+	c #7F7364",
"u+	c #7E7464",
"v+	c #766C5F",
"w+	c #726A5D",
"x+	c #888072",
"y+	c #847867",
"z+	c #827769",
"A+	c #7A6D5F",
"B+	c #7D7264",
"C+	c #897F6E",
"D+	c #908577",
"E+	c #7D7265",
"F+	c #7C7165",
"G+	c #797166",
"H+	c #8F8273",
"I+	c #80756A",
"J+	c #7B7064",
"K+	c #7A7066",
"L+	c #837769",
"M+	c #807363",
"N+	c #7D7568",
"O+	c #7D7365",
"P+	c #756A5E",
"Q+	c #776C5D",
"R+	c #807769",
"S+	c #726A5F",
"T+	c #7B7266",
"U+	c #655D52",
"V+	c #8E8172",
"W+	c #83786D",
"X+	c #776E65",
"Y+	c #7B7165",
"Z+	c #6F675D",
"`+	c #988C7D",
" @	c #827669",
".@	c #6C6358",
"+@	c #80786C",
"@@	c #72695F",
"#@	c #6C645A",
"$@	c #7D7466",
"%@	c #837A6D",
"&@	c #6E665A",
"*@	c #74695B",
"=@	c #6A6257",
"-@	c #74685C",
";@	c #867C6D",
">@	c #958A7D",
",@	c #938777",
"'@	c #756D62",
")@	c #746A5E",
"!@	c #807569",
"~@	c #786C62",
"{@	c #7D7165",
"]@	c #7C7061",
"^@	c #7B6E60",
"/@	c #90877A",
"(@	c #92897E",
"_@	c #776C60",
":@	c #7E7466",
"<@	c #786E5F",
"[@	c #827869",
"}@	c #71695D",
"|@	c #898175",
"1@	c #7A7167",
"2@	c #6E6458",
"3@	c #8D8577",
"4@	c #8E8171",
"5@	c #8D8274",
"6@	c #6A6157",
"7@	c #72675B",
"8@	c #665E54",
"9@	c #6F655B",
"0@	c #8B7F71",
"a@	c #85796B",
"b@	c #7B7065",
"c@	c #726659",
"d@	c #867A6B",
"e@	c #7C6F63",
"f@	c #74685B",
"g@	c #827568",
"h@	c #7E7265",
"i@	c #70665B",
"j@	c #817666",
"k@	c #796F64",
"l@	c #978C7F",
"m@	c #8F8477",
"n@	c #7A7165",
"o@	c #7B7062",
"p@	c #827668",
"q@	c #74695C",
"r@	c #908576",
"s@	c #8C8072",
"t@	c #706A61",
"u@	c #73685C",
"v@	c #635C53",
"w@	c #766C61",
"x@	c #8A7E70",
"y@	c #766A5C",
"z@	c #71665A",
"A@	c #796E63",
"B@	c #70675E",
"C@	c #6C6155",
"D@	c #8C7F6E",
"E@	c #867D71",
"F@	c #6E655A",
"G@	c #70675B",
"H@	c #7D7367",
"I@	c #766D61",
"J@	c #877B6F",
"K@	c #877C70",
"L@	c #7C7163",
"M@	c #6A635B",
"N@	c #716C63",
"O@	c #7F7970",
"P@	c #84786A",
"Q@	c #7A7267",
"R@	c #847B71",
"S@	c #998C7E",
"T@	c #7F7569",
"U@	c #786E60",
"V@	c #766E63",
"W@	c #7B7267",
"X@	c #988C7A",
"Y@	c #7A7368",
"Z@	c #6C655F",
"`@	c #786D60",
" #	c #898074",
".#	c #8B8174",
"+#	c #8B8275",
"@#	c #73685B",
"##	c #6D675D",
"$#	c #8C7E6F",
"%#	c #796D5E",
"&#	c #7E7161",
"*#	c #7C7467",
"=#	c #887B6B",
"-#	c #867C6F",
";#	c #8C8073",
">#	c #86796D",
",#	c #766C62",
"'#	c #6F6458",
")#	c #817667",
"!#	c #8C8173",
"~#	c #7E7467",
"{#	c #7C7063",
"]#	c #827768",
"^#	c #776D5E",
"/#	c #736559",
"(#	c #938473",
"_#	c #6B6254",
":#	c #6C6051",
"<#	c #857D6F",
"[#	c #7D7266",
"}#	c #877E70",
"|#	c #807667",
"1#	c #857C6D",
"2#	c #867D6E",
"3#	c #8C8274",
"4#	c #8D8275",
"5#	c #7D7468",
"6#	c #847B6F",
"7#	c #8D8172",
"8#	c #897F72",
"9#	c #82796E",
"0#	c #8C7F71",
"a#	c #6F665B",
"b#	c #625A50",
"c#	c #6E6356",
"d#	c #776D60",
"e#	c #897C6C",
"f#	c #887B6D",
"g#	c #756C5E",
"h#	c #72695D",
"i#	c #786E63",
"j#	c #7E7264",
"k#	c #80776B",
"l#	c #887E72",
"m#	c #6E6457",
"n#	c #84796D",
"o#	c #756B60",
"p#	c #8A8174",
"q#	c #918676",
"r#	c #74695A",
"s#	c #706659",
"t#	c #7A7065",
"u#	c #887C6D",
"v#	c #877D6E",
"w#	c #6C6456",
"x#	c #80796B",
"y#	c #918978",
"z#	c #8B7E72",
"A#	c #857A6B",
"B#	c #83776B",
"C#	c #7B7061",
"D#	c #6D6355",
"E#	c #73685A",
"F#	c #6B6154",
"G#	c #7E7465",
"H#	c #6D6457",
"I#	c #756C5F",
"J#	c #706961",
"K#	c #887B6C",
"L#	c #897E71",
"M#	c #817769",
"N#	c #877C6E",
"O#	c #6E6454",
"P#	c #7A7263",
"Q#	c #8A7F6F",
"R#	c #8A7F72",
"S#	c #736B61",
"T#	c #7F7669",
"U#	c #70675C",
"V#	c #82786A",
"W#	c #958975",
"X#	c #90867A",
"Y#	c #7C7062",
"Z#	c #82796A",
"`#	c #716658",
" $	c #8E8271",
".$	c #7B7369",
"+$	c #83796C",
"@$	c #847B6E",
"#$	c #726759",
"$$	c #6D6255",
"%$	c #6A6056",
"&$	c #887E6E",
"*$	c #918776",
"=$	c #80776C",
"-$	c #81776B",
";$	c #71675B",
">$	c #75695A",
",$	c #7B7265",
"'$	c #70675A",
")$	c #8A7F70",
"!$	c #776B5D",
"~$	c #7A6F62",
"{$	c #6D6458",
"]$	c #7B7368",
"^$	c #71685E",
"/$	c #8E877A",
"($	c #61574B",
"_$	c #6B6157",
":$	c #827666",
"<$	c #726A61",
"[$	c #8D8377",
"}$	c #978E7F",
"|$	c #6A5F53",
"1$	c #A69786",
"2$	c #6F665A",
"3$	c #8F8474",
"4$	c #756D61",
"5$	c #857769",
"6$	c #817565",
"7$	c #8F8271",
"8$	c #8E8372",
"9$	c #918474",
"0$	c #787164",
"a$	c #797065",
"b$	c #93897A",
"c$	c #8F8676",
"d$	c #837869",
"e$	c #998C7D",
"f$	c #93887C",
"g$	c #A0998F",
"h$	c #726C63",
"i$	c #8A8175",
"j$	c #837867",
"k$	c #8B7F6F",
"l$	c #746B5E",
"m$	c #786C5F",
"n$	c #9A8D7F",
"o$	c #8F8678",
"p$	c #766D5F",
"q$	c #756D5E",
"r$	c #706657",
"s$	c #8B8278",
"t$	c #888176",
"u$	c #7A7162",
"v$	c #7B6F62",
"w$	c #857B6E",
"x$	c #877A6A",
"y$	c #787066",
"z$	c #857A6C",
"A$	c #877E73",
"B$	c #766C5E",
"C$	c #74695D",
"D$	c #7A6E61",
"E$	c #76695A",
"F$	c #706759",
"G$	c #685E52",
"H$	c #746A5B",
"I$	c #7F7261",
"J$	c #887F72",
"K$	c #877B6B",
"L$	c #7B7162",
"M$	c #675F54",
"N$	c #837D73",
"O$	c #6E665B",
"P$	c #7B746A",
"Q$	c #7D7364",
"R$	c #7A7061",
"S$	c #756B5D",
"T$	c #746A5C",
"U$	c #81786B",
"V$	c #857D71",
"W$	c #72685B",
"X$	c #827463",
"Y$	c #6A635A",
"Z$	c #8B8271",
"`$	c #70685B",
" %	c #6C6355",
".%	c #847A6C",
"+%	c #7E7160",
"@%	c #8B7F70",
"#%	c #7A6E60",
"$%	c #655E52",
"%%	c #7C7365",
"&%	c #847969",
"*%	c #837768",
"=%	c #847B70",
"-%	c #72695A",
";%	c #908679",
">%	c #908573",
",%	c #7D776D",
"'%	c #6C6254",
")%	c #706658",
"!%	c #665C4F",
"~%	c #83796B",
"{%	c #877F72",
"]%	c #877E71",
"^%	c #766D60",
"  . + @ # $ % & * = - ; > , ' ) ! ~ { ] ^ / ( _ : < [ } | 1 2 3 ",
"4 5 6 7 8 9 0 a b c d e f g h i j k l m n o _ _ p q r s t u v w ",
"x y z A B C D E F G H I J K L M N O P Q R S _ T U V W X Y Z `  .",
"D ..+.@.#.$.c %.&.*.=.-.;.>.,.b '.).!.~._ _ _ T {.B ].^./.(.. _.",
":.<.[.}.;.|.1.0 2.3.4.5.6.7.8.9.0.a.b._ _ T T N = c.d.e.f.E g.h.",
"i.j.k.l.m.n.o.p.q.r.s.t.u.v.w.x.6.y._ T T T z.A.B.C.D.E.F.G.H.; ",
"I.J...G.K.L.M.N.u.O.P.Q.E J.R.S.T._ T T T T #.U.V.W.X.g.- Y.Z.m ",
"`. +.+++@+~.#+* $+%+J.&+*+=+-+;+_ T T T >+,+'+a.)+!+~+{+]+^+}.@ ",
"/+(+_+:+<+[+}+|+1+2+O / 3+4+5+_ T T T 6+7+8+-+9+E 0+a+b+c+d+e+f+",
"g+7.B h+i+X.j+{.k+l+m+n+o+0 _ T T T p+q+[.~ r+s+t+u+v+w+x+y+z+h+",
"A+B+C+D+E+. . u d.o 1 F+G+_ _ T H+F+I+J+) K+L+M+B N+B+O+^.P+E+Q+",
"R+S+T+U+3 V+W+X+6 Y+B Z+`+ @.@+@L @@D #@T+z+$@n+%@!.&@*@=@) -@;@",
"- >@,@1.'@)@!@s.q ~@{@]@m+i.^@/@(@y._@[.e :@<@[@}@|@1@^ D O.2@3@",
"W +.d.4@5@@ > 6@7@a+8@9@0@a@b@c@d@e@f@g@h@c.i@(+j@- k@l@m@n@V o@",
"p@S.X.q@r@s@) - m+0 O.t@9@u@v@w@x@y@z@$.A@6 B@C@D@(+}+E@F@G@A.H@",
"E I@) 1.0.J@&+8+K@>.L@M@T N@O@/ P@P+e 7@$.).Q@R@S@g.X.^ T@U@V@W@",
"X@)@L.}.Y@|.k.Z@`@6+D.) T _  #E.q T@.#E+j++#@###$#%#&#_@y ,.*#` ",
"=##+-#5+;#Q [+>#@+,#'#)#!#T _ ~#Q {#; _@]#b ^#/#(#_#:#T <#[#f }#",
"|#1#2#3#4#5#6#7#8#9#T 0#a#_ T b#_@g ; z+c#d#T e#f#g#_ T h#i#D M.",
"S.j#)@n@k#a +@e+l#&+T m#{.n#T _ o#G@@ >+p#G+T q#r#s#_ T T t#U.U ",
"u#4 r@v#s#w#x#y#[#z#_ T A#i.B#T T H.C#D#E#F#T G#H#I#_ T T T J#,@",
"K#L#Z.M#N#O#P#Q#R#Y+S#T _ T#}.U#T V#{.o@_ _ _ _ ;._ T T _ T | v.",
"W#5+T#n@X#Y#Z#`# $5#n@.$T +$@$U T T _ _ T T T T _ _ T T _ #$$$%$",
"&$*$M.=$-$}.I.;$>$R.,$j+_ T T _ T T _ T T T T T T T T '$)$~#!$O+",
"r@~${$~#d ]$6#^$/$o@($B+b._$^$B+7.:$_ T T T T T T T <$_@[$}$$$|$",
"1$} s#>+,$2$@$3 3$4$+.'+z+5$g@6$7$8$_ T T T T T 9$0$a$!$b$c$d$Y+",
"e$9.f$g$h$d#t#R#i$H@j$k$`.:@l$m$n$ @_ T T T T T |#2#o$s@].p$q$r$",
"I+@+s$t$u$E+&@v$R#w$k#V@f+s#Z.x$L#y$_ T T T T T a z$E@c.!.A$B$C$",
"s.D$E$e.F$G$H$I$7.J$, i#K$Y }+z$. L$_ T T T T T M$N$9.O$S#P$%+Q$",
"u.m+R$m+,.>.#.X.S$E.T$c.B.U$h#^ 1 S._ T T T T T )#V$,$W$X$M#p.H$",
"H+B 4.G.n+{+{$Y$Z$`$ %]#I#]$= .%+%^ _ _ _ T T T j+I % @%#%. $%p.",
"%%&%*%=%f -%f ;%>%,%G+*@F.l$'%w$)%j+<.O+_ a@g#!%*#:.j#~%{%]%^%I@"};
