/* XPM */
static char * C:\Users\pc\Documents\pokemon_xpm\sceane\floor_2_xpm[] = {
"32 32 657 2",
"  	c #8A7964",
". 	c #9F9383",
"+ 	c #94887A",
"@ 	c #766D60",
"# 	c #897D6D",
"$ 	c #918674",
"% 	c #837B70",
"& 	c #7B7365",
"* 	c #7C7061",
"= 	c #AFA08F",
"- 	c #8C8276",
"; 	c #716657",
"> 	c #7C7365",
", 	c #847B6C",
"' 	c #695F52",
") 	c #766A5D",
"! 	c #786D5E",
"~ 	c #948673",
"{ 	c #7C7266",
"] 	c #867A6C",
"^ 	c #867C6F",
"/ 	c #8C8478",
"( 	c #8E816F",
"_ 	c #827668",
": 	c #83786A",
"< 	c #827666",
"[ 	c #7B7163",
"} 	c #6D6358",
"| 	c #6E675C",
"1 	c #7D7367",
"2 	c #928778",
"3 	c #81776B",
"4 	c #736555",
"5 	c #887D6D",
"6 	c #776C60",
"7 	c #7A6F62",
"8 	c #807468",
"9 	c #796E61",
"0 	c #82776A",
"a 	c #776D62",
"b 	c #7B6F63",
"c 	c #867867",
"d 	c #7E7468",
"e 	c #6F6559",
"f 	c #6C6457",
"g 	c #6C6254",
"h 	c #645B52",
"i 	c #7B746A",
"j 	c #7B7165",
"k 	c #958876",
"l 	c #6E6458",
"m 	c #72695E",
"n 	c #786E62",
"o 	c #73695D",
"p 	c #6C6255",
"q 	c #7B7268",
"r 	c #6F6860",
"s 	c #7C7267",
"t 	c #8A8073",
"u 	c #746B5F",
"v 	c #71685B",
"w 	c #857C6F",
"x 	c #7F776B",
"y 	c #7A7066",
"z 	c #7D7368",
"A 	c #867B6C",
"B 	c #7E7163",
"C 	c #827667",
"D 	c #84776A",
"E 	c #7D7266",
"F 	c #7F7569",
"G 	c #7F7368",
"H 	c #837669",
"I 	c #7D7265",
"J 	c #6D655B",
"K 	c #857E72",
"L 	c #807465",
"M 	c #8D8375",
"N 	c #6B6358",
"O 	c #837868",
"P 	c #7B7063",
"Q 	c #766C61",
"R 	c #877B6E",
"S 	c #7F7668",
"T 	c #80766A",
"U 	c #696155",
"V 	c #61574B",
"W 	c #665E51",
"X 	c #696052",
"Y 	c #807466",
"Z 	c #7D7163",
"` 	c #6A6156",
" .	c #7A7369",
"..	c #968979",
"+.	c #86796C",
"@.	c #64594E",
"#.	c #766D61",
"$.	c #84796C",
"%.	c #786D61",
"&.	c #776F65",
"*.	c #8B8071",
"=.	c #766B5C",
"-.	c #736756",
";.	c #776C5C",
">.	c #817A6D",
",.	c #7D7366",
"'.	c #696156",
").	c #8B7E6F",
"!.	c #74695C",
"~.	c #71665A",
"{.	c #887C6E",
"].	c #7A7265",
"^.	c #817567",
"/.	c #7D7162",
"(.	c #7E7769",
"_.	c #8A8375",
":.	c #7A6F60",
"<.	c #7A7064",
"[.	c #746B5E",
"}.	c #857B6D",
"|.	c #817768",
"1.	c #82776B",
"2.	c #807467",
"3.	c #736A60",
"4.	c #776E63",
"5.	c #85796A",
"6.	c #998F7F",
"7.	c #85796B",
"8.	c #857A6D",
"9.	c #817769",
"0.	c #756D62",
"a.	c #7E7467",
"b.	c #867C6C",
"c.	c #786D60",
"d.	c #8A7D6D",
"e.	c #756B5E",
"f.	c #857C6E",
"g.	c #61584B",
"h.	c #60574C",
"i.	c #6F6557",
"j.	c #706557",
"k.	c #796E5E",
"l.	c #908679",
"m.	c #90877A",
"n.	c #7C7265",
"o.	c #968B7B",
"p.	c #796F62",
"q.	c #7C7165",
"r.	c #877B6D",
"s.	c #867C70",
"t.	c #8F8274",
"u.	c #807668",
"v.	c #80776A",
"w.	c #8C8378",
"x.	c #7A7167",
"y.	c #877F73",
"z.	c #766B5E",
"A.	c #706960",
"B.	c #8E8474",
"C.	c #81776A",
"D.	c #897E71",
"E.	c #8C8071",
"F.	c #6D6458",
"G.	c #7B7368",
"H.	c #897F70",
"I.	c #867C6E",
"J.	c #7F7366",
"K.	c #7E7569",
"L.	c #6F665C",
"M.	c #6D655C",
"N.	c #817A6E",
"O.	c #706659",
"P.	c #887C6C",
"Q.	c #7F7467",
"R.	c #776D61",
"S.	c #8E8377",
"T.	c #867B6F",
"U.	c #7F7468",
"V.	c #807569",
"W.	c #8D8170",
"X.	c #908577",
"Y.	c #83796D",
"Z.	c #8B8377",
"`.	c #7B7266",
" +	c #81786D",
".+	c #7C7367",
"++	c #867C6D",
"@+	c #696056",
"#+	c #72695D",
"$+	c #645B50",
"%+	c #6F6458",
"&+	c #797065",
"*+	c #796F63",
"=+	c #807669",
"-+	c #837A6F",
";+	c #6E6558",
">+	c #71675A",
",+	c #7C7060",
"'+	c #928776",
")+	c #766A5E",
"!+	c #80766C",
"~+	c #7C7164",
"{+	c #726B63",
"]+	c #756B60",
"^+	c #8D8172",
"/+	c #897D6E",
"(+	c #9D9283",
"_+	c #8F8578",
":+	c #7A7268",
"<+	c #7D7468",
"[+	c #7F7365",
"}+	c #807265",
"|+	c #7B6F5F",
"1+	c #918774",
"2+	c #968A7B",
"3+	c #6D6357",
"4+	c #6F665B",
"5+	c #81786C",
"6+	c #7B7061",
"7+	c #877D6F",
"8+	c #736A5F",
"9+	c #7D7469",
"0+	c #837667",
"a+	c #948979",
"b+	c #7E7368",
"c+	c #867E78",
"d+	c #7A6F63",
"e+	c #6E6559",
"f+	c #756A5D",
"g+	c #8F806F",
"h+	c #6F6558",
"i+	c #8A8071",
"j+	c #938977",
"k+	c #796B5D",
"l+	c #6F6454",
"m+	c #7A7063",
"n+	c #847A6E",
"o+	c #817B6F",
"p+	c #74695B",
"q+	c #807567",
"r+	c #847C73",
"s+	c #958B7F",
"t+	c #817564",
"u+	c #6B6256",
"v+	c #8C8376",
"w+	c #766C5E",
"x+	c #8D8071",
"y+	c #817868",
"z+	c #73695C",
"A+	c #8B7E6E",
"B+	c #877D72",
"C+	c #797166",
"D+	c #7E7568",
"E+	c #81796E",
"F+	c #72685C",
"G+	c #8B8072",
"H+	c #70665C",
"I+	c #908575",
"J+	c #857A6C",
"K+	c #746E67",
"L+	c #756C61",
"M+	c #80756A",
"N+	c #7E7366",
"O+	c #6F6459",
"P+	c #696057",
"Q+	c #786F63",
"R+	c #6B635A",
"S+	c #544B40",
"T+	c #70675A",
"U+	c #797062",
"V+	c #7B6F62",
"W+	c #8A7D6E",
"X+	c #756B61",
"Y+	c #7A7164",
"Z+	c #83796B",
"`+	c #857F74",
" @	c #979186",
".@	c #7F7466",
"+@	c #786C5E",
"@@	c #7A7165",
"#@	c #8B8074",
"$@	c #857C70",
"%@	c #958A7C",
"&@	c #797268",
"*@	c #6E665B",
"=@	c #7A6F61",
"-@	c #756C60",
";@	c #797063",
">@	c #696055",
",@	c #786F61",
"'@	c #756B5F",
")@	c #8C8172",
"!@	c #837A70",
"~@	c #746C5F",
"{@	c #887E70",
"]@	c #887F72",
"^@	c #8F8374",
"/@	c #827869",
"(@	c #877D70",
"_@	c #8B8073",
":@	c #6A6055",
"<@	c #71675D",
"[@	c #786F64",
"}@	c #6A5F52",
"|@	c #877B6C",
"1@	c #8D8376",
"2@	c #7E7466",
"3@	c #776E61",
"4@	c #7A7368",
"5@	c #9A9083",
"6@	c #887D70",
"7@	c #7B7164",
"8@	c #7F7464",
"9@	c #7A7162",
"0@	c #7B7265",
"a@	c #7A7065",
"b@	c #8C8375",
"c@	c #817668",
"d@	c #7F7567",
"e@	c #797064",
"f@	c #8A7F71",
"g@	c #766B5D",
"h@	c #787066",
"i@	c #786F66",
"j@	c #8F8373",
"k@	c #7B7267",
"l@	c #71685D",
"m@	c #807566",
"n@	c #A39483",
"o@	c #807568",
"p@	c #655A4F",
"q@	c #7D776B",
"r@	c #888172",
"s@	c #6E6456",
"t@	c #897E6F",
"u@	c #948A7C",
"v@	c #6A645B",
"w@	c #887F6F",
"x@	c #857C71",
"y@	c #897E70",
"z@	c #857D71",
"A@	c #6D6459",
"B@	c #655E55",
"C@	c #6B6359",
"D@	c #6F665A",
"E@	c #686156",
"F@	c #6F655A",
"G@	c #7A7166",
"H@	c #746B60",
"I@	c #8E8070",
"J@	c #847769",
"K@	c #5C564C",
"L@	c #7D7669",
"M@	c #7C7364",
"N@	c #696053",
"O@	c #7C7468",
"P@	c #685F54",
"Q@	c #776D5F",
"R@	c #726759",
"S@	c #726656",
"T@	c #6C6356",
"U@	c #706759",
"V@	c #8B8173",
"W@	c #897F71",
"X@	c #7B7166",
"Y@	c #70675D",
"Z@	c #82786B",
"`@	c #71675C",
" #	c #766E64",
".#	c #776D60",
"+#	c #71695E",
"@#	c #6E665C",
"##	c #82786A",
"$#	c #6D6356",
"%#	c #6C6357",
"&#	c #8E8274",
"*#	c #84786A",
"=#	c #8A7B6B",
"-#	c #756756",
";#	c #776C5B",
">#	c #958879",
",#	c #938776",
"'#	c #84796D",
")#	c #8A8174",
"!#	c #7C7264",
"~#	c #8E8273",
"{#	c #8E8577",
"]#	c #8E8173",
"^#	c #948877",
"/#	c #7B7064",
"(#	c #7A6E62",
"_#	c #988B7B",
":#	c #796F64",
"<#	c #786F65",
"[#	c #84786D",
"}#	c #7F766B",
"|#	c #938677",
"1#	c #70675B",
"2#	c #716859",
"3#	c #786D5D",
"4#	c #8E8475",
"5#	c #8C8171",
"6#	c #837767",
"7#	c #7D705F",
"8#	c #7B7062",
"9#	c #867D70",
"0#	c #857664",
"a#	c #887A6A",
"b#	c #8E8171",
"c#	c #726A5F",
"d#	c #716755",
"e#	c #938573",
"f#	c #8F8170",
"g#	c #8A7D6F",
"h#	c #827A6C",
"i#	c #8C8373",
"j#	c #746A60",
"k#	c #766D62",
"l#	c #7C6F63",
"m#	c #7C7166",
"n#	c #6E655A",
"o#	c #83796A",
"p#	c #7F7568",
"q#	c #70695E",
"r#	c #6D6354",
"s#	c #948876",
"t#	c #837765",
"u#	c #71695C",
"v#	c #827B6D",
"w#	c #7C7668",
"x#	c #73695B",
"y#	c #80776C",
"z#	c #625A4F",
"A#	c #918574",
"B#	c #72695C",
"C#	c #8A7C6E",
"D#	c #8A7F6E",
"E#	c #7E7367",
"F#	c #857B6E",
"G#	c #706658",
"H#	c #7D7365",
"I#	c #756C5E",
"J#	c #665C4F",
"K#	c #7C7467",
"L#	c #7E7264",
"M#	c #877F72",
"N#	c #877E71",
"O#	c #6C6256",
"P#	c #8C7E6F",
"Q#	c #766C60",
"R#	c #847A6C",
"S#	c #7E7160",
"T#	c #746C60",
"U#	c #71695B",
"V#	c #766F65",
"W#	c #6A6358",
"X#	c #786F62",
"Y#	c #776E62",
"Z#	c #817566",
"`#	c #8B7F70",
" $	c #7A6E60",
".$	c #655E52",
"+$	c #7A7062",
"@$	c #897D6F",
"#$	c #81786B",
"$$	c #877E72",
"%$	c #645C52",
"&$	c #897C6C",
"*$	c #8D8174",
"=$	c #7B7066",
"-$	c #81796C",
";$	c #796F61",
">$	c #847768",
",$	c #918677",
"'$	c #7D7363",
")$	c #817667",
"!$	c #72685B",
"~$	c #827463",
"{$	c #746A5B",
"]$	c #7A6E5E",
"^$	c #736B5F",
"/$	c #7E7364",
"($	c #958878",
"_$	c #82786D",
":$	c #716659",
"<$	c #71685A",
"[$	c #7B7162",
"}$	c #8A8072",
"|$	c #898073",
"1$	c #675F54",
"2$	c #837D73",
"3$	c #736B61",
"4$	c #746C61",
"5$	c #7D7364",
"6$	c #827868",
"7$	c #988E7E",
"8$	c #84796B",
"9$	c #6D6457",
"0$	c #62594F",
"a$	c #877D71",
"b$	c #968C7E",
"c$	c #6B6155",
"d$	c #887E71",
"e$	c #62584B",
"f$	c #675D51",
"g$	c #877A6A",
"h$	c #877E73",
"i$	c #6A6258",
"j$	c #6D655A",
"k$	c #867D71",
"l$	c #82796D",
"m$	c #74695D",
"n$	c #8B7F6F",
"o$	c #7D7267",
"p$	c #8D877D",
"q$	c #7E7469",
"r$	c #796E60",
"s$	c #72685D",
"t$	c #786C5F",
"u$	c #9A8D7F",
"v$	c #827669",
"w$	c #8B8273",
"x$	c #7C756D",
"y$	c #807667",
"z$	c #867D6E",
"A$	c #8F8678",
"B$	c #8C8072",
"C$	c #766D5F",
"D$	c #756D5E",
"E$	c #706657",
"F$	c #AEA494",
"G$	c #7C7368",
"H$	c #978B7D",
"I$	c #817669",
"J$	c #736A5E",
"K$	c #766959",
"L$	c #7D7466",
"M$	c #807464",
"N$	c #796E5F",
"O$	c #696157",
"P$	c #817565",
"Q$	c #8F8271",
"R$	c #8E8372",
"S$	c #918676",
"T$	c #918474",
"U$	c #787164",
"V$	c #776B5D",
"W$	c #93897A",
"X$	c #8F8676",
"Y$	c #837869",
"Z$	c #9A8F7D",
"`$	c #766C5F",
" %	c #877E6F",
".%	c #847A6D",
"+%	c #7E756A",
"@%	c #938373",
"#%	c #7E7567",
"$%	c #807666",
"%%	c #857969",
"&%	c #867B6B",
"*%	c #7D7264",
"=%	c #766E63",
"-%	c #918577",
";%	c #726A61",
">%	c #8D8377",
",%	c #978E7F",
"'%	c #6D6255",
")%	c #6A5F53",
"!%	c #8B7E6C",
"~%	c #676056",
"{%	c #6C645B",
"]%	c #83786B",
"^%	c #8D8479",
"/%	c #887A69",
"(%	c #796E62",
"_%	c #8D8272",
":%	c #877C6D",
"<%	c #887F73",
"[%	c #786E60",
"}%	c #7C7469",
"|%	c #8E8373",
"1%	c #887C6D",
"2%	c #5F564B",
"3%	c #8A7F70",
"4%	c #83796C",
"5%	c #7C756C",
"6%	c #897E6E",
"7%	c #887B6B",
"8%	c #7C7366",
"9%	c #7A7266",
"0%	c #716658",
"a%	c #948B7A",
"b%	c #6F6355",
"c%	c #6A6056",
"d%	c #958675",
"e%	c #7D7467",
"f%	c #7C6F5F",
"g%	c #7C7363",
"h%	c #958C7A",
"i%	c #766B60",
"j%	c #70675C",
"k%	c #74695E",
"l%	c #766E65",
"m%	c #675E52",
"n%	c #908A80",
"o%	c #685E51",
"p%	c #6E6255",
"q%	c #867A6A",
"r%	c #938675",
"s%	c #6E6556",
"t%	c #84796A",
"u%	c #7B7367",
"v%	c #82786C",
"w%	c #7C7163",
"x%	c #72675B",
"y%	c #6D6355",
"z%	c #73685A",
"A%	c #6B6154",
"B%	c #7E7465",
"C%	c #756C5F",
"D%	c #5B5144",
"E%	c #675E53",
"F%	c #857D70",
"G%	c #706961",
"H%	c #938777",
"I%	c #978C7E",
"J%	c #736A5C",
"K%	c #786C5D",
"L%	c #786D62",
"M%	c #777067",
"N%	c #7D746B",
"O%	c #6D665D",
"P%	c #6A6154",
"Q%	c #74695A",
"R%	c #6A6052",
"S%	c #978D7D",
"T%	c #776C5D",
"U%	c #8B8276",
"V%	c #7D756A",
"W%	c #898075",
"X%	c #8A8075",
"Y%	c #7B7167",
"Z%	c #625A50",
"`%	c #7D7164",
" &	c #827769",
".&	c #6E6356",
"+&	c #756A5C",
"@&	c #887B6D",
"#&	c #786E63",
"$&	c #897B6C",
"%&	c #9A8D7B",
"&&	c #8F8477",
"*&	c #8D8475",
"=&	c #847B6D",
"-&	c #8D8277",
";&	c #928677",
">&	c #665F54",
"  . + @ # $ % & * = - ; > , ' ) ! ~ { ] ^ / ( _ : < [ } | 1 2 3 ",
"4 5 6 7 8 9 0 a b c d e f g h i j k l m n o p q r s t u v w x y ",
"z A B C D E F G H C I J K C L M N O P e Q R 0 S T U V W X Y Z ` ",
" ...+.@.#.$.t %.&.*.%.=.-.;.>.,.'.).] !.~.I {.].^./.(._.:.<.[.}.",
"O |.1.,.2.3.o 4.5.6.7.8.L 9.0.a.b.5 %.c.d.e.f.g.h.i.j.k.l.m.n.,.",
"o.p.q.r.s.n c.j t.u.v.w.x.y.z.A.B.C.D.E.F.G.H.I.J.K.L.K.M.N.@ O.",
"P.Q.R.I S.T.U.V.W.X.Y.}.Z.`. +.+++}.@+#+$+%+=.&+g #.*+=+-+;+>+n.",
",+'+)+!+=+<.~+{+]+^+/+(+_+| :+<+[+}+|+1+2+q.3+4+5+,.6+$ 7+8+7 9+",
"0+a+b+c+d+*+m e+f+g+>+h+Q.8.i+6.j+k+l+m+n+o+p+q+r+s+t+u+v+w+x+y+",
"z+A+B+C+[ ,.D+E+F+G+/ d H+a I+0 J+k.F+K+L+M+N+O+P+Q+R+S+f+T+U+w+",
"V+W+2.C+X+Q.Y+Z+@ `+ @.@+@z.@@1.#@$@%@&@*@=@-@Y+[+;@z+>@Q+,@{  +",
"'@)@!@3..@~@P =@1 {@]@a.^@/@(@_@o ^ :@<@[@#.| u+}@|@I 1@(@2@3@.+",
"4@5@6@o ,.7@8@o 9@0@a@b@c@d@f.e@f@g@h@i@{ j@k@l@m@n@o@R.p@q@r@s@",
"t@u@*+e+u+~@v@'.w@`.x@y@z@A@B@C@D@E@F@y G@=+>@H@I@J@K@<+e.L@M@N@",
"/+O@P@Q@R@S@T@U@V@W@0.} X@Y@Z@[@[@m+`@V. #d .#+#[ y@.+@#<+##$#%#",
"I.&#7 *#=#-#;#L+D+>#Y ,#'#- )#!#~#{#O@]#^#/#(#.+m+_#:#<#Q V.[#}#",
"}@|#7 ~.1#2#3#4#5#6#7#k.8#9#x@0#a#b#*@c#d#e#f#g#h#i#u j#k#*+l#m#",
"n#o#p#q#m+r#s#t#u#v#w#x#C { y#o z#A#z+Q B#T@b#C#(#D##@Y.E#3+X@I ",
"F#G#~+%#H#*+7.I#J#K#N L#Z+M#N#@ #.J+_ C.D+U Q.e.O#m@P#U.a@R.*#Q#",
"R#S#N+T#U#V#A@W#X#~+Y#Z#`# $p..$+$@$#$D@R.n#$$7@%$&$*$%.=$-$;$>$",
"N+0+q+,$g@3+'$I#p#)$z@0@!$~$9.+${$]$=+Q+Q+^$u.,$/$($_$3 : :$<$Q.",
"J+p.[$s.}$v.m+|$:#1$2$Z@*@3$i 4$5$6$7$8$9$0$F.a$b$&.c$d$#.e$f$k@",
"g$D.h@C.h$<+i$j$u+;@J+k$,.l$h$w+m$n$C z.n o$*${ :+p$`@q$r$s$N+X#",
"t$u$v$u.w$*+x$1 /$y$z$A$B$z.C$D$E$F$y#C@G$H$I$J$K$5#L$H.M$N$L#O$",
"P$Q$R$n ,@C L p#S$T$U$&+V$W$X$Y$j Z$`$8+ %+$.%+%R@@%#%$%q+%%&%y@",
"*%g@< ;$=%a.~+J+}#-%T ;%6 >%,%'%)%!%~%{%]%e@^%K.m@/%(%C.Q.W@_%z+",
":%[ z.t@<%[%Q#f@}%|%1%2%T+3%a.V$H#,#4%u 5%y@=+=+6%7%o@1 I$A c@8%",
"H.9%1$7@(@0%$#C.x#a%- >@#+b%R@'%c%d%t@e%*+f%g%/@8$h%^ 1._+U.i% +",
"j%k%##*.8#l%m%0@2@I.n%)$T#o%p%Q#q%r%p+;$s%n.t%/#t@7$6@+%u%1.v%3 ",
"w%x%.%6+y%z%A%`@B%9$C%D%E%F%h+G%H%I%u.O J%!#K%L%9+0 7+o@+%M%N%m$",
"O%]+1#3+v%)#C+P%S$Q%O.@ e.R%a@-+H.S%T%q%r$,..+1 U%V%W%J.h$X%Y% #",
"Z%6 `%0  &.&.#+&&$@&I#2@`$#+#&p#3@D#+&$&%&2.N#&&*&=&-&# d$;&d@>&"};
