/* XPM */
static char * C:\Users\pc\Documents\player_xpm\down_1_xpm[] = {
"32 32 16 1",
" 	c #589058",
".	c #404058",
"+	c #A8B8D0",
"@	c #F8F8F8",
"#	c #000000",
"$	c #C8D8E8",
"%	c #585880",
"&	c #E86868",
"*	c #382838",
"=	c #985868",
"-	c #604030",
";	c #F8D0B8",
">	c #D09870",
",	c #385098",
"'	c #4078C0",
")	c #70A0E0",
"                                ",
"                                ",
"                                ",
"                                ",
"             ......             ",
"           ..+@@@@+..           ",
"          .+@@@@@@@@+.          ",
"         #+$@@@%%@@@$+#         ",
"         #+$&&&..&&&$+#         ",
"      **.+=&&&&&&&&&&=+.**      ",
"       ##==&&&.%%.&&&==##       ",
"      *-#===&**==**&===#-*      ",
"     *=-*====*=.*=*====*-=*     ",
"      #--#.===*==*===.#--#      ",
"       #-#..%%%%%%%%..#-#       ",
"       #--#..%%%%%%..#--#       ",
"        #****.%%%%.****#        ",
"        #-*;@#>>>>#@;*-#        ",
"         #*-;;;;;;;;-*#         ",
"        ##.#*->;;>-.#.##        ",
"       #;>##...--..,##>;#       ",
"       -;># #,..$,,#'#>;-       ",
"        ## ##''$..)#))##        ",
"           #.'$..$..$),         ",
"           #..%%%%.#.$#         ",
"            ...##..###          ",
"            #&&##&&#            ",
"             ##  ##             ",
"                                ",
"                                ",
"                                ",
"                                "};
