/* XPM */
static char *result[] = {
/* columns rows colors chars-per-pixel */
"32 32 15 1 ",
"  c black",
". c #382838",
"X c #604030",
"o c #404058",
"O c #985868",
"+ c #E86868",
"@ c #D09870",
"# c #385098",
"$ c #585880",
"% c #4078C0",
"& c #70A0E0",
"* c #F8D0B8",
"= c #A8B8D0",
"- c #C8D8E8",
"; c #F8F8F8",
/* pixels */
"                                ",
"                                ",
"                                ",
"                                ",
"           ...ooo               ",
"         ..+++;;=oo             ",
"        .++++$$;;;=o            ",
"        O++++$$;;;-=            ",
"        O+++++;;;;-=            ",
"       $$O++++;;;;==$           ",
"    .. O.$O+++;;;-=$.X.         ",
"   .$$o.O.OOOO=====.=           ",
"  .$$$oOX.OOOO=====$=.          ",
"  .$$$$o.OOOOO======X           ",
"   .$$$$ooOOOO=====XXX          ",
"    ...... ;X.XX.XXXXXO         ",
"       X** ;@..XX.XXX           ",
"       @****@@...XX             ",
"        X@*@..XXX XX            ",
"           X ..                 ",
"          @@  #.%#&&            ",
"         X@@  -%.#%&oo          ",
"          X   .%..#. **         ",
"              .=%.=% *@         ",
"                .#=%%  .        ",
"               .$..===.o        ",
"              ......   o        ",
"            +o..                ",
"             Oo                 ",
"                                ",
"                                ",
"                                "
};
