/* XPM */
static char *result[] = {
/* columns rows colors chars-per-pixel */
"32 32 15 1 ",
"  c black",
". c #382838",
"X c #604030",
"o c #404058",
"O c #985868",
"+ c #E86868",
"@ c #D09870",
"# c #385098",
"$ c #585880",
"% c #4078C0",
"& c #70A0E0",
"* c #F8D0B8",
"= c #A8B8D0",
"- c #C8D8E8",
"; c #F8F8F8",
/* pixels */
"                                ",
"                                ",
"                                ",
"                                ",
"                                ",
"             ......             ",
"           ..++++++..           ",
"          .O+++$$+++O.          ",
"          O-;;;$$;;;-O          ",
"          =-;;;;;;;;-=          ",
"         ===-;;;;;;-===         ",
"         ====------====         ",
"         ==============         ",
"         .====....====.         ",
"       .O.====....====.O        ",
"        XX.==========.XX        ",
"         XX..======..XX         ",
"          .XX......XX.          ",
"         .XXXXXXXXXXXX          ",
"            X XXXX X            ",
"             X    X             ",
"        X &%  ##.#  %& X        ",
"       X*o# # # o#   #o*X       ",
"       X*@ %#  o#%    @*X       ",
"          &-o o%%%#             ",
"          -oo %%%#o             ",
"          oo .......            ",
"             ..  ..             ",
"            oo    oo            ",
"            OO    OO            ",
"                                ",
"                                "
};
