/* XPM */
static char *result[] = {
/* columns rows colors chars-per-pixel */
"32 32 16 1 ",
"  c black",
". c gray1",
"X c #382838",
"o c #604030",
"O c #404058",
"+ c #985868",
"@ c #E86868",
"# c #D09870",
"$ c #385098",
"% c #585880",
"& c #4078C0",
"* c #70A0E0",
"= c #F8D0B8",
"- c #A8B8D0",
"; c #C8D8E8",
": c #F8F8F8",
/* pixels */
"................................",
"................................",
"............XXXXXX..............",
"..........XX@@@@@@XX............",
".........X+@@@%%@@@+X...........",
"........ +;:::%%:::;+ ..........",
"........ -;::::::::;- ..........",
"....... ---;::::::;--- .........",
"....... ----;;;;;;---- .........",
"....... -------------- .........",
".......XX----XXXX----X .........",
"..... X+X----XXXX----X+  .......",
"...... ooX----------Xoo ........",
"....... ooXX------XXoo .........",
"........ XooXXXXXXooX ..........",
"........Xoooooooooooo  .........",
".........  o oooo o  O# ........",
"..........  $    $  &&O ........",
"...........$*$$&&X$$   .........",
"..........X**$&&XO  ............",
".......... * X& O&o ............",
"........XXO*X  O&&o ............",
".......X=#O &XO***&% ...........",
".......X== &;X&&&&OX ...........",
"........   ;O OOOXXX ...........",
".......... OO   XXO ............",
"...........  ... XXO............",
"............... OX .............",
"............... XX .............",
"............... ++ .............",
"................  ..............",
"................................"
};
