/* XPM */
static char * C:\Users\pc\Documents\pokemon_xpm\6\up_1_xpm[] = {
"32 32 11 1",
" 	c #589058",
".	c #402858",
"+	c #000000",
"@	c #606060",
"#	c #E8E8F8",
"$	c #7050C8",
"%	c #A068E0",
"&	c #B8C0E0",
"*	c #909090",
"=	c #5090E0",
"-	c #304090",
"                                ",
"                                ",
"                                ",
"                                ",
"                                ",
"                                ",
"                                ",
"                                ",
"                                ",
"           ..      ..           ",
"           ...    ...           ",
"             .    .             ",
"     +@@      ....      @@+     ",
"    +@##@+   .$%%$.   +@##@+    ",
"   +@#&###+ .$%%%%$. +###&#@+   ",
"   +#&#&###+.%%%%%%.+###&#&#+   ",
"   +##&#&###+$%%%%$+###&#&##+   ",
"   +&##***###+%%%%+###***##&+   ",
"    +&&*##**#&+$$+&#**##*&&+    ",
"    +&##*###*#+@@+#*###*##&+    ",
"     +&##**##*&@@&*##**##&+     ",
"      ++&&&&@@@++@@@&&&&++      ",
"        +++@@*&++&*@@+++        ",
"         +&**&+..+&**&+         ",
"          +&&+.@@.+&&+          ",
"           ++=-  -=++           ",
"             -    -             ",
"                                ",
"                                ",
"                                ",
"                                ",
"                                "};
