/* XPM */
static char * C:\Users\pc\Documents\pokemon_xpm\04\down_1_xpm[] = {
"32 32 14 1",
" 	c #589058",
".	c #183820",
"+	c #80B860",
"@	c #000000",
"#	c #409048",
"$	c #286838",
"%	c #A0A0A0",
"&	c #E8E8F8",
"*	c #403000",
"=	c #A07850",
"-	c #786048",
";	c #D0A818",
">	c #B87808",
",	c #F8D020",
"                                ",
"                                ",
"                                ",
"                                ",
"                                ",
"                                ",
"               ..               ",
"             ..++..             ",
"            @#++++#@            ",
"    ...    @.++++++.@    ...    ",
"    .#..$  @++++++++@  $..#.    ",
"  @.##$#. ..++++++++.. .#$##.@  ",
"  @#####.@#.#++++++#.#@.#####@  ",
"  @.$#$##@#+.++++++.+#@##$#$.@  ",
"   .###$#@++@#++++#@++@#$###.   ",
"   $@$#$$@#+%@#++#@%+#@$$#$@$   ",
"      @#$$@#&@.##.@&#@$$#@      ",
"      @#$$$@*==..==*@$$$#@      ",
"       @@@.-;@-==-@;-.@@@       ",
"      ...@@>,>@@@@>,>@@...      ",
"    ..###$@>,->,;>-,>@$###..    ",
"   .##.....@@->,;>-@@.....##.   ",
"   @@.$.$$.##.@;;@.##.$$.$.@@   ",
"     @@@@$###.#--#.###$@@@@     ",
"         .#$*.####.*$#.         ",
"         .$*=-.##.-=*$.         ",
"         @*==-*--*--**@         ",
"         @**--@@@@@*;;@         ",
"         @;;*@     @@@          ",
"          @@@                   ",
"                                ",
"                                "};
