/* XPM */
static char * C:\Users\pc\Documents\pokemon_xpm\04\left_0_xpm[] = {
"32 32 14 1",
" 	c #589058",
".	c #183820",
"+	c #000000",
"@	c #286838",
"#	c #409048",
"$	c #80B860",
"%	c #786048",
"&	c #A07850",
"*	c #A0A0A0",
"=	c #E8E8F8",
"-	c #403000",
";	c #B87808",
">	c #D0A818",
",	c #F8D020",
"                                ",
"                                ",
"                                ",
"                                ",
"                                ",
"                                ",
"                                ",
"                       .++      ",
"                       .@+      ",
"         ++           .@@@@+    ",
"       +#$$@+         .@@+++    ",
"     @#$$$$$#+       .@++$$@    ",
"    +$$$$$$$$#.      .@+$$$$.+  ",
"   +$$$$#######+    .@+$$$$$$+  ",
"   #$$#########+    ...$$#$@.+  ",
"  @$####@...##%%+  .@+#$#$$$+   ",
"  @####@.$##.%%&+  @+###$$@.+   ",
"  +###@.$$##.%&&%+ @+##@###+    ",
"  ++..+*$##.%%&%&&++@@.###@+    ",
"    +&+=@..-+%%&&&#+@.@##@+     ",
"     ++++;;>++%%&+#.@.@@.+.@@   ",
"       ;>;>>+ +%%.##@@@.+%%+@@. ",
"       +++,+  +..###..$$%%%%+@. ",
"         ++   @@#####.@@$$%%++  ",
"              @#@#####.#@@$$-+  ",
"              .##@####..##@@$$+ ",
"              +#%%-+--%++###@@+ ",
"               +%%%+++++---@@+  ",
"               +>-%+   ->--++   ",
"                +++     +++     ",
"                                ",
"                                "};
