/* XPM */
static char * C:\Users\pc\Documents\pokemon_xpm\04\up_0_xpm[] = {
"32 32 9 1",
" 	c #589058",
".	c #183820",
"+	c #80B860",
"@	c #000000",
"#	c #409048",
"$	c #286838",
"%	c #786048",
"&	c #A07850",
"*	c #403000",
"                                ",
"                                ",
"                                ",
"                                ",
"                                ",
"               ..               ",
"             ..++..             ",
"            @#++++#@            ",
"           @#++++++#@           ",
"    @@@    @#++++++#@    @@@    ",
"    .+.@@ @$#++++++#$@ @@.+.    ",
"  @.++$+@@#$%++++++%$#@@+$++.@  ",
"  @+++++.@#$%&++++&%$#@.+++++@  ",
"  @.$+#++$@$*&&++&&*$@$++#+$.@  ",
"   @+++#+##@*%&&&&%*@##+#+++@   ",
"   @.$++####@%&&&&%@####++$.@   ",
"     @###$##.@&&&&@.##$###@     ",
"     @$###$#$@&&&&@$#$###$@     ",
"      @$###$$$@$$@$$$###$@      ",
"       @$$$$$$@$$@$$$$$$@       ",
"        @$$$........$$$@        ",
"      @@#@@...&&&&...@@#@@      ",
"    @@##......####......##@@    ",
"   @##..$$..##&&&&##..$$..##@   ",
"   @@@$$@@*%%&&&&&&%%@@@$$@@@   ",
"     ... @%%*%&&&&%%%*@ ...     ",
"         @%%%@%%%%%*%%@         ",
"         @*%%@@**@@%%%@         ",
"          @@@     @%%*@         ",
"                   @@@          ",
"                                ",
"                                "};
