/* XPM */
static char * C:\Users\pc\Documents\pokemon_xpm\5\left_1_xpm[] = {
"32 32 13 1",
" 	c #589058",
".	c #283030",
"+	c #000000",
"@	c #508090",
"#	c #406878",
"$	c #F8E0A8",
"%	c #D8C078",
"&	c #284848",
"*	c #404040",
"=	c #886848",
"-	c #E8E8F8",
";	c #C0C0C8",
">	c #A0A0B8",
"                                ",
"                                ",
"                                ",
"                ..              ",
"               +@#.             ",
"             .+@@++.            ",
"            ..#@+#@+.           ",
"           .@@@+#@@+#.          ",
"          .@@@@@@@#.##.         ",
"          .@$$@@@@#.##.         ",
"         +%$$$@@@@#####.        ",
"         +$$$$$#@######+        ",
"         +$+$$$########+        ",
"         .%%+$$#######&&.       ",
"        *%=-%%$#######&#.       ",
"       *%$$=%%#######&###.      ",
"       *$$$$#############.      ",
"      *$$$$$$####@@@######.     ",
"      *$$$$$$=#.#@@@@#####.     ",
"      *$$$$$$$=.#@@@@.####.     ",
"      *%$$$$$$%..@@@@.####.     ",
"      *%%$$$$$$#.@@@#+####.     ",
"       *%%$$$$%#+;#;+&##&&.     ",
"       *%%%%%%%&&+++&&&&&.      ",
"        +%%%%%%&&&&&&&&&&.      ",
"         +%%%%&&&&&&&&&&+       ",
"          ++&&&&&&&&&&&+        ",
"            **&&...&&++         ",
"              .+>====.          ",
"                +++++           ",
"                                ",
"                                "};
