/* XPM */
static char * C:\Users\pc\Documents\pokemon_xpm\5\up_1_xpm[] = {
"32 32 8 1",
" 	c #589058",
".	c #283030",
"+	c #000000",
"@	c #508090",
"#	c #406878",
"$	c #284848",
"%	c #404040",
"&	c #886848",
"                                ",
"                                ",
"                                ",
"                                ",
"           .+       +.          ",
"          .@#+.....+#@.         ",
"          .@@#+###+#@@.         ",
"          .@@@#@@@#@@@.         ",
"          .#@@@@@@@@@#.         ",
"         .##@@@@@@@@@##.        ",
"         +###@@@@@@@###+        ",
"         +#####@@@#####+        ",
"       ..+#############+.       ",
"     ..##$+###########+$#..     ",
"    .@@####+#########+####@.    ",
"   .#@@@####+++++++++####@@@.   ",
"   .##@##$################@@#.  ",
"   +###..###############.####.  ",
"    ++.##################..##+  ",
"     .$###################$++   ",
"     .$$#################$$.    ",
"     .$$$###############$$$.    ",
"      +$$$$###########$$$$+     ",
"      +$$$$$$$#####$$$$$$$+     ",
"       +$$$$$$$$$$$$$$$$$+      ",
"       .$$$$$$$$$$$$$$$$$.      ",
"        .++$$$$$$$$$$$++.       ",
"        %&&+++++++++++&&+       ",
"        +&&&&%     %++++        ",
"         ++++                   ",
"                                ",
"                                "};
