/* XPM */
static char * C:\Users\pc\Documents\pokemon_xpm\enemy\down_0_xpm[] = {
"32 32 92 2",
"  	c #589058",
". 	c #303030",
"+ 	c #000000",
"@ 	c #505050",
"# 	c #5A9058",
"$ 	c #986858",
"% 	c #7D8C53",
"& 	c #798D54",
"* 	c #5E8F57",
"= 	c #678F56",
"- 	c #B78444",
"; 	c #D68035",
"> 	c #A08A4B",
", 	c #708D55",
"' 	c #C87850",
") 	c #909090",
"! 	c #758E54",
"~ 	c #D48436",
"{ 	c #FB900C",
"] 	c #F28F1C",
"^ 	c #CA8A3B",
"/ 	c #948B4E",
"( 	c #638F57",
"_ 	c #E8B080",
": 	c #7D8D53",
"< 	c #E78928",
"[ 	c #FEAA05",
"} 	c #FFAA03",
"| 	c #FE9805",
"1 	c #E98C27",
"2 	c #9F8E4B",
"3 	c #F8D0B8",
"4 	c #A4894A",
"5 	c #F2901D",
"6 	c #FFB205",
"7 	c #FFBF08",
"8 	c #FFAB03",
"9 	c #F79314",
"0 	c #B69043",
"a 	c #AF8B46",
"b 	c #F69417",
"c 	c #FCAB0B",
"d 	c #F2B41A",
"e 	c #DE9929",
"f 	c #BB7837",
"g 	c #683B15",
"h 	c #323030",
"i 	c #788F53",
"j 	c #B2843B",
"k 	c #AD743B",
"l 	c #906743",
"m 	c #7C5644",
"n 	c #67473C",
"o 	c #524B4A",
"p 	c #548150",
"q 	c #615C42",
"r 	c #6C4C41",
"s 	c #6E5148",
"t 	c #65504B",
"u 	c #504846",
"v 	c #525150",
"w 	c #C83848",
"x 	c #982010",
"y 	c #704040",
"z 	c #588B57",
"A 	c #5B6C51",
"B 	c #665854",
"C 	c #6A5B57",
"D 	c #6E5F5A",
"E 	c #997B65",
"F 	c #403F3D",
"G 	c #588957",
"H 	c #5A7456",
"I 	c #5F6657",
"J 	c #625550",
"K 	c #604D4A",
"L 	c #614241",
"M 	c #120F0E",
"N 	c #588E58",
"O 	c #588757",
"P 	c #52724B",
"Q 	c #574B3A",
"R 	c #543C32",
"S 	c #53784B",
"T 	c #030101",
"U 	c #568B55",
"V 	c #4F6642",
"W 	c #483E2F",
"X 	c #517549",
"Y 	c #4F6E45",
"Z 	c #548350",
"` 	c #010000",
"                                                                ",
"                                                                ",
"                                                                ",
"                                                                ",
"                          . . .     . .                         ",
"                        + . @ @ . . @ @ +                       ",
"                        + . @ @ @ @ @ @ +                       ",
"                      + . . . @ @ @ @ . . +                     ",
"                  + + + + . . @ @ @ @ . + + + +                 ",
"                + . . + + . . @ @ @ . . + + . . +               ",
"                + . . + + + + . . . + + + + . . +               ",
"                + @ . . + + + + + + + + + . . @ +               ",
"                  + @ @ . . + + + + + . . @ @ +                 ",
"                  . + @ @ @ . . . . . @ @ @ + .                 ",
"            #     + $ + + @ @ @ @ @ @ @ + + $ +                 ",
"        # % & *   + $ . $ + + + + + + + $ . $ +                 ",
"        = - ; > ,   + . ' ) + $ $ $ + ) ' . .                   ",
"        ! ~ { ] ^ / ( + ' _ _ _ _ _ _ _ ' +                     ",
"      # : < [ } | 1 2 + $ 3 3 3 3 3 3 3 $ +                     ",
"        4 5 6 7 8 9 0 . + ' _ 3 _ 3 _ ' + .                     ",
"        a b c d e f g h @ . . ' ' ' . . @ . +                   ",
"        i j k l m n o @ @ @ @ . . . @ @ @ @ @ +                 ",
"          p q r s t u v + @ @ ) ) ) w x + @ . _ y               ",
"          z A B C D E F . @ @ @ ) @ @ @ . . _ _ y               ",
"          G H I J K L M . @ @ @ . @ @ @ . + y y                 ",
"          N O P Q R S T . . @ @ . @ @ . . +                     ",
"              U V W X + + . . + + + . . + +                     ",
"                p Y Z ` . . +       + . . +                     ",
"                        + +           + +                       ",
"                                                                ",
"                                                                ",
"                                                                "};
