/* XPM */
static char * C:\Users\pc\Documents\pokemon_xpm\enemy\down_2_xpm[] = {
"32 32 94 2",
"  	c #589058",
". 	c #303030",
"+ 	c #000000",
"@ 	c #505050",
"# 	c #5A9058",
"$ 	c #986858",
"% 	c #7D8C53",
"& 	c #798D54",
"* 	c #5E8F57",
"= 	c #678F56",
"- 	c #B78444",
"; 	c #D68035",
"> 	c #A08A4B",
", 	c #708D55",
"' 	c #C87850",
") 	c #909090",
"! 	c #758E54",
"~ 	c #D48436",
"{ 	c #FB900C",
"] 	c #F28F1C",
"^ 	c #CA8A3B",
"/ 	c #948B4E",
"( 	c #638F57",
"_ 	c #E8B080",
": 	c #7D8D53",
"< 	c #E78928",
"[ 	c #FEAA05",
"} 	c #FFAA03",
"| 	c #FE9805",
"1 	c #E98C27",
"2 	c #9F8E4B",
"3 	c #F8D0B8",
"4 	c #A4894A",
"5 	c #F2901D",
"6 	c #FFB205",
"7 	c #FFBF08",
"8 	c #FFAB03",
"9 	c #F79314",
"0 	c #AC6101",
"a 	c #AF8B46",
"b 	c #F69417",
"c 	c #FCAB0B",
"d 	c #F2B41A",
"e 	c #DE9929",
"f 	c #BA7031",
"g 	c #775441",
"h 	c #515050",
"i 	c #788F53",
"j 	c #B2843B",
"k 	c #AD743B",
"l 	c #906743",
"m 	c #7C5644",
"n 	c #765344",
"o 	c #3D3431",
"p 	c #313131",
"q 	c #548150",
"r 	c #615C42",
"s 	c #6C4C41",
"t 	c #6E5148",
"u 	c #65504B",
"v 	c #A48065",
"w 	c #3B3A39",
"x 	c #C83848",
"y 	c #982010",
"z 	c #588B57",
"A 	c #5B6C51",
"B 	c #665854",
"C 	c #6A5B57",
"D 	c #655957",
"E 	c #645351",
"F 	c #6AA262",
"G 	c #030202",
"H 	c #704040",
"I 	c #588957",
"J 	c #5A7456",
"K 	c #5F6657",
"L 	c #625550",
"M 	c #5F534B",
"N 	c #546F4D",
"O 	c #120F0E",
"P 	c #588E58",
"Q 	c #588757",
"R 	c #52724B",
"S 	c #574B3A",
"T 	c #543C32",
"U 	c #53784B",
"V 	c #030101",
"W 	c #568B55",
"X 	c #4F6642",
"Y 	c #483E2F",
"Z 	c #517549",
"` 	c #4F6E45",
" .	c #548350",
"..	c #010000",
"                                                                ",
"                                                                ",
"                                                                ",
"                                                                ",
"                        . . .     . .                           ",
"                      + . @ @ . . @ @ +                         ",
"                      + . @ @ @ @ @ @ +                         ",
"                    + . . . @ @ @ @ . . +                       ",
"                + + + + . . @ @ @ @ . + + + +                   ",
"              + . . + + . . @ @ @ . . + + . . +                 ",
"              + . . + + + + . . . + + + + . . +                 ",
"              + @ . . + + + + + + + + + . . @ +                 ",
"                + @ @ . . + + + + + . . @ @ +                   ",
"                . + @ @ @ . . . . . @ @ @ + .                   ",
"          #     + $ + + @ @ @ @ @ @ @ + + $ +                   ",
"      # % & *   + $ . $ + + + + + + + $ . $ +                   ",
"      = - ; > ,   . . ' ) + $ $ $ + ) ' . +                     ",
"      ! ~ { ] ^ / ( + ' _ _ _ _ _ _ _ ' +                       ",
"    # : < [ } | 1 2 + $ 3 3 3 3 3 3 3 $ +                       ",
"      4 5 6 7 8 9 0 . + ' _ 3 _ 3 _ ' + .                       ",
"      a b c d e f g h . . . ' ' ' . . . +                       ",
"      i j k l m n o p . . @ . . . @ @ @ . +                     ",
"        q r s t u v w + @ @ ) ) ) x y @ @ +                     ",
"        z A B C D E F G @ @ @ ) @ @ . + 3 3 H                   ",
"        I J K L M N O . @ @ @ . @ @ @ + _ _ H                   ",
"        P Q R S T U V . . @ @ . @ @ . . H H                     ",
"            W X Y Z + . @ . . . . . + +                         ",
"              q `  .... @ @ . + + +                             ",
"                      + . . +                                   ",
"                      + @ @ +                                   ",
"                        + +                                     ",
"                                                                "};
