/* XPM */
static char * C:\Users\pc\Documents\pokemon_xpm\enemy\down_1_xpm[] = {
"32 32 13 1",
" 	c #589058",
".	c #303030",
"+	c #000000",
"@	c #505050",
"#	c #986858",
"$	c #C87850",
"%	c #909090",
"&	c #E8B080",
"*	c #F8D0B8",
"=	c #704040",
"-	c #C83848",
";	c #982010",
">	c #70B868",
"                                ",
"                                ",
"                                ",
"                                ",
"                                ",
"            ...  ..             ",
"           +.@@..@@+            ",
"           +.@@@@@@+            ",
"          +...@@@@..+           ",
"        ++++..@@@@.++++         ",
"       +..++..@@@..++..+        ",
"       +..++++...++++..+        ",
"       +@..+++++++++..@+        ",
"        +@@..+++++..@@+         ",
"        .+@@@.....@@@+.         ",
"        +#++@@@@@@@++#+         ",
"        +#.#+++++++#.#+         ",
"         +.$%+###+%$..          ",
"          +$&&&&&&&$+           ",
"          +#*******#+           ",
"          .+$&*&*&$+.+          ",
"          +...$$$...@@+         ",
"         +.@@@...@....&=        ",
"         +@@+@%%%-;+.&&=        ",
"        =**+.@@%@@@+>==         ",
"        =&&+@@@.@@@.+           ",
"         ==..@@.@@..+           ",
"           ++.....@.+           ",
"             +++.@@.+           ",
"                +..+            ",
"                +@@+            ",
"                 ++             "};
