/* XPM */
static char * C:\Users\pc\Documents\pokemon_xpm\enemy\down_1_xpm[] = {
"32 32 93 2",
"  	c #589058",
". 	c #303030",
"+ 	c #000000",
"@ 	c #505050",
"# 	c #986858",
"$ 	c #5A9058",
"% 	c #7D8C53",
"& 	c #798D54",
"* 	c #5E8F57",
"= 	c #C87850",
"- 	c #909090",
"; 	c #678F56",
"> 	c #B78444",
", 	c #D68035",
"' 	c #A08A4B",
") 	c #708D55",
"! 	c #E8B080",
"~ 	c #758E54",
"{ 	c #D48436",
"] 	c #FB900C",
"^ 	c #F28F1C",
"/ 	c #CA8A3B",
"( 	c #813800",
"_ 	c #9D6857",
": 	c #F8D0B8",
"< 	c #7D8D53",
"[ 	c #E78928",
"} 	c #FEAA05",
"| 	c #FFAA03",
"1 	c #FE9805",
"2 	c #E77F12",
"3 	c #904B00",
"4 	c #A4894A",
"5 	c #F2901D",
"6 	c #FFB205",
"7 	c #FFBF08",
"8 	c #FFAB03",
"9 	c #F68E01",
"0 	c #AF6823",
"a 	c #AF8B46",
"b 	c #F69417",
"c 	c #FCAB0B",
"d 	c #F2B41A",
"e 	c #DE9929",
"f 	c #BA7133",
"g 	c #775441",
"h 	c #515050",
"i 	c #704040",
"j 	c #788F53",
"k 	c #B2843B",
"l 	c #AD743B",
"m 	c #906743",
"n 	c #7C5644",
"o 	c #69493F",
"p 	c #524B4A",
"q 	c #060504",
"r 	c #C83848",
"s 	c #982010",
"t 	c #548150",
"u 	c #615C42",
"v 	c #6C4C41",
"w 	c #6E5148",
"x 	c #65514C",
"y 	c #4A423F",
"z 	c #3B3A39",
"A 	c #70B868",
"B 	c #588B57",
"C 	c #5B6C51",
"D 	c #665754",
"E 	c #6A5B57",
"F 	c #6E5F5A",
"G 	c #4F4B49",
"H 	c #535251",
"I 	c #588957",
"J 	c #5A7456",
"K 	c #5F6657",
"L 	c #625450",
"M 	c #604D4A",
"N 	c #433B3A",
"O 	c #333232",
"P 	c #588E58",
"Q 	c #588757",
"R 	c #52724B",
"S 	c #574B3A",
"T 	c #543C32",
"U 	c #2B1A16",
"V 	c #030101",
"W 	c #568B55",
"X 	c #4F6642",
"Y 	c #483E2F",
"Z 	c #517549",
"` 	c #4F6E45",
" .	c #548350",
"                                                                ",
"                                                                ",
"                                                                ",
"                                                                ",
"                                                                ",
"                        . . .     . .                           ",
"                      + . @ @ . . @ @ +                         ",
"                      + . @ @ @ @ @ @ +                         ",
"                    + . . . @ @ @ @ . . +                       ",
"                + + + + . . @ @ @ @ . + + + +                   ",
"              + . . + + . . @ @ @ . . + + . . +                 ",
"              + . . + + + + . . . + + + + . . +                 ",
"              + @ . . + + + + + + + + + . . @ +                 ",
"                + @ @ . . + + + + + . . @ @ +                   ",
"                . + @ @ @ . . . . . @ @ @ + .                   ",
"                + # + + @ @ @ @ @ @ @ + + # +                   ",
"              $ + # . # + + + + + + + # . # +                   ",
"          $ % & * + . = - + # # # + - = . .                     ",
"          ; > , ' ) + = ! ! ! ! ! ! ! = +                       ",
"          ~ { ] ^ / ( _ : : : : : : : # +                       ",
"        $ < [ } | 1 2 3 = ! : ! : ! = + . +                     ",
"          4 5 6 7 8 9 0 . . = = = . . . @ @ +                   ",
"          a b c d e f g h @ . . . @ . . . . ! i                 ",
"          j k l m n o p q @ - - - r s + . ! ! i                 ",
"            t u v w x y z @ @ - @ @ @ + A i i                   ",
"            B C D E F G H @ @ . @ @ @ . +                       ",
"            I J K L M N O @ @ . @ @ . . +                       ",
"            P Q R S T U V . . . . . @ . +                       ",
"                W X Y Z   + + + . @ @ . +                       ",
"                  t `  .        + . . +                         ",
"                                + @ @ +                         ",
"                                  + +                           "};
