/* XPM */
static char * C:\Users\pc\Documents\pokemon_xpm\enemy\left_2_xpm[] = {
"32 32 13 1",
" 	c #589058",
".	c #303030",
"+	c #000000",
"@	c #505050",
"#	c #704040",
"$	c #986858",
"%	c #707070",
"&	c #C87850",
"*	c #F8D0B8",
"=	c #E8B080",
"-	c #909090",
";	c #C83848",
">	c #982010",
"                                ",
"                                ",
"                                ",
"                                ",
"             .......            ",
"            +.@@@@@..           ",
"            +@@@@@@@+           ",
"           +..@@@@@..+          ",
"           +.........+          ",
"          +++.......+++         ",
"        +.+++++...++++++        ",
"       +...++++++++++....       ",
"       +..@@..+++++..@..+       ",
"        +@@@@@@@@@@@@@@.+       ",
"         ++@@@@@@@@@@+++        ",
"          #++++++++++.+         ",
"          #$+%&$......+         ",
"          #*====.**..+          ",
"          #***=====..+          ",
"           #&===&&..+           ",
"            #$$&&..+            ",
"             +--..+             ",
"            .;>..@+             ",
"            .@.+@@@+            ",
"            ....+**+            ",
"            +@@.+==++           ",
"            +@@@@++..+          ",
"           .@+.@...+.+          ",
"           +@@@++ +..+          ",
"            +++    ++           ",
"                                ",
"                                "};
