/* XPM */
static char * C:\Users\pc\Documents\pokemon_xpm\enemy\right_2_xpm[] = {
"32 32 116 2",
"  	c #589058",
". 	c #303030",
"+ 	c #505050",
"@ 	c #000000",
"# 	c #704040",
"$ 	c #986858",
"% 	c #C87850",
"& 	c #727070",
"* 	c #0D0200",
"= 	c #F8D0B8",
"- 	c #333030",
"; 	c #E9AF7E",
"> 	c #EAAC7B",
", 	c #EAAB7A",
"' 	c #E9AE7D",
") 	c #E8B080",
"! 	c #EDA773",
"~ 	c #F19F68",
"{ 	c #FBB797",
"] 	c #F9C6AC",
"^ 	c #F8CFB7",
"/ 	c #4C372F",
"( 	c #D47A48",
"_ 	c #DF7E3F",
": 	c #F69C53",
"< 	c #FA9640",
"[ 	c #F7954E",
"} 	c #D87845",
"| 	c #78423F",
"1 	c #0D0400",
"2 	c #6A442D",
"3 	c #B96A22",
"4 	c #F59124",
"5 	c #FBA015",
"6 	c #FC9F0D",
"7 	c #EE8A28",
"8 	c #B05D34",
"9 	c #698F56",
"0 	c #5A8F57",
"a 	c #65390B",
"b 	c #C07526",
"c 	c #F09D17",
"d 	c #FDB20E",
"e 	c #FEAE0C",
"f 	c #EE8F02",
"g 	c #B48D44",
"h 	c #708F55",
"i 	c #5A9058",
"j 	c #588F58",
"k 	c #588B57",
"l 	c #513422",
"m 	c #9B683C",
"n 	c #CB8E30",
"o 	c #EDAB1F",
"p 	c #F9A90F",
"q 	c #F99116",
"r 	c #B86622",
"s 	c #758E54",
"t 	c #588C58",
"u 	c #35302E",
"v 	c #5B4F4C",
"w 	c #725444",
"x 	c #906741",
"y 	c #BD8435",
"z 	c #DA8C26",
"A 	c #E08528",
"B 	c #AA6125",
"C 	c #718F55",
"D 	c #588957",
"E 	c #433D3B",
"F 	c #8D776D",
"G 	c #6D5852",
"H 	c #6F5348",
"I 	c #7B5540",
"J 	c #975E33",
"K 	c #9A5D28",
"L 	c #774B2C",
"M 	c #5E9057",
"N 	c #1E1917",
"O 	c #413734",
"P 	c #796356",
"Q 	c #6A5954",
"R 	c #63534E",
"S 	c #594844",
"T 	c #5D4F49",
"U 	c #5F524C",
"V 	c #1F0D00",
"W 	c #020101",
"X 	c #35302F",
"Y 	c #463633",
"Z 	c #55423D",
"` 	c #594B48",
" .	c #5C5452",
"..	c #575352",
"+.	c #525050",
"@.	c #515050",
"#.	c #070302",
"$.	c #362F2E",
"%.	c #3C2722",
"&.	c #4B3631",
"*.	c #483B38",
"=.	c #443F3D",
"-.	c #535251",
";.	c #353534",
">.	c #020202",
",.	c #030101",
"'.	c #352F2E",
").	c #3B2F2D",
"!.	c #2E1D19",
"~.	c #558251",
"{.	c #140F0E",
"].	c #0F0D0C",
"^.	c #0B0504",
"/.	c #170C0A",
"(.	c #568954",
"_.	c #578E57",
"                                                                ",
"                                                                ",
"                                                                ",
"                                                                ",
"                            . . . . . . .                       ",
"                          . . + + + + + . @                     ",
"                          @ + + + + + + + @                     ",
"                        @ . . + + + + + . . @                   ",
"                        @ . . . . . . . . . @                   ",
"                      @ @ @ . . . . . . . @ @ @                 ",
"                    @ @ @ @ @ @ . . . @ @ @ @ @ . @             ",
"                  . . . . @ @ @ @ @ @ @ @ @ @ . . . @           ",
"                  @ . . + . . @ @ @ @ @ . . + + . . @           ",
"                  @ . + + + + + + + + + + + + + + @             ",
"                    @ @ @ + + + + + + + + + + @ @               ",
"                      @ . @ @ @ @ @ @ @ @ @ @ #                 ",
"                      @ . . . . . . $ % & * $ #                 ",
"                        @ . . = = - ; > , ' = #                 ",
"                        @ . . ) ; > ! ~ { ] ^ #                 ",
"                          @ . / ( _ : < [ } |                   ",
"                            1 2 3 4 5 6 7 8 9                   ",
"                            0 a b c d e f g h i                 ",
"                          j k l m n o p q r s i                 ",
"                        j t u v w x y z A B C i                 ",
"                        j D E F G H I J K L M                   ",
"                        j N O P Q R S T U V                     ",
"                        W X Y Z `  ...+.@.@                     ",
"                        #.$.%.&.*.=.-.;.>.+ .                   ",
"                        ,.'.).!.~.{.].+ + + @                   ",
"                          ^./.(._.    @ @ @                     ",
"                            j                                   ",
"                                                                "};
