/* XPM */
static char * C:\Users\pc\Documents\pokemon_xpm\enemy\right_0_xpm[] = {
"32 32 116 2",
"  	c #589058",
". 	c #303030",
"+ 	c #505050",
"@ 	c #000000",
"# 	c #704040",
"$ 	c #986858",
"% 	c #C87850",
"& 	c #707070",
"* 	c #996858",
"= 	c #724040",
"- 	c #5A9058",
"; 	c #F8D0B8",
"> 	c #E8B080",
", 	c #E9AF7E",
"' 	c #F9CAB1",
") 	c #87463D",
"! 	c #678F56",
"~ 	c #F9CBB1",
"{ 	c #F9C3A6",
"] 	c #FBB796",
"^ 	c #B45733",
"/ 	c #828C52",
"( 	c #5E8F57",
"_ 	c #E9AE7D",
": 	c #EDA874",
"< 	c #F1A266",
"[ 	c #EB8532",
"} 	c #E77F1D",
"| 	c #D88834",
"1 	c #9C8B4C",
"2 	c #638F57",
"3 	c #CE7A4B",
"4 	c #D07B3F",
"5 	c #EE8F28",
"6 	c #F79E10",
"7 	c #FBA00D",
"8 	c #E89228",
"9 	c #A78D49",
"0 	c #698F56",
"a 	c #353130",
"b 	c #9E897F",
"c 	c #CC8955",
"d 	c #F09D14",
"e 	c #FDB20C",
"f 	c #FEAE07",
"g 	c #EF9921",
"h 	c #B48D44",
"i 	c #708F55",
"j 	c #51504F",
"k 	c #513422",
"l 	c #A46331",
"m 	c #CD8E31",
"n 	c #EDAB1F",
"o 	c #F9AA11",
"p 	c #F3971C",
"q 	c #BE8D41",
"r 	c #758E54",
"s 	c #313131",
"t 	c #515150",
"u 	c #545250",
"v 	c #4E403C",
"w 	c #715242",
"x 	c #906741",
"y 	c #BD8435",
"z 	c #DB902A",
"A 	c #E0902C",
"B 	c #B28E45",
"C 	c #718F55",
"D 	c #22201E",
"E 	c #BFA190",
"F 	c #8D776D",
"G 	c #68534E",
"H 	c #6F5348",
"I 	c #7B543F",
"J 	c #9B7640",
"K 	c #A18744",
"L 	c #878F50",
"M 	c #5E9057",
"N 	c #313030",
"O 	c #1E1917",
"P 	c #AE8666",
"Q 	c #796356",
"R 	c #655652",
"S 	c #655550",
"T 	c #56443F",
"U 	c #627D4F",
"V 	c #648A53",
"W 	c #5D9057",
"X 	c #020101",
"Y 	c #4F4C4B",
"Z 	c #3F2D28",
"` 	c #55423D",
" .	c #5D4F4C",
"..	c #534A49",
"+.	c #5B7555",
"@.	c #588656",
"#.	c #588F58",
"$.	c #070302",
"%.	c #362F2E",
"&.	c #43312D",
"*.	c #4B3631",
"=.	c #483B38",
"-.	c #383230",
";.	c #598357",
">.	c #588C58",
",.	c #588F57",
"'.	c #1C100D",
").	c #2F1D19",
"!.	c #2E1D19",
"~.	c #201411",
"{.	c #578B56",
"].	c #588E58",
"^.	c #578C56",
"/.	c #558753",
"(.	c #568954",
"_.	c #578E57",
"                                                                ",
"                                                                ",
"                                                                ",
"                                                                ",
"                                                                ",
"                                                                ",
"                        . . . . . . .                           ",
"                      . . + + + + + . @                         ",
"                      @ + + + + + + + @                         ",
"                    @ . . + + + + + . . @                       ",
"                    @ . . . . . . . . . @                       ",
"                  @ @ @ . . . . . . . @ @ @                     ",
"                @ @ @ @ @ @ . . . @ @ @ @ @ . @                 ",
"              . . . . @ @ @ @ @ @ @ @ @ @ . . . @               ",
"              @ . . + . . @ @ @ @ @ . . + + . . @               ",
"              @ . + + + + + + + + + + + + + + @                 ",
"                @ @ @ + + + + + + + + + + @ @                   ",
"                  @ . @ @ @ @ @ @ @ @ @ @ #                     ",
"                  @ . . . . . . $ % & @ * = -                   ",
"                    @ . . ; ; . > > > , ' ) ! -                 ",
"                    @ . . > > > > , ~ { ] ^ / (                 ",
"                      @ . . % % _ : < [ } | 1 2                 ",
"                        @ . . % 3 4 5 6 7 8 9 0                 ",
"                          @ . a b c d e f g h i -               ",
"                          @ + j k l m n o p q r -               ",
"                        @ s t u v w x y z A B C -               ",
"                        @ s D E F G H I J K L M                 ",
"                        @ N O P Q R S T U V W                   ",
"                          X Y Z `  ...+.@.#.                    ",
"                          $.%.&.*.=.-.;.>.                      ",
"                          ,.'.).!.~.{.].#.                      ",
"                            ^./.(._.                            "};
