/* XPM */
static char * C:\Users\pc\Documents\pokemon_xpm\enemy\right_1_xpm[] = {
"32 32 113 2",
"  	c #589058",
". 	c #303030",
"+ 	c #505050",
"@ 	c #000000",
"# 	c #704040",
"$ 	c #986858",
"% 	c #C87850",
"& 	c #707070",
"* 	c #996858",
"= 	c #724040",
"- 	c #5A9058",
"; 	c #F8D0B8",
"> 	c #E8B080",
", 	c #E9AF7E",
"' 	c #F9CAB1",
") 	c #87463D",
"! 	c #678F56",
"~ 	c #F9CBB1",
"{ 	c #F9C3A6",
"] 	c #FBB796",
"^ 	c #B45733",
"/ 	c #828C52",
"( 	c #5E8F57",
"_ 	c #E9AE7D",
": 	c #EDA874",
"< 	c #F1A266",
"[ 	c #EB8532",
"} 	c #E77F1D",
"| 	c #D88834",
"1 	c #9C8B4C",
"2 	c #638F57",
"3 	c #CE7A4B",
"4 	c #D07B3F",
"5 	c #EE8F28",
"6 	c #F79E10",
"7 	c #FBA00D",
"8 	c #E89228",
"9 	c #A78D49",
"0 	c #698F56",
"a 	c #353130",
"b 	c #9E897F",
"c 	c #CC8955",
"d 	c #F09D14",
"e 	c #FDB20C",
"f 	c #FEAE07",
"g 	c #EF9921",
"h 	c #B48D44",
"i 	c #708F55",
"j 	c #313131",
"k 	c #51504F",
"l 	c #655147",
"m 	c #A46331",
"n 	c #CD8E31",
"o 	c #EDAB1F",
"p 	c #F9AA11",
"q 	c #F3971C",
"r 	c #BE8D41",
"s 	c #758E54",
"t 	c #363535",
"u 	c #545250",
"v 	c #5B4F4C",
"w 	c #715242",
"x 	c #906741",
"y 	c #BD8435",
"z 	c #DB902A",
"A 	c #E0902C",
"B 	c #B28E45",
"C 	c #718F55",
"D 	c #393837",
"E 	c #433D3B",
"F 	c #8D776D",
"G 	c #6D5852",
"H 	c #6F5348",
"I 	c #7B5540",
"J 	c #9B7640",
"K 	c #A18744",
"L 	c #878F50",
"M 	c #5E9057",
"N 	c #373433",
"O 	c #413734",
"P 	c #796356",
"Q 	c #6A5954",
"R 	c #63534E",
"S 	c #56443F",
"T 	c #627D4F",
"U 	c #648A53",
"V 	c #5D9057",
"W 	c #4F4C4B",
"X 	c #514441",
"Y 	c #55423D",
"Z 	c #594B48",
"` 	c #534A49",
" .	c #4C4645",
"..	c #272321",
"+.	c #588F58",
"@.	c #313030",
"#.	c #4D4948",
"$.	c #3C2722",
"%.	c #47312B",
"&.	c #483B38",
"*.	c #443F3D",
"=.	c #3F3E3C",
"-.	c #181816",
";.	c #1C100D",
">.	c #507047",
",.	c #517248",
"'.	c #201411",
").	c #140F0E",
"!.	c #0F0D0C",
"~.	c #578C56",
"{.	c #558753",
"].	c #568954",
"^.	c #578E57",
"                                                                ",
"                                                                ",
"                                                                ",
"                                                                ",
"                                                                ",
"                          . . . . . . .                         ",
"                        . . + + + + + . @                       ",
"                        @ + + + + + + + @                       ",
"                      @ . . + + + + + . . @                     ",
"                      @ . . . . . . . . . @                     ",
"                    @ @ @ . . . . . . . @ @ @                   ",
"                  @ @ @ @ @ @ . . . @ @ @ @ @ . @               ",
"                . . . . @ @ @ @ @ @ @ @ @ @ . . . @             ",
"                @ . . + . . @ @ @ @ @ . . + + . . @             ",
"                @ . + + + + + + + + + + + + + + @               ",
"                  @ @ @ + + + + + + + + + + @ @                 ",
"                    @ . @ @ @ @ @ @ @ @ @ @ #                   ",
"                    @ . . . . . . $ % & @ * = -                 ",
"                      @ . . ; ; . > > > , ' ) ! -               ",
"                      @ . . > > > > , ~ { ] ^ / (               ",
"                        @ . . % % _ : < [ } | 1 2               ",
"                          @ . . % 3 4 5 6 7 8 9 0               ",
"                            @ . a b c d e f g h i -             ",
"                            @ j k l m n o p q r s -             ",
"                          @ j t u v w x y z A B C -             ",
"                          @ j D E F G H I J K L M               ",
"                        @ + + N O P Q R S T U V                 ",
"                        @ + + W X Y Z `  ...+.                  ",
"                      @ + . @.#.$.%.&.*.=.-.                    ",
"                      @ + + + ;.>.,.'.).!.+.                    ",
"                        @ @ @ ~.{.].^.                          ",
"                                +.                              "};
