/* XPM */
static char * C:\Users\pc\Documents\pokemon_xpm\enemy\up_0_xpm[] = {
"32 32 107 2",
"  	c #589058",
". 	c #303030",
"+ 	c #000000",
"@ 	c #505050",
"# 	c #986858",
"$ 	c #5A9058",
"% 	c #5B9058",
"& 	c #628F57",
"* 	c #728E55",
"= 	c #768D54",
"- 	c #678F56",
"; 	c #918C4F",
"> 	c #AF8846",
", 	c #AD8747",
"' 	c #828C52",
") 	c #5E8F57",
"! 	c #8F8D4F",
"~ 	c #B28D45",
"{ 	c #D28E37",
"] 	c #E58D2A",
"^ 	c #D88834",
"/ 	c #9C8B4C",
"( 	c #638F57",
"_ 	c #333130",
": 	c #7C8E52",
"< 	c #BF8E3F",
"[ 	c #E89628",
"} 	c #F6A218",
"| 	c #FBA00D",
"1 	c #E89228",
"2 	c #A78D49",
"3 	c #698F56",
"4 	c #52504F",
"5 	c #65390B",
"6 	c #C48937",
"7 	c #F09F1C",
"8 	c #FDB20C",
"9 	c #FEAE07",
"0 	c #EF9921",
"a 	c #B48D44",
"b 	c #708F55",
"c 	c #51504F",
"d 	c #655147",
"e 	c #976230",
"f 	c #CB8F31",
"g 	c #EDAB1F",
"h 	c #F9AA11",
"i 	c #F3971C",
"j 	c #BE8D41",
"k 	c #758E54",
"l 	c #704040",
"m 	c #E8B080",
"n 	c #363535",
"o 	c #545250",
"p 	c #534642",
"q 	c #84604A",
"r 	c #906741",
"s 	c #BD8435",
"t 	c #DB902A",
"u 	c #E0902C",
"v 	c #B28E45",
"w 	c #718F55",
"x 	c #22201E",
"y 	c #4B4644",
"z 	c #876D5D",
"A 	c #6D5650",
"B 	c #6F5348",
"C 	c #7D5D43",
"D 	c #9B7640",
"E 	c #A18744",
"F 	c #878F50",
"G 	c #5E9057",
"H 	c #313030",
"I 	c #373433",
"J 	c #413734",
"K 	c #62514E",
"L 	c #665753",
"M 	c #655A50",
"N 	c #60644D",
"O 	c #627D4F",
"P 	c #648A53",
"Q 	c #5D9057",
"R 	c #35302F",
"S 	c #3F2D28",
"T 	c #594F42",
"U 	c #5D584D",
"V 	c #5D6754",
"W 	c #5B7555",
"X 	c #588656",
"Y 	c #588F58",
"Z 	c #211411",
"` 	c #3C2722",
" .	c #52533B",
"..	c #566A49",
"+.	c #587A53",
"@.	c #598357",
"#.	c #588C58",
"$.	c #352F2E",
"%.	c #2F1D19",
"&.	c #517248",
"*.	c #558251",
"=.	c #578B56",
"-.	c #588E58",
";.	c #0B0504",
">.	c #558753",
",.	c #568954",
"'.	c #578E57",
"                                                                ",
"                                                                ",
"                                                                ",
"                                                                ",
"                                                                ",
"                          . .     . . .                         ",
"                        + @ @ . . @ @ . +                       ",
"                        + @ @ @ @ @ @ . +                       ",
"                      + . . @ @ @ @ @ . . +                     ",
"                      + . . @ @ @ @ . . . +                     ",
"                  + + + + . . @ @ @ . . + + + +                 ",
"                + . . + + . . . . . . . + + . . +               ",
"                + . . + + + + . . . + + + + . . +               ",
"                + @ . . + + + + + + + + + . . @ +               ",
"                  + @ . . . + + + + + . . . @ +                 ",
"                  . + @ @ . . . . . . . @ @ + .                 ",
"                  + # + + @ @ @ @ @ @ @ + + # +     $ % $       ",
"                  + # . + + + + + + + + + . # + $ & * = - $     ",
"                    + + . . . . . . . . . + + & * ; > , ' )     ",
"                      + + . . . . . . . + + - ! ~ { ] ^ / (     ",
"                      . + + . . . . . + + _ : < [ } | 1 2 3     ",
"                    + @ @ . + + + + + . @ 4 5 6 7 8 9 0 a b $   ",
"                  + @ @ @ @ . . . . . @ @ c d e f g h i j k $   ",
"                l m . @ . @ @ @ @ @ @ @ n o p q r s t u v w $   ",
"                l m m . + @ @ @ @ @ @ @ x y z A B C D E F G     ",
"                  l l + . . @ @ @ @ @ H I J K L M N O P Q       ",
"                      + . . . . . . . . R S T U V W X Y         ",
"                      + + . . + + + . H Z `  ...+.@.#.          ",
"                      + . . +       + . $.%.&.*.=.-.Y           ",
"                        + +           + ;.>.,.'.                ",
"                                          Y                     ",
"                                                                "};
