/* XPM */
static char * C:\Users\pc\Documents\pokemon_xpm\enemy\up_1_xpm[] = {
"32 32 112 2",
"  	c #589058",
". 	c #303030",
"+ 	c #000000",
"@ 	c #505050",
"# 	c #986858",
"$ 	c #5A9058",
"% 	c #5B9058",
"& 	c #628F57",
"* 	c #728E55",
"= 	c #768D54",
"- 	c #678F56",
"; 	c #918C4F",
"> 	c #AF8846",
", 	c #AD8747",
"' 	c #828C52",
") 	c #5E8F57",
"! 	c #4C372F",
"~ 	c #8F8D4F",
"{ 	c #B28D45",
"] 	c #D28E37",
"^ 	c #E58D2A",
"/ 	c #D88834",
"( 	c #9C8B4C",
"_ 	c #638F57",
": 	c #525050",
"< 	c #6A442D",
"[ 	c #BF8E3F",
"} 	c #E89628",
"| 	c #F6A218",
"1 	c #FBA00D",
"2 	c #E89228",
"3 	c #A78D49",
"4 	c #698F56",
"5 	c #704040",
"6 	c #E8B080",
"7 	c #52504F",
"8 	c #795A47",
"9 	c #C07526",
"0 	c #F09F1C",
"a 	c #FDB20C",
"b 	c #FEAE07",
"c 	c #EF9921",
"d 	c #B48D44",
"e 	c #708F55",
"f 	c #313131",
"g 	c #51504F",
"h 	c #655147",
"i 	c #996435",
"j 	c #CB8F31",
"k 	c #EDAB1F",
"l 	c #F9AA11",
"m 	c #F3971C",
"n 	c #BE8D41",
"o 	c #758E54",
"p 	c #70B868",
"q 	c #363535",
"r 	c #545250",
"s 	c #534642",
"t 	c #876655",
"u 	c #906741",
"v 	c #BD8435",
"w 	c #DB902A",
"x 	c #E0902C",
"y 	c #B28E45",
"z 	c #718F55",
"A 	c #22201E",
"B 	c #433D3B",
"C 	c #876D5D",
"D 	c #6D5650",
"E 	c #6F5348",
"F 	c #7D5D43",
"G 	c #9B7640",
"H 	c #A18744",
"I 	c #878F50",
"J 	c #5E9057",
"K 	c #313030",
"L 	c #373433",
"M 	c #413734",
"N 	c #62514E",
"O 	c #665753",
"P 	c #655A50",
"Q 	c #60644D",
"R 	c #627D4F",
"S 	c #648A53",
"T 	c #5D9057",
"U 	c #1C110F",
"V 	c #3F2D28",
"W 	c #594F42",
"X 	c #5D584D",
"Y 	c #5D6754",
"Z 	c #5B7555",
"` 	c #588656",
" .	c #588F58",
"..	c #070302",
"+.	c #547F4F",
"@.	c #4F5F3E",
"#.	c #52533B",
"$.	c #566A49",
"%.	c #587A53",
"&.	c #598357",
"*.	c #588C58",
"=.	c #588F57",
"-.	c #548351",
";.	c #507047",
">.	c #517248",
",.	c #558251",
"'.	c #578B56",
").	c #588E58",
"!.	c #578C56",
"~.	c #558753",
"{.	c #568954",
"].	c #578E57",
"                                                                ",
"                                                                ",
"                                                                ",
"                                                                ",
"                            . .     . . .                       ",
"                          + @ @ . . @ @ . +                     ",
"                          + @ @ @ @ @ @ . +                     ",
"                        + . . @ @ @ @ @ . . +                   ",
"                        + . . @ @ @ @ . . . +                   ",
"                    + + + + . . @ @ @ . . + + + +               ",
"                  + . . + + . . . . . . . + + . . +             ",
"                  + . . + + + + . . . + + + + . . +             ",
"                  + @ . . + + + + + + + + + . . @ +             ",
"                    + @ . . . + + + + + . . . @ +               ",
"                    . + @ @ . . . . . . . @ @ + .               ",
"                    + # + + @ @ @ @ @ @ @ + + # +               ",
"                    + # . + + + + + + + + + . # +   $ % $       ",
"                      + + . . . . . . . . . + + $ & * = - $     ",
"                        + + . . . . . . . + + & * ; > , ' )     ",
"                      . . + + . . . . . + + ! ~ { ] ^ / ( _     ",
"                    . @ @ @ . + + + + + . : < [ } | 1 2 3 4     ",
"                  5 6 . @ . @ . . . . . @ 7 8 9 0 a b c d e $   ",
"                  5 6 6 . + @ @ @ @ @ @ f g h i j k l m n o $   ",
"                    5 5 p + @ @ @ @ @ @ q r s t u v w x y z $   ",
"                        + . . @ @ @ @ @ A B C D E F G H I J     ",
"                        + . @ . . . . K L M N O P Q R S T       ",
"                        + @ @ @ @ . . . U V W X Y Z `  .        ",
"                        + . @ @ . + + ..+.@.#.$.%.&.*.          ",
"                          + . . +     =.-.;.>.,.'.). .          ",
"                          + @ @ +       !.~.{.].                ",
"                            + +            .                    ",
"                                                                "};
