/* XPM */
static char * C:\Users\pc\Documents\pokemon_xpm\enemy\up_2_xpm[] = {
"32 32 110 2",
"  	c #589058",
". 	c #303030",
"+ 	c #000000",
"@ 	c #505050",
"# 	c #5A9058",
"$ 	c #5B9058",
"% 	c #986858",
"& 	c #628F57",
"* 	c #728E55",
"= 	c #768D54",
"- 	c #678F56",
"; 	c #2E0E00",
"> 	c #918C4F",
", 	c #AF8846",
"' 	c #AD8747",
") 	c #828C52",
"! 	c #5E8F57",
"~ 	c #3B1900",
"{ 	c #8F8D4F",
"] 	c #B28D45",
"^ 	c #D28E37",
"/ 	c #E58D2A",
"( 	c #D88834",
"_ 	c #9C8B4C",
": 	c #638F57",
"< 	c #0D0400",
"[ 	c #7C8E52",
"} 	c #BF8E3F",
"| 	c #E89628",
"1 	c #F6A218",
"2 	c #FBA00D",
"3 	c #E89228",
"4 	c #A78D49",
"5 	c #698F56",
"6 	c #353130",
"7 	c #6D472C",
"8 	c #C48937",
"9 	c #F09F1C",
"0 	c #FDB20C",
"a 	c #FEAE07",
"b 	c #EF9921",
"c 	c #B48D44",
"d 	c #708F55",
"e 	c #51504F",
"f 	c #655147",
"g 	c #996435",
"h 	c #CB8F31",
"i 	c #EDAB1F",
"j 	c #F9AA11",
"k 	c #F3971C",
"l 	c #BE8D41",
"m 	c #758E54",
"n 	c #363535",
"o 	c #545250",
"p 	c #534642",
"q 	c #84604A",
"r 	c #906741",
"s 	c #BD8435",
"t 	c #DB902A",
"u 	c #E0902C",
"v 	c #B28E45",
"w 	c #718F55",
"x 	c #22201E",
"y 	c #4B4644",
"z 	c #876D5D",
"A 	c #6D5650",
"B 	c #6F5348",
"C 	c #7D5D43",
"D 	c #9B7640",
"E 	c #A18744",
"F 	c #878F50",
"G 	c #5E9057",
"H 	c #704040",
"I 	c #F8D0B8",
"J 	c #1E1917",
"K 	c #648B58",
"L 	c #62514E",
"M 	c #665753",
"N 	c #655A50",
"O 	c #60644D",
"P 	c #627D4F",
"Q 	c #648A53",
"R 	c #5D9057",
"S 	c #E8B080",
"T 	c #35302F",
"U 	c #3F2D28",
"V 	c #594F42",
"W 	c #5D584D",
"X 	c #5D6754",
"Y 	c #5B7555",
"Z 	c #588656",
"` 	c #588F58",
" .	c #504F4F",
"..	c #362F2E",
"+.	c #3C2722",
"@.	c #52533B",
"#.	c #566A49",
"$.	c #587A53",
"%.	c #598357",
"&.	c #588C58",
"*.	c #4E4A4A",
"=.	c #2F1D19",
"-.	c #517248",
";.	c #558251",
">.	c #578B56",
",.	c #588E58",
"'.	c #313030",
").	c #170C0A",
"!.	c #568954",
"~.	c #578E57",
"                                                                ",
"                                                                ",
"                                                                ",
"                                                                ",
"                          . .     . . .                         ",
"                        + @ @ . . @ @ . +                       ",
"                        + @ @ @ @ @ @ . +                       ",
"                      + . . @ @ @ @ @ . . +                     ",
"                      + . . @ @ @ @ . . . +                     ",
"                  + + + + . . @ @ @ . . + + + +                 ",
"                + . . + + . . . . . . . + + . . +               ",
"                + . . + + + + . . . + + + + . . +               ",
"                + @ . . + + + + + + + + + . . @ +               ",
"                  + @ . . . + + + + + . . . @ +                 ",
"                  . + @ @ . . . . . . . @ @ + .     # $ #       ",
"                  + % + + @ @ @ @ @ @ @ + + % + # & * = - #     ",
"                  + % . + + + + + + + + + . % ; * > , ' ) !     ",
"                    + + . . . . . . . . . + ~ { ] ^ / ( _ :     ",
"                      + + . . . . . . . + < [ } | 1 2 3 4 5     ",
"                      . + + . . . . . + + 6 7 8 9 0 a b c d #   ",
"                      . @ . + + + + + . @ e f g h i j k l m #   ",
"                    . @ @ @ . . . . . @ n o p q r s t u v w #   ",
"                    . @ @ . @ @ @ @ @ @ x y z A B C D E F G     ",
"                  H I . @ . @ @ @ @ @ @ J K L M N O P Q R       ",
"                  H S S + + @ @ @ @ @ . T U V W X Y Z `         ",
"                    H H + . . . . . .  ...+.@.#.$.%.&.          ",
"                        + + . . . @ @ @ *.=.-.;.>.,.`           ",
"                            + + + . @ @ '.).!.~.                ",
"                                  + . . + `                     ",
"                                  + @ @ +                       ",
"                                    + +                         ",
"                                                                "};
