/* XPM */
static char * C:\Users\pc\Documents\pokemon\3\right_0_xpm[] = {
"32 32 13 1",
" 	c #589058",
".	c #000000",
"+	c #483018",
"@	c #E0C090",
"#	c #B88868",
"$	c #303030",
"%	c #F86830",
"&	c #904820",
"*	c #B85018",
"=	c #785838",
"-	c #B0B0D0",
";	c #E8E8F8",
">	c #585858",
"                                ",
"                                ",
"                                ",
"                                ",
"                                ",
"                                ",
"                                ",
"                                ",
"                    ...         ",
"     ..++       +.. +@@..       ",
"    .@@@@+      .@@.##@@#.      ",
"   .#@@@@@+    +.#@@@@#@@@.     ",
"   .@@@@@@+  +++#.#@@@@@@@.     ",
" ..#@@#@@@@+ +#+##+@@@@@@@@.    ",
" .###@+@@@@+ +######@@@@@@@.    ",
"  .##+#@@@@+  +###..+@@@@@@.    ",
"   .+###@@#.$$$+##.%%&&@@@@+    ",
"    .#####+**$.###.*=%+-%@#.    ",
"    .#####.***..###..=%;.%+>.   ",
"     .###.%%%>.*++*+@@@%.&@@.   ",
"      +..%%%>>%****..#@@@@@#.   ",
"      +*>%%>>%%%**.##@@#@@..    ",
"  ....+*>>%%%%%****..@#...      ",
"  .@@#.$*>%%%***$****..         ",
"   .@@.$***%%+*+++***.          ",
"   .@@@.$***....@@+*$$.         ",
"    .+###...    .##+%%.         ",
"     .++.+       +.*%%%.        ",
"     .*%%+         .*%%.        ",
"      ...           ...         ",
"                                ",
"                                "};
