/* XPM */
static char * C:\Users\pc\Documents\pokemon\3\up_0_xpm[] = {
"32 32 9 1",
" 	c #589058",
".	c #000000",
"+	c #E0C090",
"@	c #483018",
"#	c #B88868",
"$	c #F86830",
"%	c #B85018",
"&	c #785838",
"*	c #904820",
"                                ",
"               ..               ",
"              .+.               ",
"             .++@ ..            ",
"          .  .++#@+.            ",
"         .+..+++#++.            ",
"         .+#@+++++##..          ",
"         .#+++++++###.          ",
"       ..@##+++++++##@..        ",
"       .$@##+++++++##@$.        ",
"       .%$@+++++++++@$%.        ",
"       .%%@@+++++++@@%%.        ",
"        .%%@+++++++@%%.         ",
"         ..+#+++++#+..          ",
"        @##.##++###.##@         ",
"         @#&.#####.&#@          ",
"          @@@....#@@@           ",
"         @%..++++..%%@@@@       ",
"      @@@@.+++++++#.%@&#@       ",
"      @#&.#++++++##.%%&@        ",
"       @&.++++++####.%@         ",
"        @.+++#######.*          ",
"      @@..++#.######.*@         ",
"      @+.%.+.######.%%.@@       ",
"      @++@@..######.%%.+@       ",
"       @#++#@@###@.%@@++@       ",
"        @@@@.@...%@#++#@        ",
"        .%%%.    ..@@@@         ",
"         ...      .%%%.         ",
"                   ...          ",
"                                ",
"                                "};
