/* XPM */
static char * C:\Users\pc\Documents\pokemon\1\right_1_xpm[] = {
"32 32 13 1",
" 	c #589058",
".	c #000000",
"+	c #604020",
"@	c #E07070",
"#	c #C84820",
"$	c #D08020",
"%	c #B05020",
"&	c #E8E8F8",
"*	c #A020A0",
"=	c #989898",
"-	c #C09840",
";	c #F088E0",
">	c #F0D070",
"                                ",
"                                ",
"                                ",
"                                ",
"                                ",
"                                ",
"                                ",
"                                ",
"               .+++             ",
"               .@@++            ",
"                .#@@+           ",
"             .....#@@+          ",
"            .#####..@@+         ",
"             ...####.@+         ",
"                ..###@@+        ",
"               +$%..##@+        ",
"               +$$%..#@+        ",
"              +$$$$.&+#*        ",
"             +$$$$+.=.-;*       ",
"       ++   +%$$$$.->-***       ",
"      ++-++ +$$$$+.>>%.         ",
"      +##>-+%$%+$$+%%%.         ",
"      +@@###%%+%$$.--.          ",
"       +>>-%%%+%%$$.+%+         ",
"       +##++%+%%%%$.+++         ",
"        ++  ++%%%%%%.           ",
"             .%%%%--.           ",
"             .%-----.           ",
"              .>->->-+          ",
"               ..>->-+          ",
"                 ...++          ",
"                                "};
