/* XPM */
static char * C:\Users\pc\Documents\pokemon\1\up_1_xpm[] = {
"32 32 10 1",
" 	c #589058",
".	c #604020",
"+	c #C84820",
"@	c #E07070",
"#	c #D08020",
"$	c #000000",
"%	c #B05020",
"&	c #C09840",
"*	c #F0D070",
"=	c #A020A0",
"                                ",
"                                ",
"                                ",
"                                ",
"                                ",
"                                ",
"                                ",
"                                ",
"                                ",
"              ..                ",
"             .+..               ",
"            .++.+.              ",
"            .+@+++.             ",
"           .#.@+@.#.            ",
"           .#.@@@.#.            ",
"           $%.@+@.%$            ",
"          .$%.++@$%$.           ",
"         .%.%%.+.%%.%.          ",
"        .##%%%.+$%%%##.         ",
"       .###%%%$+$%%%###.        ",
"     ..##%%%%%$$%%%%%%##..      ",
"   ..%#%%%%%$%%%%%$%%%%%#%..    ",
"  ..&*&%%&%$%%%%%%%$%&%%&*&..   ",
"  .**&&*&%$.%.....%.$%&*&&**.   ",
"   .&**$$$  $@*@*@$  $$$**&.    ",
"    ...    .$+&+&+$.    ...     ",
"           $=.$$$.=$            ",
"            $$   $$             ",
"                                ",
"                                ",
"                                ",
"                                "};
