/* XPM */
static char * C:\Users\pc\Documents\pokemon_xpm\animation\lost\enemy_face_xpm[] = {
"100 70 14 1",
" 	c #589058",
".	c #181820",
"+	c #A08080",
"@	c #D8A888",
"#	c #705860",
"$	c #505058",
"%	c #383840",
"&	c #F8D8B0",
"*	c #686870",
"=	c #C8C8D8",
"-	c #F0F0F8",
";	c #7888A0",
">	c #B0B0D0",
",	c #586880",
"                                                                                                    ",
"                                                                                                    ",
"                                                                                                    ",
"                                     ..++@@@@@...                                                   ",
"                                    .+@@@+@...@@@........                                           ",
"                                   .@+@@@#..@@@@@+.$$$$$$....                                       ",
"                                  .@@@@@@@@@@@@+++..$$$$$$$$$...                                    ",
"                                  .@+@@@@@@@@##...@@.$$$%%%%%%%%.....                               ",
"                                 .@@+@@@++@+..@@@@@@@..%%%%%%%%%%%%%%%.                             ",
"                                 .@+@@@+@@@@@@@@@@@@..%.%%%%%%%%%%%%%%.                             ",
"                                 #@+@@@+@@@@@@@@....%.%%..%%%%%%%%%%%%%.                            ",
"                                .@+@@@@@@@@@@%%%%%%%%$.%%%..%%%%%%%%%%%.                            ",
"                               .@@@@@@+@@@@+@##..%%%%$$%%%%%.......%%%%%.                           ",
"                              .@@@@@@@@@@@+@@@@@@..%$$$$%%%%%%%%%%%%%%%..                           ",
"                              .@@@@@@@@@@@@@@@@@@@..$$$$%%%%%%%%%%%%%..$.                           ",
"                             .@@@@@@@@@@@@@@@@@@@@+@.$$$%%%%%%%%%%%..$$$$.                          ",
"                            .@@@@@@@@@@@@@&+.....@@@.$$%%%%%%%%%...$$$$$$.                          ",
"                        ....@@@@@@@@@@@&&&&.%%%%%...$$$%%%%%%%..$$$$$$$$$%..                        ",
"                       .%%%..@@@@@@&&&&&&&.%%%%%%%%$$$$%%%%...$$$$$$$$$$$%%%....                    ",
"                      .%%%%%%..@@&&&&&&&#...%%%%%%%$$$$....$$$$$$$$$$$$$$.%%%%%%.                   ",
"                     .%%%%%%%%%%.&&&&&&...$$...........$$$$$$$$$$$$$$$$$.%%%%%%%.                   ",
"                     .%%%%%%%%%%%.&&...  .$$$$$$$$$***$$$$$$$$$$$$$$$$.%%%%%%%%.                    ",
"                    .%%%%%%%%%%%%%..    ..$$$$$$$$$***$$$$$$$$$$$$$$..%%%%%%%%%.                    ",
"                   .%%%%%%%%%%%%%%.   ..%.$$$$$$$$$***$$$$$$$$$$$$..%%%%%%%%%%.                     ",
"                  .%%%%%%%%%%%%%%%%...%%%.$$$$$$$$$$*$$$$$$$$$$...%%%%%%%%%%%.                      ",
"                  .%%%%%%%%%%%%%%%$.%%%%%.$$$$$$$$$$*$$$$$$$...%%%%%%%%%%%%..                       ",
"                 .%%%%%%%%%%%%%%%$$$.%%%%%..$$$$$$$$$$$$...%%%%%%%%%%%%%%%..                        ",
"                .%%%%%%%%%%%%%%%$$$$.%%%%%%%...........%%%%%%%%%%%%%%%%...%.                        ",
"               .%%%%%%%%%%%%%%$$$$$$.%%%%%%%%%%%%%%%$$$$$%%%%%%%%%%%...%%%%.                        ",
"              .%%%%%%%%%%%%%%$$$$$$.%%%%%%%%%%%%%$$$$$$$$$$$%%%%.....%%%....                        ",
"             .%%%%%%%%%%%%%%$$$$$$.%%%%%%%%%%%$$$$$$$$$$$$$$$$..#####%%.+++.                        ",
"             .%%%%%%%%%%%%%$$$$$$. ..%%%%%%$$$$$$$$$$$$$$$....###..###%.+##+.                       ",
"            .%%%%%%%%%%%%%$$$$$$.    ...$$$$$$$$$$$$.....%####...##.##.+#+++.                       ",
"           .%%%%%%%%%%%%%$$$$$$.        ............########..==.#####.+##++.                       ",
"           .%%%%%%%%%%%%$$$$$$$.         ...##.=..#######...=.--.####+#@#+#@.                       ",
"          .%%%%%%%%%%%%%$$$$$$.          .#.##.-.=..###++##.-;--.###+@@@@+#@.                       ",
"         .%%%%%%%%%%%%%$$$$$$$.          .#.##.-;-.#########>--###+@@@@@@+#@.                       ",
"         .%%%%%%%%%%%%%$$$$$$.           .#.###>--###########+@@@@@@@@@@##@.                        ",
"        .%%%%%%%%%%%%%$$$$$$.            .##############+@@@@@@@@@@@@@+@#@@.                        ",
"        .%%%%%%%%%%%%%$$$$$.              .#.@+####+@@@@@@@@@@@@@@@@@@#@@@.                         ",
"       .%%%%%%%%%%%%%$$$$$$.              .#.@@@@@@@@+@@@@@@@@@@@@@@@@#@+.                          ",
"       .%%%%%%%%%%%%%$$$$$.                ..@@@@@@@@#@@@@@@@@@@@@@&&&...                           ",
"      .$%%%%%%%%%%%%%$$$$.                  .#@@@@@@@#@@@@@@@@@@@&&&&.                              ",
"     .$%%%%%%%%%%%%%$$$$$.                   .@@@@@@@+@@@@@@@@@&&&&&&.                              ",
"     .$%%%%%%%%%%%%%$$$$.                    .@@@@@@#@@@@@@@@@+&&&&&&.                              ",
"    .$$%%%%%%%%%%%%$$$$$.                     #@@@@@+@@@@@@@@&&+&&&&#                               ",
"    .$%%%%%%%%%%%%$$$$$.                      .@@@@@@@@@@@@@&&&@&&&&.                               ",
"   .$$%%%%%%%%%%%$$$$$.                        .#@@@++#+#####&&&&&&#%                               ",
"   .$$$%%%%%%%$$$$$$$$..                        .#@@#@@@@@@@&#+&&&#+..                              ",
"   .$$$$%%%$$$$$$$$$$...                          .@@@@++++&&&&&##++.%.                             ",
"  .$$$$$$$$$$$$$$$$$...%..                         .@@@@@@&&&&##+++,>%%.                            ",
"  .$$%$$$$$$$$$$$$..%%.%.%..      .....         ..%..@@@@&&&##+++++,>.%%.                           ",
"  .%$%$$$$$$$$$$..%%%%.%.%%%......$$$$%..      .%%%%,..#####+++++,,>>.%%.                           ",
"  .%%%$$$$$$$$$.%%%%%.%%.%%%%...$$$$$$$$$......%%%.%>,+++++++++,,>>>.%%%%.                          ",
"   .%%%$$$$$$%.%%%%%%.%%.%%%%%%...$$$$$%%%%%%.%%%%.%>>;,,,,,,,;>>>>>.%%%%.                          ",
"   .%%%%$$$$%%%%%%%%%.%%%.%%%%%%%....%%%%%%%%.%%%.%%>>>>>,>>>>>>>>>..%%%%%.                         ",
"    .%%%%%%%%%%%%%%%.%%%%.%%%%%%%%.%%.%%%%%%.%%%%.%%>>>>>,>>>>>>>;,.%%%%%%..                        ",
"     .%%%%%%%%%%%%%%.%%%%%%%%%%%%%%.%%.%%%%%.%%%..%,>>>>>,>>>>>;,,;.%%%%%%.%..                      ",
"      ..%%%%%%%%%%%.%%%%%%%%%%%%%%%.%%%%%%%.%%%%..>>,,>>>,>>,,;>>>.%%%%%%%.%%%..                    ",
"        .%%%%%%%%%.%%%%%%%.%%%%%%%%%.%%%%%.%%%%%.>>>>>,,,;;;>>>>>..%%%%%%%%.%%%%..                  ",
"         .%%%%%%%%%%%%%%%%%.%%%%%%%%.%%%%%%%%%%%.>>>>>>>,>>>>>>>>.%%%%%%%%%.%%%%%%...               ",
"          .%%%%%%%%%%%%%%%%.%%%%%%%%%%%%%.%%%%%$.>>>>>>>,>     >..%%%%%%%%%.%%%%%%%%%..             ",
"           .%%%%%%%%%%%%%%%%.%%%%%%%.%%%%.%%%$$$..>>>   ;      ,.%%%%%%%%%%.%%%%%%%%%%%..           ",
"           .%%%%%%%%%%%%%%%%.%%%%%%%.%%%.%%$$$$$..>    ;       ..$$$%%%%%%%%.%%%%%%%%$$$$..         ",
"            ..%%%%%%%%%%%%%%%.%%%%%%.%%.%$$$$$$$.$.    ;      ..$$$$$$$$%%%%.%%%%%$$$$$$$$$.        ",
"              .%%%%%%%%%%%%%%.%%%%%%.%%.$$$$$$$$.$.>  >>    >..$$$$$$$$$$$$$.$$$$$$$$$$$$$$$.       ",
"                                                                                                    ",
"                                                                                                    ",
"                                                                                                    ",
"                                                                                                    "};
