/* XPM */
static char * C:\Users\pc\Documents\pokemon_xpm\sceane\floor_1_xpm[] = {
"32 32 89 1",
" 	c #BDBCB1",
".	c #A5A592",
"+	c #C2BFB3",
"@	c #C6C5B9",
"#	c #A8A793",
"$	c #C4C4B2",
"%	c #9B9B85",
"&	c #C0BFAB",
"*	c #C1BEA6",
"=	c #A19F90",
"-	c #C2BFB8",
";	c #A9A69A",
">	c #BDBDAA",
",	c #B8B7A3",
"'	c #A9A48E",
")	c #C2C2AD",
"!	c #A3A28D",
"~	c #C1C5A4",
"{	c #CBCEAE",
"]	c #C8C7B2",
"^	c #A09F8B",
"/	c #A09E87",
"(	c #B0AF9C",
"_	c #989783",
":	c #94947E",
"<	c #AAAA95",
"[	c #ACAC99",
"}	c #959482",
"|	c #9D9D89",
"1	c #9FA090",
"2	c #C591B0",
"3	c #D7B2C7",
"4	c #BBBBA6",
"5	c #D5B0C6",
"6	c #C490B0",
"7	c #D4B0C5",
"8	c #C590B0",
"9	c #8E8E7A",
"0	c #D0ADC2",
"a	c #C18DAD",
"b	c #AC7599",
"c	c #CAC8B9",
"d	c #B4B49E",
"e	c #AA7497",
"f	c #D2AEC4",
"g	c #C38FAF",
"h	c #AE779A",
"i	c #C6C9B2",
"j	c #BE8CAB",
"k	c #979983",
"l	c #A4A88A",
"m	c #A6A993",
"n	c #96997E",
"o	c #A77295",
"p	c #BEC1AB",
"q	c #C5C9AD",
"r	c #A3A585",
"s	c #B5BAA3",
"t	c #9EA183",
"u	c #BABC9E",
"v	c #BFC0B1",
"w	c #9EA28A",
"x	c #B3B895",
"y	c #A5A698",
"z	c #A7A898",
"A	c #BDC3A3",
"B	c #9AA47C",
"C	c #9A9E7D",
"D	c #939772",
"E	c #8D926A",
"F	c #BEC9A7",
"G	c #A9AD8B",
"H	c #C5CEA5",
"I	c #BDC49D",
"J	c #C8D1A6",
"K	c #CAD4A9",
"L	c #93A277",
"M	c #BCCB9B",
"N	c #C9D9A8",
"O	c #B6C397",
"P	c #A6B18F",
"Q	c #ADBC91",
"R	c #929977",
"S	c #9EA982",
"T	c #A4AC85",
"U	c #C7C8BA",
"V	c #B4B5A3",
"W	c #ACA9A0",
"X	c #B6B3AA",
" .+@+#++$%$&&&***=-@$;$ @%@$>$> ",
"+.**,'&)*!)~)){]*=&&,.>)>^))+)$@",
";%&]&/(''_'!'://<%&]&/[.._.!!}|1",
">.)]).**)))]][)]&.)$&'23$))$$[)@",
"&!44*.]])$&)&^4&*^&52.52)$&)>!*>",
"$<)]&#&,$&&)>.$$$#)6782,$)))4.)@",
"+%.!!9<.^}.;#=+))%#!0ab.!:.[.!)$",
"+'*)cd]&$<)+(;+&$'>)ae]*fg>)(.$>",
"c|$&,)>))!4$)^4$]^&4aeafgh&)&.)$",
"4|)]ii$)>!)4>^$$&.)jaaee&!>>4^&+",
".k..l}%!mk$4>n[/!%!oae%/<%&]&|<.",
"$)p))<)q4r{s~t~u>)&ee(&]&.))>!) ",
" vp)pws,~tuu~l{{)c&&&.>)>!4>4.]@",
"@vp)>l)qqru~~rxx))&)&.&c$#))).4,",
"y}wzww)qABCrDEBC%:!<#/&))%.!^9<z",
">z$$,<FusGxHIJKI4<)),<&)$!>)],$>",
"*'*)~l~IFLFMMNMOu!)])#)&$%])4$4>",
"&'**urFFIPNFFMOQ4!&&,!&&&/)))$$@",
"[/&]&/<wBRwSTLSS<%)$)/;!._..!}/=",
"+=$])'pFqFFOMQFF4.)))!)>))&$][)@",
"+=*>p1iv>vpFpwAAA!4>,.)])$&)>!4&",
"+;++vzpsp>pvpyvv$#)))#&,$&))4.$$",
"v%..19[y[wyz1k>$)|.!!9##!:.[.!)$",
"vys$UVis ypvV;$)$!4)]d]>)<&>d.) ",
"Uwqssppp>!)))<))]|$&,)&)>!&)&#)+",
"stqiii)p>!>4,!&),/]]]]))&.&4,!>$",
"1nlllRtwG%)q&%[!._...}/^<%&]&|;.",
"@pppp<)i*!q)~!*&$)&&)<)c&.))>.&p",
">$&$)!,,>!444!)q&)&)&!,4>.4,4.]@",
"@&&+>.)$)z))pm>s$)&)4.)$$#)$).>,",
";}=;y|@]v|yw.9zz.:!<!w$@&%..^9<.",
"-W-@XW+ @1 vUV@> ;$@X;+>$.>$@V@ "};
