/* XPM */
static char * C:\Users\pc\Documents\pokemon_xpm\sceane\floor_2_xpm[] = {
"32 32 95 2",
"  	c #BDBCB1",
". 	c #A5A592",
"+ 	c #C2BFB3",
"@ 	c #C6C5B9",
"# 	c #A8A793",
"$ 	c #C4C4B2",
"% 	c #9B9B85",
"& 	c #C0BFAB",
"* 	c #C1BEA6",
"= 	c #A19F90",
"- 	c #C2BFB8",
"; 	c #A9A69A",
"> 	c #BDBDAA",
", 	c #B8B7A3",
"' 	c #A9A48E",
") 	c #C2C2AD",
"! 	c #A3A28D",
"~ 	c #C1C5A4",
"{ 	c #CBCEAE",
"] 	c #C8C7B2",
"^ 	c #A09F8B",
"/ 	c #A09E87",
"( 	c #B0AF9C",
"_ 	c #989783",
": 	c #94947E",
"< 	c #AAAA95",
"[ 	c #43583D",
"} 	c #ACAC99",
"| 	c #959482",
"1 	c #9D9D89",
"2 	c #9FA090",
"3 	c #A4BB55",
"4 	c #7E9B54",
"5 	c #BBBBA6",
"6 	c #68814E",
"7 	c #8E8E7A",
"8 	c #CAC8B9",
"9 	c #B4B49E",
"0 	c #8B8774",
"a 	c #9C9C8C",
"b 	c #A0A08E",
"c 	c #9E9D8D",
"d 	c #9A9A89",
"e 	c #888878",
"f 	c #C6C9B2",
"g 	c #A5A493",
"h 	c #A7A598",
"i 	c #979983",
"j 	c #A4A88A",
"k 	c #A6A993",
"l 	c #96997E",
"m 	c #BEC1AB",
"n 	c #C5C9AD",
"o 	c #A3A585",
"p 	c #B5BAA3",
"q 	c #9EA183",
"r 	c #BABC9E",
"s 	c #BFC0B1",
"t 	c #9EA28A",
"u 	c #B3B895",
"v 	c #A5A698",
"w 	c #BDC3A3",
"x 	c #9AA47C",
"y 	c #9A9E7D",
"z 	c #939772",
"A 	c #8D926A",
"B 	c #A7A898",
"C 	c #A9AD8B",
"D 	c #C5CEA5",
"E 	c #BDC49D",
"F 	c #C8D1A6",
"G 	c #CAD4A9",
"H 	c #BEC9A7",
"I 	c #93A277",
"J 	c #BCCB9B",
"K 	c #C9D9A8",
"L 	c #B6C397",
"M 	c #A6B18F",
"N 	c #ADBC91",
"O 	c #828571",
"P 	c #929977",
"Q 	c #9EA982",
"R 	c #A4AC85",
"S 	c #9D9F8D",
"T 	c #9DA689",
"U 	c #838376",
"V 	c #A3A693",
"W 	c #C7C8BA",
"X 	c #B4B5A3",
"Y 	c #A2A293",
"Z 	c #8C8C7A",
"` 	c #989786",
" .	c #868574",
"..	c #ACA9A0",
"+.	c #B6B3AA",
"  . + @ + # + + $ % $ & & & * * * = - @ $ ; $   @ % @ $ > $ >   ",
"+ . * * , ' & ) * ! ) ~ ) ) { ] * = & & , . > ) > ^ ) ) + ) $ @ ",
"; % & ] & / ( ' ' _ ' ! ' : / / < % [ [ [ / } . [ [ [ ! ! | 1 2 ",
"> . ) ] ) . * * ) ) ) ] ] } ) ] & [ 3 3 4 [ & [ 4 3 3 [ $ } ) @ ",
"& ! 5 5 * . ] ] ) $ & ) & ^ 5 & [ 3 4 6 4 6 [ 6 4 6 4 3 [ ! * > ",
"$ < ) ] & # & , $ & & ) > . $ $ [ 3 3 3 6 6 [ 6 6 3 3 3 [ . ) @ ",
"+ % . ! ! 7 < . ^ | . ; # = + ) ) [ [ 3 4 6 [ 6 4 3 [ [ . ! ) $ ",
"+ ' * ) 8 9 ] & $ < ) + ( ; + & $ 0 a [ [ 6 [ 6 [ [ a b ( . $ > ",
"8 1 $ & , ) > ) ) ! 5 $ ) ^ 5 $ ] ^ c d d [ [ [ a e c ) & . ) $ ",
"5 1 ) ] f f $ ) > ! ) 5 > ^ $ $ & . ) ) g g b h c ! > > 5 ^ & + ",
". i . . j | % ! k i $ 5 > l } / ! % ! ! . _ % / < % & ] & 1 < . ",
"$ ) m ) ) < ) n 5 o { p ~ q ~ r > ) & & ] ( & ] & . ) ) > ! )   ",
"  s m ) m t p , ~ q r r ~ j { { ) 8 & & & . > ) > ! 5 > 5 . ] @ ",
"@ s m ) > j ) n n o r ~ ~ o u u ) ) & ) & . & 8 $ # ) ) ) . 5 , ",
"v | t [ [ t [ [ w x y o z A x y % : ! < # / & ) ) % . ! ^ 7 < B ",
"> B [ 3 3 [ 3 3 [ C u D E F G E 5 < ) ) , < & ) $ ! > ) ] , $ > ",
"* ' * [ 4 3 4 [ H I H J J K J L r ! ) ] ) # ) & $ % ] ) 5 $ 5 > ",
"& ' * * [ 4 [ H E M K H H J L N 5 ! & & , ! & & & / ) ) ) $ $ @ ",
"} / & g [ 6 [ O x P t Q R I Q Q < % ) $ ) / ; ! . _ . . ! | / = ",
"+ = $ g b [ S T n H [ [ J [ [ H 5 . ) ) ) ! ) > ) ) & $ ] } ) @ ",
"+ = * > S U V s > [ 3 3 [ 3 3 [ w ! 5 > , . ) ] ) $ & ) > ! 5 & ",
"+ ; + + s B m p m > [ 4 3 4 [ s $ # ) ) ) # & , $ & ) ) 5 . $ $ ",
"s % . . 2 7 } v } t v [ 4 [ > $ ) 1 . ! ! 7 # # ! : . } . ! ) $ ",
"s v p $ W X f p   v S [ 6 [ Y ) $ ! 5 ) ] 9 ] > ) < & > 9 . )   ",
"W t n p p m m m > ! b b [ Z b ) ] 1 $ & , ) & ) > ! & ) & # ) + ",
"p q n f f f ) m > ! > d `  .& ) , / ] ] ] ] ) ) & . & 5 , ! > $ ",
"2 l j j j P q t C % ) n & % } ! . _ . . . | / ^ < % & ] & 1 ; . ",
"@ m m m m < ) f * ! n ) ~ ! * & $ ) & & ) < ) 8 & . ) ) > . & m ",
"> $ & $ ) ! , , > ! 5 5 5 ! ) n & ) & ) & ! , 5 > . 5 , 5 . ] @ ",
"@ & & + > . ) $ ) B ) ) m k > p $ ) & ) 5 . ) $ $ # ) $ ) . > , ",
"; | = ; v 1 @ ] s 1 v t . 7 B B . : ! < ! t $ @ & % . . ^ 7 < . ",
"- ..- @ +...+   @ 2   s W X @ >   ; $ @ +.; + > $ . > $ @ X @   "};
