/* XPM */
static char * C:\Users\pc\Documents\pokemon_xpm\sceane\wall__xpm[] = {
"32 32 351 2",
"  	c #445158",
". 	c #505E64",
"+ 	c #515F65",
"@ 	c #526066",
"# 	c #49565C",
"$ 	c #4B595F",
"% 	c #4B585E",
"& 	c #4E5B61",
"* 	c #505D63",
"= 	c #536167",
"- 	c #4A575E",
"; 	c #525F65",
"> 	c #4F5D63",
", 	c #47555B",
"' 	c #49575D",
") 	c #4C5A60",
"! 	c #48565C",
"~ 	c #4F5C63",
"{ 	c #4D5A60",
"] 	c #4F5C62",
"^ 	c #4D5A61",
"/ 	c #778B94",
"( 	c #7D919A",
"_ 	c #7F949C",
": 	c #7E929B",
"< 	c #81959E",
"[ 	c #80959D",
"} 	c #8498A0",
"| 	c #7A8F98",
"1 	c #82969F",
"2 	c #859AA2",
"3 	c #80949E",
"4 	c #7F949D",
"5 	c #869BA4",
"6 	c #7F939C",
"7 	c #7B8F99",
"8 	c #7D929B",
"9 	c #8297A0",
"0 	c #798D97",
"a 	c #889CA6",
"b 	c #8397A0",
"c 	c #8599A3",
"d 	c #788D96",
"e 	c #8398A1",
"f 	c #7F959E",
"g 	c #7A8F99",
"h 	c #7D919B",
"i 	c #7B9098",
"j 	c #7C9099",
"k 	c #7F939B",
"l 	c #7F929B",
"m 	c #7A8D96",
"n 	c #73878F",
"o 	c #7C8F99",
"p 	c #7D9199",
"q 	c #798D96",
"r 	c #7D939A",
"s 	c #788C96",
"t 	c #7A8D97",
"u 	c #7D929C",
"v 	c #798C96",
"w 	c #7B8E97",
"x 	c #748892",
"y 	c #7C8F98",
"z 	c #778A95",
"A 	c #758892",
"B 	c #7B8E98",
"C 	c #7C909A",
"D 	c #768A92",
"E 	c #778A93",
"F 	c #798C95",
"G 	c #748790",
"H 	c #70838B",
"I 	c #758890",
"J 	c #778A92",
"K 	c #72858E",
"L 	c #74878F",
"M 	c #6D8089",
"N 	c #73868F",
"O 	c #6B7E87",
"P 	c #73858E",
"Q 	c #758991",
"R 	c #505D64",
"S 	c #778993",
"T 	c #768992",
"U 	c #758891",
"V 	c #70848D",
"W 	c #6C7F88",
"X 	c #71858E",
"Y 	c #6D818A",
"Z 	c #788B94",
"` 	c #768991",
" .	c #6D7E87",
"..	c #687A83",
"+.	c #6C7E86",
"@.	c #6E8188",
"#.	c #6E8189",
"$.	c #70828A",
"%.	c #72848C",
"&.	c #6A7D86",
"*.	c #6B7D86",
"=.	c #6B7D85",
"-.	c #687B83",
";.	c #72848D",
">.	c #526065",
",.	c #71838C",
"'.	c #6E828A",
").	c #697B84",
"!.	c #6F818A",
"~.	c #6D8189",
"{.	c #71848D",
"].	c #6D7F88",
"^.	c #677982",
"/.	c #687982",
"(.	c #6A7C85",
"_.	c #6F8189",
":.	c #6F838B",
"<.	c #6F8088",
"[.	c #6E8088",
"}.	c #677881",
"|.	c #65777F",
"1.	c #687B82",
"2.	c #677981",
"3.	c #657780",
"4.	c #65787F",
"5.	c #64767E",
"6.	c #61737C",
"7.	c #667880",
"8.	c #6D7F87",
"9.	c #63757D",
"0.	c #6C7E87",
"a.	c #6A7D85",
"b.	c #64757E",
"c.	c #64777F",
"d.	c #6A7C84",
"e.	c #63757E",
"f.	c #697C84",
"g.	c #6D8087",
"h.	c #697B83",
"i.	c #65757E",
"j.	c #63747C",
"k.	c #5E6F78",
"l.	c #61727B",
"m.	c #63757C",
"n.	c #62737B",
"o.	c #515E64",
"p.	c #66777F",
"q.	c #687881",
"r.	c #61737B",
"s.	c #63747D",
"t.	c #667780",
"u.	c #697A83",
"v.	c #5E6F77",
"w.	c #697982",
"x.	c #6A7B83",
"y.	c #6A7A83",
"z.	c #677880",
"A.	c #5F7179",
"B.	c #687981",
"C.	c #62747C",
"D.	c #6A7C83",
"E.	c #697B82",
"F.	c #66787F",
"G.	c #5C6D75",
"H.	c #5F7178",
"I.	c #677780",
"J.	c #697A82",
"K.	c #607179",
"L.	c #5F7079",
"M.	c #65767E",
"N.	c #5C6E76",
"O.	c #677980",
"P.	c #6A7B84",
"Q.	c #64767D",
"R.	c #6B7C84",
"S.	c #64757D",
"T.	c #536166",
"U.	c #5D6E76",
"V.	c #5C6E75",
"W.	c #63767D",
"X.	c #5E7077",
"Y.	c #4F5D62",
"Z.	c #60727A",
"`.	c #687A81",
" +	c #5D6F76",
".+	c #546167",
"++	c #536067",
"@+	c #546168",
"#+	c #4A585E",
"$+	c #4D5B61",
"%+	c #49575C",
"&+	c #566469",
"*+	c #4C5A5F",
"=+	c #47555A",
"-+	c #515F64",
";+	c #4D5B60",
">+	c #4C595F",
",+	c #4E5C61",
"'+	c #4B595E",
")+	c #8296A0",
"!+	c #7F929C",
"~+	c #81959F",
"{+	c #80939D",
"]+	c #80959E",
"^+	c #7A8E97",
"/+	c #7A8F97",
"(+	c #81959D",
"_+	c #758A92",
":+	c #7D929A",
"<+	c #82969E",
"[+	c #7C9098",
"}+	c #81949D",
"|+	c #8599A1",
"1+	c #80949D",
"2+	c #7E949C",
"3+	c #7D9098",
"4+	c #7A8F96",
"5+	c #798D95",
"6+	c #7A8D95",
"7+	c #748891",
"8+	c #4C5960",
"9+	c #768A93",
"0+	c #7C8E98",
"a+	c #6C8089",
"b+	c #72868F",
"c+	c #788C94",
"d+	c #71858D",
"e+	c #788A93",
"f+	c #738790",
"g+	c #788B95",
"h+	c #72868D",
"i+	c #72858D",
"j+	c #768891",
"k+	c #697C85",
"l+	c #6E818A",
"m+	c #677A83",
"n+	c #6E8089",
"o+	c #70848C",
"p+	c #6D8188",
"q+	c #6A7E85",
"r+	c #72838C",
"s+	c #70828B",
"t+	c #70828C",
"u+	c #71838B",
"v+	c #72838D",
"w+	c #70818A",
"x+	c #677A82",
"y+	c #4E5C62",
"z+	c #667981",
"A+	c #667982",
"B+	c #6E7F88",
"C+	c #62737C",
"D+	c #6B7E86",
"E+	c #5D6F77",
"F+	c #64767F",
"G+	c #687A82",
"H+	c #60717A",
"I+	c #65767F",
"J+	c #61727A",
"K+	c #65777E",
"L+	c #4E5B62",
"M+	c #5C6D76",
"N+	c #5E7078",
"O+	c #64747D",
"P+	c #61737A",
"Q+	c #62747B",
"R+	c #6B7D84",
"S+	c #47545B",
"T+	c #5B6C74",
"U+	c #596B73",
"V+	c #5F7078",
"W+	c #66767F",
"X+	c #536066",
"Y+	c #525F66",
"Z+	c #48555C",
"`+	c #46545A",
" @	c #4C595E",
".@	c #4A575C",
"+@	c #48555B",
"@@	c #8BA1AB",
"#@	c #879CA6",
"$@	c #8398A2",
"%@	c #8A9FA8",
"&@	c #8499A3",
"*@	c #8A9FA9",
"=@	c #879DA6",
"-@	c #859AA4",
";@	c #7F949E",
">@	c #899EA9",
",@	c #889EA7",
"'@	c #8BA0AA",
")@	c #899EA7",
"!@	c #859AA3",
"~@	c #849AA3",
"{@	c #4F5C61",
"]@	c #8DA2AB",
"^@	c #8599A2",
"/@	c #879CA5",
"(@	c #8BA0A8",
"_@	c #8196A0",
":@	c #889DA6",
"<@	c #899DA6",
"[@	c #8BA1AA",
"}@	c #7E919B",
"|@	c #7C919A",
"1@	c #7A8E96",
"2@	c #7C9199",
"3@	c #7B8D96",
"4@	c #73868E",
"5@	c #6F838C",
"6@	c #6F828B",
"7@	c #7A8C94",
"8@	c #798C94",
"9@	c #798B93",
"0@	c #6D8088",
"a@	c #6B7D87",
"b@	c #6D7E86",
"c@	c #62747D",
"d@	c #6F8089",
"e@	c #687B84",
"f@	c #71828A",
"g@	c #5F727A",
"h@	c #667881",
"i@	c #6C7D86",
"j@	c #63737C",
"k@	c #61717A",
"l@	c #5D6E77",
"m@	c #4B585F",
"n@	c #4A575D",
"o@	c #515E65",
"p@	c #778C95",
"q@	c #788C95",
"r@	c #7B8F98",
"s@	c #7F939D",
"t@	c #7A8E98",
"u@	c #7E929C",
"v@	c #7E919C",
"w@	c #7D909A",
"x@	c #778A94",
"y@	c #748991",
"z@	c #798B94",
"A@	c #70838C",
"B@	c #758790",
"C@	c #71838D",
"D@	c #778992",
"E@	c #7A8C95",
"F@	c #6B7C85",
"G@	c #6B7E85",
"H@	c #6C7F86",
"I@	c #5B6D74",
"J@	c #66777E",
"  . + + @ # . $ % & & * = @ - - ; > + > , ' + ) @ . ! ~ { ] , ^ ",
"/ ( _ : < [ } | 1 2 3 4 5 6 7 8 9 & 9 6 0 6 a b c b d < e f g h ",
"i / j k l [ m n o p q r m s o t ( > u v w / x y h z A B C D E 0 ",
"F G H I J D K L M L N J O P Q E Q R A S T T U G V N W X U Y S Z ",
"`  ...+.@.#.$.%.&.*.=.-.*.=.;. .+.>.,.'.O ).!.~.{.].).^./.(._.:.",
"+.<.[.}.|.1.2.3.4.5.6.(.5.7.8.9.7.@ (.0.a.b.c.(.(.d.d.5.e.f.).g.",
"/.7./.d.h.5.d.}.i.i.j.7.|.k.l.m.n.o.p.q.h.r.s.5.t.u.5.5.r.v.w.x.",
"y.z.d.7.5.A.1.B.C.D.q.E.F.G.5.H.n.; B.2.I.C.J.p.p.K.L.M.7.N.O./.",
"|.2.P.7.s./.2.O.N.M.Q.R.9.z.Q.n.S.T.Q.t.z.7.J.D.F.U.A.7.p.V.H.t.",
"+.x.x.d.u.|.5.n.W.l.B.H.C.O.|.X.H.Y.S.Z.2.p.`.2.n. +M.2.E.S.Z.S.",
".+.+++@ R @+#+* .+$+#+%+% ; &+* *+] # =+-+;+Y.>+*+,+'+; * ;+>.;+",
"< )+!+~+9 8 {+] ]+9 ^+^+/+< (+_ : l _+:+<+j [+l < }+* |+j _ 1+2+",
"3+m 4+5+6+7+T 8+9+0+K a+b+m c+Q J F {.K 5+d+5+e+5+K * Z f+e+g+w ",
"h+i+H j+W k+i+~ #.l+m+&.d.n+n+o+W #.p+h.-.q+{.W r+g.~ ;.s+t+u+v+",
"x.d.+.w+R.x+_.y+-.z+^.A+B+d.C+h.D+d.4.E+9.0.D+=.x+F+>+g.u.^.*.&.",
"S.E.D.5.K.G+d.= H+E+I+5.}.I+9.|.2.7.|.V.J+C.M.G+r.U.{ 7.d.C.7.h.",
"J+K+E.K+K.b.}.L+U.M+N+2.9.O+9.y.}.N+P+r.V.Q+K+u.m.K+; B.B.5.}.h.",
"x.E.`.R+=.p.}.S+l.U.T+U+r.5.V+p.B.b.F.K.T+Q.K+z.J+M.o./.W+S.G+J.",
"X+o.$+Y.] @++ @ Y+! Z+`+> ^ 8+* > @ .+>+o. @] .@ @;+* ; +@{ .+@ ",
"@@#@+ 5 $@%@&@*@=@-@;@>@,@'@)@a !@~@{@]@5 4 ]+< ^@/@(@c _@:@<@[@",
"1+6 X+}@< _ ^+4 6 !+q 9+( |@B 1+:+6 >.C 6 }@h y n 1@!+Z 9+2@<+6 ",
"3@Z @ P K 4@N G T K H *.a+K 5@T J 6@] P 7@U 8@9@D+{.L u+H 0@P L ",
"a@[.; d.(.0.+.b@d.3.h.^.c@(.2.+.R+P.& R.d@f.e@h. .n+D+u+#.1.f@8.",
"J+P.= Q.7. .2.t.g@h@i@j@A.L.9.r.9.|.@+M.J.9.W+q.F.C.J+M.m.S.E.J.",
"k@i.* l.C.z.s.2.5.u.t.G+s.k.p.l@ +z.Y+B./.j@u./.q.x.B.j.V.n.J.D.",
"m@- ' n@o.Y+R 8+. Y+{ + m@$+) >+#+# R ++o.o.@+& ] ~ o@; & +@{ * ",
"p@7 9+q@1+r@t v ]+}@* s@7 9+q t@: q u@o o ( u@v@: {+Y+7 w@E x@y@",
"z@{.W a.N A@A@G e+T y+G Z l+D+Y I B@K N W C@A B@j+D@; e+E@G D@].",
"F@F+h@h@e.2.u.(.B+B+* [.r+J.C.G@$.+.8.d.F+(.H@h@[.).o.l+h.9.m+#.",
"C.b.9.P.7.Z.Z.2.`.W+o.u.2.H.I@W.F.Q.y.I+s.p.}.b.J@B.++5.b.7.t.G+",
"B.j@k.L.7.t.L.p.O.C+; I.H.b.A.X.K+K+E.J+7.E.E.G+r.+.- O+P.2.N+I+",
"* $+`+' $ n@y+.+$ ) { *+y+X+>+n@# %+-+; . ] ) * & y+Z+) @ ~ - ~ "};
