/* XPM */
static char *result[] = {
/* columns rows colors chars-per-pixel */
"32 32 38 1 ",
"  c #ABACA4",
". c #ACADA5",
"X c #ADAEA6",
"o c #AEAFA7",
"O c #AFB0A8",
"+ c #B1B2AA",
"@ c #B2B3AB",
"# c #B3B4AC",
"$ c #B3B4AE",
"% c #B4B5AD",
"& c #B4B5AF",
"* c #B5B6AE",
"= c #B6B7AF",
"- c #B7B8B0",
"; c #B9BAB2",
": c #C0C1B9",
"> c #C2C3BB",
", c #C2C3BD",
"< c #C3C4BC",
"1 c #C3C4BE",
"2 c #C4C5BD",
"3 c #C4C5BF",
"4 c #C5C6BE",
"5 c #C6C7BF",
"6 c #C6C7C1",
"7 c #C7C8C0",
"8 c #C7C8C2",
"9 c #C8C9C1",
"0 c #C8C9C3",
"q c #C9CAC2",
"w c #CACBC3",
"e c #C9CAC4",
"r c #CACBC5",
"t c #CBCCC4",
"y c #CBCCC6",
"u c #CDCEC6",
"i c #CFD0C8",
"p c #CFD0CA",
/* pixels */
"81&ryp0e81&ryp0e81&ryp0e81&ryp0e",
"9<-<45<49<-<45<49<-<45<49<-<45<4",
";#Oo*+%.;#Oo*+%.;#Oo*+%.;#Oo*+%.",
"54q:w<w+54q:w<w+54q:w<w+54q:w<w+",
"7qi5i5uo7qi5i5uo7qi5i5uo7qi5i5uo",
"47729>4@47729>4@47729>4@47729>4@",
"== #@#@X== #@#@X== #@#@X== #@#@X",
"95#2>q7795#2>q7795#2>q7795#2>q77",
"7<%wti9q7<%wti9q7<%wti9q7<%wti9q",
"9<-<45<49<-<45<49<-<45<49<-<45<4",
";#Oo*+%.;#Oo*+%.;#Oo*+%.;#Oo*+%.",
"54q:w<w+54q:w<w+54q:w<w+54q:w<w+",
"7qi5i5uo7qi5i5uo7qi5i5uo7qi5i5uo",
"47729>4@47729>4@47729>4@47729>4@",
"== #@#@X== #@#@X== #@#@X== #@#@X",
"95#2>q7795#2>q7795#2>q7795#2>q77",
"7<%wti9q7<%wti9q7<%wti9q7<%wti9q",
"9<-<45<49<-<45<49<-<45<49<-<45<4",
";#Oo*+%.;#Oo*+%.;#Oo*+%.;#Oo*+%.",
"54q:w<w+54q:w<w+54q:w<w+54q:w<w+",
"7qi5i5uo7qi5i5uo7qi5i5uo7qi5i5uo",
"47729>4@47729>4@47729>4@47729>4@",
"== #@#@X== #@#@X== #@#@X== #@#@X",
"95#2>q7795#2>q7795#2>q7795#2>q77",
"7<%wti9q7<%wti9q7<%wti9q7<%wti9q",
"9<-<45<49<-<45<49<-<45<49<-<45<4",
";#Oo*+%.;#Oo*+%.;#Oo*+%.;#Oo*+%.",
"54q:w<w+54q:w<w+54q:w<w+54q:w<w+",
"7qi5i5uo7qi5i5uo7qi5i5uo7qi5i5uo",
"47729>4@47729>4@47729>4@47729>4@",
"== #@#@X== #@#@X== #@#@X== #@#@X",
"06$3,e8806$3,e8806$3,e8806$3,e88"
};
